<?xml version="1.0" standalone="no"?>
<!DOCTYPE svg PUBLIC "-//W3C//DTD SVG 1.1//EN" "http://www.w3.org/Graphics/SVG/1.1/DTD/svg11.dtd" >
<svg xmlns="http://www.w3.org/2000/svg">
<metadata></metadata>
<defs>
<font id="corporaterounded-plainregular" horiz-adv-x="205" >
<font-face units-per-em="1000" ascent="800" descent="-200" />
<missing-glyph horiz-adv-x="252" />
<glyph unicode=" "  horiz-adv-x="252" />
<glyph unicode="&#x09;" horiz-adv-x="252" />
<glyph unicode="&#xa0;" horiz-adv-x="252" />
<glyph unicode="!" horiz-adv-x="298" d="M148 96q21 0 36 -15t15 -36t-15 -36t-36 -15t-36 15t-15 36t15 36t36 15zM104 238v433q0 47 44 47q21 0 33 -12q11 -14 11 -35v-433q0 -47 -44 -47q-22 0 -32 13q-12 12 -12 34z" />
<glyph unicode="&#x22;" horiz-adv-x="336" d="M55 539v136q0 43 41 43q20 0 31 -11q10 -11 10 -32v-136q0 -43 -41 -43q-20 0 -30 12q-11 11 -11 31zM197 539v136q0 43 41 43q21 0 32 -11q10 -11 10 -32v-136q0 -43 -42 -43q-20 0 -30 12q-11 11 -11 31z" />
<glyph unicode="#" horiz-adv-x="539" d="M318 282l21 148h-120l-21 -148h120zM382 216l-26 -186q-4 -36 -38 -36q-18 0 -25 10q-9 9 -9 24q0 7 5 42l20 146h-120l-26 -186q-5 -36 -38 -36q-18 0 -25 10q-9 9 -9 24q0 7 5 42l20 146h-61q-41 0 -41 33q0 16 12 25q11 8 29 8h70l21 148h-61q-41 0 -41 33t41 33h70 l26 186q5 36 38 36q17 0 26 -9q9 -13 9 -25q0 -10 -6 -42l-20 -146h120l26 186q4 36 38 36q17 0 26 -9q8 -11 8 -25q0 -7 -5 -42l-20 -146h61q41 0 41 -33q0 -16 -11 -24q-12 -9 -30 -9h-70l-21 -148h61q41 0 41 -33t-41 -33h-70z" />
<glyph unicode="$" horiz-adv-x="483" d="M261 332v-257q49 11 78 48q28 37 28 92q0 45 -27 71q-29 27 -79 46zM218 70v277q-97 33 -143 69q-47 35 -47 119q0 64 53 120t137 63v47q0 21 21 21q22 0 22 -21v-47q61 0 107 -25t46 -58q0 -17 -10 -27q-10 -12 -28 -12q-10 0 -48 21q-36 20 -67 25v-219q98 -34 150 -74 q50 -41 50 -130q0 -86 -52 -147q-53 -62 -148 -74v-51q0 -21 -22 -21q-21 0 -21 21v47q-77 0 -136 28q-61 28 -61 61q0 17 9 30q9 12 26 12q12 0 62 -27q49 -28 100 -28zM218 439v203q-43 -4 -69 -32q-27 -28 -27 -69q0 -39 24 -61q25 -23 72 -41z" />
<glyph unicode="%" horiz-adv-x="744" d="M209 58l267 638q14 30 35 30q15 0 26 -8q9 -9 9 -19q0 -8 -14 -45l-266 -638q-14 -30 -38 -30q-33 0 -33 27q0 7 3 15q1 5 11 30zM42 549q0 72 40 121q41 48 112 48q73 0 113 -49t40 -120q0 -73 -40 -120q-40 -49 -113 -49q-70 0 -111 50t-41 119zM634 163q0 47 -21 81 t-65 34t-65 -34t-21 -81q0 -46 21 -80q21 -35 65 -35t65 34t21 81zM396 163q0 72 40 121q41 48 112 48q72 0 112 -49t40 -120q0 -73 -40 -120q-40 -49 -112 -49q-70 0 -111 50t-41 119zM281 549q0 47 -21 81q-22 34 -66 34t-65 -34t-21 -81q0 -45 21 -80t65 -35t66 34 q21 34 21 81z" />
<glyph unicode="&#x26;" horiz-adv-x="670" d="M264 76q46 0 84 21q35 18 79 70l-183 210q-70 -40 -94 -76q-26 -38 -26 -90q0 -59 36 -97t104 -38zM271 472q37 20 67 49q27 25 27 56q0 33 -24 52q-23 19 -57 19t-57 -18q-23 -20 -23 -55q0 -23 27 -56q21 -25 40 -47zM319 417l159 -188l6 8q12 19 33 50.5t28 42.5 q19 31 38 31q37 0 37 -30q0 -23 -21 -60q-20 -38 -72 -100l87 -103q18 -21 18 -38q0 -16 -10 -26t-26 -10q-21 0 -34 16l-86 99q-46 -58 -104 -87q-56 -28 -116 -28q-91 0 -156 56q-64 55 -64 151q0 83 38 133q37 49 121 100q-33 34 -56 71t-23 68q0 74 48 110q49 35 127 35 q63 0 110 -36q46 -36 46 -90q0 -62 -34 -102q-33 -38 -94 -73z" />
<glyph unicode="'" d="M61 539v136q0 43 41 43q20 0 31 -11q10 -11 10 -32v-136q0 -43 -41 -43q-20 0 -30 12q-11 11 -11 31z" />
<glyph unicode="(" horiz-adv-x="242" d="M123 691q7 22 18 34q11 11 26 11t26 -8q9 -9 9 -21q0 -10 -5 -27q-1 -5 -7 -22t-10 -30q-11 -36 -22 -119q-11 -86 -11 -191q0 -118 10 -191q11 -83 23 -118q5 -16 11 -34.5t7 -20.5q4 -12 4 -25q0 -29 -35 -29q-13 0 -23 9q-10 7 -30 59q-18 47 -34 148q-15 97 -15 202 q0 104 15 201q16 101 43 172z" />
<glyph unicode=")" horiz-adv-x="242" d="M118 -55q-8 -23 -18 -33q-10 -12 -26 -12t-25 9q-10 7 -10 20q0 10 5 27q2 5 7.5 22t9.5 30q13 40 23 120q10 79 10 190q0 118 -10 191q-11 83 -23 118q-5 16 -10.5 34.5t-6.5 20.5q-5 15 -5 25q0 29 35 29q12 0 23 -8q10 -9 30 -59q19 -49 34 -148q15 -97 15 -203 q0 -104 -15 -201q-16 -101 -43 -172z" />
<glyph unicode="*" horiz-adv-x="392" d="M150 541l-89 37q-13 6 -18 14t-5 18q0 14 10 24t25 10t43 -22q18 -15 54 -43q0 15 -5 58q-6 38 -6 46q0 16 10 26q9 9 26 9t27 -9q9 -11 9 -26q0 -6 -5 -51q-6 -40 -6 -53q31 26 61 48q23 17 37 17q15 0 25 -10t10 -24q0 -13 -5 -20q-6 -8 -18 -12l-90 -37l90 -37 q15 -7 19 -13q4 -7 4 -19q0 -14 -10 -24t-25 -10q-16 0 -42 22q-38 28 -56 43q0 -19 6 -57q5 -43 5 -47q0 -16 -9 -25q-10 -10 -27 -10t-26 10q-10 9 -10 25q0 11 6 51q5 45 5 53q-38 -31 -60 -48q-23 -17 -37 -17q-15 0 -25 10t-10 24t6 21q5 6 17 11z" />
<glyph unicode="+" horiz-adv-x="603" d="M260 294v169q0 43 41 43q20 0 31 -11q10 -11 10 -32v-169h169q43 0 43 -41q0 -19 -11 -30q-13 -11 -32 -11h-169v-169q0 -43 -41 -43q-19 0 -30 12q-11 11 -11 31v169h-170q-43 0 -43 41q0 21 12 31q10 10 31 10h170z" />
<glyph unicode="," horiz-adv-x="252" d="M33 -51l56 110q10 19 19 28t28 9q18 0 29 -10q11 -11 11 -28q0 -13 -11 -37l-56 -110q-10 -20 -19 -28q-9 -9 -28 -9q-17 0 -28 11q-12 11 -12 27q0 13 11 37z" />
<glyph unicode="-" horiz-adv-x="354" d="M280 230h-207q-16 0 -27 11t-11 27t11 27t27 11h207q16 0 27 -11t11 -27t-11 -27t-27 -11z" />
<glyph unicode="." horiz-adv-x="252" d="M125 96q21 0 36 -15t15 -36t-15 -36t-36 -15t-36 15t-15 36t15 36t36 15z" />
<glyph unicode="/" horiz-adv-x="409" d="M34 75l274 613q6 16 16 23q8 7 25 7q18 0 28 -10q11 -11 11 -27q0 -11 -14 -44l-274 -613q-6 -14 -15 -22q-11 -8 -26 -8q-18 0 -28 10q-11 11 -11 27q0 11 14 44z" />
<glyph unicode="0" horiz-adv-x="539" d="M269 70q63 0 102 72q39 71 39 214q0 142 -39 214q-41 72 -102 72q-64 0 -103 -71q-39 -72 -39 -215t40 -214q39 -72 102 -72zM269 718q101 0 168 -97t67 -265t-66 -265q-67 -97 -169 -97q-101 0 -169 98q-67 97 -67 264q0 168 67 265q66 97 169 97z" />
<glyph unicode="1" horiz-adv-x="354" d="M164 41v595h-92q-16 0 -27 11t-11 27t11 27t27 11h153q17 0 22 -4q6 -6 6 -20v-647q0 -47 -45 -47q-22 0 -32 13q-12 12 -12 34z" />
<glyph unicode="2" horiz-adv-x="539" d="M182 76h271q16 0 27 -11t11 -27t-11 -27t-27 -11h-346q-26 0 -37 11t-11 25t19 40l247 329q25 33 38 63q14 33 14 63q0 48 -32 80q-31 31 -81 31q-62 0 -97 -45q-34 -46 -34 -116q0 -21 -11 -30q-11 -10 -28 -10q-43 0 -43 54q0 95 61 159q60 64 167 64q86 0 139 -52 q53 -53 53 -125q0 -50 -12 -83q-14 -33 -37 -64z" />
<glyph unicode="3" horiz-adv-x="539" d="M249 -6q-99 0 -153 56q-55 55 -55 108q0 23 10 36t27 13q34 0 49 -44q13 -43 43 -68q28 -25 77 -25q60 0 98 38t38 94q0 73 -34 103q-35 30 -90 30t-55 38q0 29 50 39q48 10 73 38q24 27 24 76q0 52 -27 84q-29 32 -75 32q-49 0 -73 -28q-23 -28 -28 -76q0 -20 -9 -30 q-11 -11 -33 -11q-18 0 -29 12q-11 13 -11 29q0 76 51 128q49 52 137 52q83 0 134 -53t51 -131q0 -46 -21 -86q-22 -39 -63 -65q60 -19 91 -64q31 -46 31 -109q0 -99 -64 -157q-65 -59 -164 -59z" />
<glyph unicode="4" horiz-adv-x="539" d="M122 259h213v365zM335 183h-285q-21 0 -29 8q-9 7 -9 23q0 8 6 22q4 9 16 29l253 413q14 23 29 31q17 9 40 9q30 0 49 -17q18 -18 18 -56v-386h45q16 0 27 -11t11 -27t-11 -27t-27 -11h-45v-142q0 -47 -44 -47q-22 0 -32 13q-12 12 -12 34v142z" />
<glyph unicode="5" horiz-adv-x="539" d="M228 636l-29 -193q40 20 95 20q81 0 132 -64q50 -65 50 -152q0 -117 -61 -184q-61 -69 -171 -69q-81 0 -140 41q-60 41 -60 77q0 16 8 27t24 11q11 0 60 -37t109 -37q63 0 100 45q37 43 37 109q0 67 -30 109q-32 42 -93 42q-33 0 -62 -9l-60 -18q-14 0 -22 8t-8 19 q0 9 3 29q1 8 2.5 18t1.5 12l37 249q5 23 33 23h248q16 0 27 -11t11 -27t-11 -27t-27 -11h-204z" />
<glyph unicode="6" horiz-adv-x="539" d="M266 76q62 0 94 44q31 43 31 110q0 74 -30 114q-31 40 -95 40q-62 0 -94 -44t-32 -110q0 -68 31 -111t95 -43zM52 239q0 99 37 183q36 85 92 155q51 62 101 105q44 36 60 36q11 0 24 -11q12 -11 12 -30q0 -9 -8 -20q-5 -8 -39 -38q-35 -31 -68 -73q-34 -43 -74 -114 q27 14 54 21t62 7q82 0 132 -68q48 -67 48 -166q0 -97 -62 -165q-61 -67 -156 -67q-94 0 -154 70q-61 68 -61 175z" />
<glyph unicode="7" horiz-adv-x="502" d="M367 634l-301 2q-16 0 -27 11t-11 27t11 27t27 11h362q45 0 45 -28q0 -13 -6 -28q-2 -5 -5.5 -13.5t-5.5 -11.5l-267 -605q-7 -17 -22 -25q-13 -7 -31 -7q-15 0 -24 11t-9 23q0 6 2 16q1 7 12 31z" />
<glyph unicode="8" horiz-adv-x="539" d="M269 70q52 0 88 39t36 106q0 57 -32 100q-33 42 -92 42q-60 0 -92 -41q-33 -40 -33 -101q0 -66 36 -105q36 -40 89 -40zM269 433q47 0 74 29q26 29 26 76q0 46 -27 75t-73 29q-49 0 -74 -28q-27 -28 -27 -76t27 -76q27 -29 74 -29zM269 718q74 0 128 -42q54 -44 54 -121 q0 -57 -21 -91q-22 -35 -72 -67q61 -14 95 -63t34 -115q0 -91 -59 -158q-58 -67 -159 -67t-159 67q-60 66 -60 158q0 66 34 115q35 50 95 63q-48 31 -71 67q-22 35 -22 91q0 77 55 120q53 43 128 43z" />
<glyph unicode="9" horiz-adv-x="539" d="M272 636q-62 0 -94 -44t-32 -110q0 -74 31 -114q30 -40 95 -40q62 0 94 44q31 43 31 110q0 68 -31 111t-94 43zM485 473q0 -97 -36 -183q-38 -88 -93 -154q-56 -69 -99 -105q-44 -37 -62 -37q-11 0 -24 11q-12 11 -12 30q0 9 8 20q4 5 40 38q31 28 68 74q33 42 73 113 q-22 -11 -54 -20q-29 -8 -62 -8q-83 0 -131 68q-49 67 -49 166q0 97 62 165q61 67 157 67q93 0 154 -69q60 -71 60 -176z" />
<glyph unicode=":" horiz-adv-x="252" d="M125 432q21 0 36 -15t15 -36t-15 -36t-36 -15t-36 15t-15 36t15 36t36 15zM125 96q21 0 36 -15t15 -36t-15 -36t-36 -15t-36 15t-15 36t15 36t36 15z" />
<glyph unicode=";" horiz-adv-x="252" d="M125 432q21 0 36 -15t15 -36t-15 -36t-36 -15t-36 15t-15 36t15 36t36 15zM33 -51l56 110q10 19 19 28t28 9q18 0 29 -10q11 -11 11 -28q0 -13 -11 -37l-56 -110q-10 -20 -19 -28q-9 -9 -28 -9q-17 0 -28 11q-12 11 -12 27q0 13 11 37z" />
<glyph unicode="&#x3c;" horiz-adv-x="603" d="M150 253l373 -184q9 -5 23 -13q9 -7 9 -25q0 -16 -10 -26q-11 -11 -23 -11q-9 0 -16 4q-4 1 -33 14l-391 195q-36 18 -36 46t36 46l391 195q7 3 25 12q14 6 24 6q14 0 24 -10q9 -10 9 -27q0 -15 -7 -22q-5 -5 -25 -16z" />
<glyph unicode="=" horiz-adv-x="603" d="M511 108h-421q-43 0 -43 41q0 21 12 31q10 10 31 10h421q43 0 43 -41q0 -19 -11 -30q-13 -11 -32 -11zM511 316h-421q-43 0 -43 41q0 21 12 31q10 10 31 10h421q43 0 43 -41q0 -19 -11 -30q-13 -11 -32 -11z" />
<glyph unicode="&#x3e;" horiz-adv-x="603" d="M78 69l373 184l-373 184q-16 9 -22 14q-10 6 -10 24q0 16 10 26q11 11 23 11q8 0 17 -3q6 -4 32 -15l391 -195q36 -18 36 -46t-36 -46l-391 -195q-7 -3 -25 -11q-13 -7 -24 -7q-14 0 -23 11q-10 10 -10 26q0 14 8 22q6 6 24 16z" />
<glyph unicode="?" horiz-adv-x="446" d="M214 96q21 0 36 -15q16 -15 16 -36t-16 -36q-15 -15 -36 -15t-36 15t-15 36t15 36t36 15zM259 338v-100q0 -47 -45 -47q-22 0 -32 13q-12 12 -12 34v113q0 36 10 46q12 12 61 22q53 11 72 41q20 31 20 66q0 50 -33 80t-84 30q-42 0 -71 -18q-30 -19 -40 -50t-20 -39 q-11 -8 -24 -8q-18 0 -30 13q-13 12 -13 33q0 64 61 107q62 44 134 44q92 0 153 -52t61 -132q0 -79 -44 -129q-46 -51 -124 -67z" />
<glyph unicode="@" horiz-adv-x="804" d="M766 420q0 -119 -86 -206q-61 -63 -120 -65q-54 -1 -61 52q-48 -65 -118 -65q-86 0 -137 65q-51 61 -51 153t50 154q51 64 138 64q33 0 63 -14q29 -14 53 -43l2 22q0 20 10 26q9 9 22 9t23 -9q10 -7 10 -26v-262q0 -62 30 -60q30 1 60 54q35 61 35 139q0 112 -80 178 q-81 66 -194 66q-130 0 -216 -85q-87 -85 -87 -211q0 -129 89 -212q90 -84 223 -84q82 0 143 34q21 12 61.5 38t60.5 38q25 0 25 -23q0 -42 -101 -98q-100 -55 -196 -55q-161 0 -270 105q-111 103 -111 257q0 152 111 257t268 105q145 0 248 -83q103 -85 103 -215zM498 354 q0 62 -28 110q-29 47 -89 47q-59 0 -88 -48q-29 -45 -29 -109q0 -65 29 -110q29 -47 88 -47t88 47t29 110z" />
<glyph unicode="A" horiz-adv-x="615" d="M445 231l-137 385l-140 -385h277zM141 155l-46 -128q-12 -33 -43 -33q-19 0 -30 10q-12 10 -12 27q0 7 6 24q3 11 6 20l221 589q10 26 25 41q13 13 39 13q23 0 39 -14q14 -13 24 -40l221 -589q1 -3 2 -7t3 -9t3 -8q4 -12 4 -20q0 -17 -12 -27q-11 -10 -30 -10 q-17 0 -27 9q-10 7 -16 24l-46 128h-331z" />
<glyph unicode="B" horiz-adv-x="540" d="M58 48v616q0 48 47 48h156q89 0 141 -51q51 -52 51 -119q0 -58 -27 -100q-27 -43 -72 -56q64 -7 110 -58q44 -52 44 -120q0 -88 -62 -148t-171 -60h-170q-25 0 -35 13q-12 14 -12 35zM146 339v-263h125q67 0 108 37q41 36 41 95q0 56 -39 94q-38 37 -106 37h-129z M146 636v-225h100q56 0 88 33q31 31 31 82q0 49 -29 80q-28 30 -87 30h-103z" />
<glyph unicode="C" horiz-adv-x="596" d="M344 70q52 0 98 21q62 28 93 43q35 0 35 -41q0 -35 -68 -67q-69 -32 -158 -32q-147 0 -230 107t-83 255q0 150 84 256q82 106 234 106q87 0 147 -36q59 -36 59 -68q0 -20 -9 -30q-10 -12 -27 -12q-12 0 -59 35t-111 35q-112 0 -167 -85q-57 -85 -57 -201q0 -114 56 -200 t163 -86z" />
<glyph unicode="D" horiz-adv-x="633" d="M151 636v-560h127q117 0 172 82q56 82 56 202t-57 198q-59 78 -177 78h-121zM63 48v616q0 48 47 48h174q151 0 234 -101q82 -100 82 -251q0 -164 -81 -261q-81 -99 -223 -99h-186q-25 0 -35 13q-12 14 -12 35z" />
<glyph unicode="E" horiz-adv-x="446" d="M146 315v-233h213q43 0 43 -41q0 -19 -11 -30q-13 -11 -32 -11h-254q-25 0 -35 13q-12 14 -12 35v616q0 48 47 48h254q43 0 43 -41q0 -19 -11 -30q-13 -11 -32 -11h-213v-233h194q43 0 43 -41q0 -19 -11 -30q-13 -11 -32 -11h-194z" />
<glyph unicode="F" horiz-adv-x="409" d="M146 315v-274q0 -47 -44 -47q-22 0 -32 13q-12 12 -12 34v623q0 48 47 48h251q43 0 43 -41q0 -19 -11 -30q-13 -11 -32 -11h-210v-233h186q43 0 43 -41q0 -19 -11 -30q-13 -11 -32 -11h-186z" />
<glyph unicode="G" horiz-adv-x="670" d="M560 326h-124q-43 0 -43 41q0 21 12 31q10 10 31 10h148q35 0 50 -15q14 -17 14 -57q0 -149 -68 -246q-69 -96 -236 -96q-148 0 -230 106q-83 107 -83 256q0 150 83 257q82 105 243 105q101 0 173 -39q71 -41 71 -75q0 -17 -11 -30q-10 -12 -31 -12q-11 0 -72 40t-136 40 q-112 0 -169 -86t-57 -200q0 -116 57 -201t173 -85q96 0 151 67q54 66 54 147v42z" />
<glyph unicode="H" horiz-adv-x="670" d="M146 319v-272q0 -25 -11 -39q-12 -14 -33 -14q-44 0 -44 53v618q0 27 12 40q10 13 32 13q44 0 44 -53v-270h376v270q0 27 12 40q10 13 32 13q44 0 44 -53v-618q0 -25 -11 -39q-12 -14 -33 -14q-44 0 -44 53v272h-376z" />
<glyph unicode="I" d="M146 671v-630q0 -47 -44 -47q-22 0 -32 13q-12 12 -12 34v630q0 47 44 47q21 0 33 -12q11 -14 11 -35z" />
<glyph unicode="J" horiz-adv-x="372" d="M224 172v499q0 47 45 47q21 0 33 -12q11 -14 11 -35v-490q0 -89 -41 -138q-42 -49 -133 -49q-44 0 -95 23t-51 57q0 37 35 37q4 0 44 -20q37 -21 74 -21q43 0 61 28q17 28 17 74z" />
<glyph unicode="K" horiz-adv-x="577" d="M146 339v-298q0 -47 -44 -47q-22 0 -32 13q-12 12 -12 34v630q0 47 44 47q21 0 33 -12q11 -14 11 -35v-260l306 279q7 7 23 19q11 9 25 9q18 0 28 -10t10 -28q0 -16 -4 -23q-6 -10 -14 -17l-293 -263l320 -308q18 -17 18 -36q0 -17 -12 -27q-13 -12 -31 -12q-8 0 -18 2 q-8 1 -25 17z" />
<glyph unicode="L" horiz-adv-x="391" d="M146 671v-589h189q43 0 43 -41q0 -19 -11 -30q-13 -11 -32 -11h-230q-25 0 -35 13q-12 14 -12 35v623q0 47 44 47q21 0 33 -12q11 -14 11 -35z" />
<glyph unicode="M" horiz-adv-x="839" d="M202 604l-85 -572q-3 -22 -15 -29q-14 -9 -32 -9q-20 0 -30 12q-11 11 -11 33q0 8 5 40l97 572q6 35 25 51q17 16 44 16q52 0 65 -46l152 -521l154 521q13 46 64 46q27 0 45 -15q17 -17 24 -52l98 -572q5 -32 5 -40q0 -45 -41 -45q-20 0 -33 8q-12 8 -15 30l-83 572 l-172 -574q-8 -21 -17 -28q-11 -8 -28 -8q-16 0 -27 8t-18 28z" />
<glyph unicode="N" horiz-adv-x="671" d="M148 557l-2 -516q0 -47 -44 -47q-22 0 -32 13q-12 12 -12 34v625q0 52 40 52q20 0 31 -8q12 -8 31 -38l361 -517l2 516q0 47 44 47q21 0 33 -12q11 -14 11 -35v-625q0 -52 -40 -52q-20 0 -31 8q-12 8 -31 38z" />
<glyph unicode="O" horiz-adv-x="689" d="M344 718q145 0 229 -106q83 -107 83 -256q0 -147 -83 -254q-84 -108 -229 -108q-146 0 -229 107q-84 107 -84 255q0 147 84 255q83 107 229 107zM344 70q111 0 165 85q53 85 53 201t-53 202q-54 84 -165 84q-112 0 -165 -84q-54 -86 -54 -202q0 -117 54 -201 q52 -85 165 -85z" />
<glyph unicode="P" horiz-adv-x="522" d="M146 636v-294h131q65 0 106 42q40 40 40 104q0 60 -36 104q-38 44 -114 44h-127zM146 266v-225q0 -47 -44 -47q-22 0 -32 13q-12 12 -12 34v623q0 48 47 48h175q105 0 168 -64t63 -160q0 -92 -65 -157q-67 -65 -163 -65h-137z" />
<glyph unicode="Q" horiz-adv-x="688" d="M613 2l-70 69q-38 -36 -88 -56q-51 -21 -111 -21q-146 0 -229 107q-84 107 -84 255q0 147 84 255q83 107 229 107q145 0 229 -106q83 -107 83 -256q0 -127 -62 -225l74 -73q17 -17 17 -35q0 -16 -10 -26q-11 -11 -28 -11q-12 0 -19 4q-8 4 -15 12zM486 127l-59 58 q-18 18 -18 33t11 28q10 12 28 12q17 0 33 -16l49 -48q15 35 24 77q8 45 8 85q0 116 -53 202q-54 84 -165 84q-112 0 -165 -84q-54 -86 -54 -202q0 -117 54 -201q52 -85 165 -85q46 0 80 15q35 14 62 42z" />
<glyph unicode="R" horiz-adv-x="522" d="M146 636v-253h121q69 0 101 32q31 31 31 99q0 51 -36 87q-38 35 -98 35h-119zM146 312v-271q0 -47 -44 -47q-22 0 -32 13q-12 12 -12 34v623q0 48 47 48h164q88 0 153 -53q65 -54 65 -139q0 -102 -54 -152q-55 -50 -140 -50l-38 -1l227 -249q17 -19 17 -40q0 -15 -11 -24 q-11 -10 -29 -10q-11 0 -22 6q-10 4 -18 14z" />
<glyph unicode="S" horiz-adv-x="483" d="M414 635q0 -17 -10 -27q-10 -12 -28 -12q-13 0 -51 23t-90 23q-50 0 -81 -28q-32 -29 -32 -73q0 -63 84 -98q25 -10 81 -33t86 -35q88 -52 88 -156q0 -95 -64 -159q-65 -66 -178 -66q-76 0 -136 25q-62 26 -62 61q0 19 10 32q9 13 27 13q49 -24 81 -38q39 -17 81 -17 q66 0 107 42q40 41 40 103q0 69 -84 103q-3 1 -167 68q-88 49 -88 149q0 69 58 126q59 57 152 57q68 0 122 -24q54 -26 54 -59z" />
<glyph unicode="T" horiz-adv-x="446" d="M178 41v589h-133q-43 0 -43 41q0 21 12 31q10 10 31 10h355q43 0 43 -41q0 -19 -11 -30q-13 -11 -32 -11h-133v-589q0 -47 -45 -47q-22 0 -32 13q-12 12 -12 34z" />
<glyph unicode="U" horiz-adv-x="671" d="M58 282v389q0 47 44 47q21 0 33 -12q11 -14 11 -35v-423q0 -84 52 -130q51 -48 137 -48q85 0 137 48q51 46 51 130v423q0 47 44 47q21 0 33 -12q11 -14 11 -35v-389q0 -162 -80 -225q-81 -63 -196 -63q-116 0 -196 64q-81 63 -81 224z" />
<glyph unicode="V" horiz-adv-x="559" d="M278 142l182 519q6 16 17 41q7 16 37 16q17 0 28 -11t11 -25q0 -16 -6 -34l-217 -606q-7 -22 -19 -36q-11 -12 -32 -12q-20 0 -32 12q-11 11 -20 36l-217 606q-6 18 -6 34q0 15 11 26q10 10 28 10q28 0 37 -17t17 -40z" />
<glyph unicode="W" horiz-adv-x="839" d="M206 108l167 575q6 19 17 27t28 8q19 0 29 -7q9 -7 16 -28l164 -575l95 569q8 41 49 41q18 0 29 -11t11 -29q0 -11 -1 -18q-2 -19 -4 -27l-109 -581q-4 -28 -18 -43q-13 -15 -45 -15q-27 0 -43 11q-15 10 -26 47l-146 522l-148 -522q-11 -35 -27 -46q-16 -12 -43 -12 q-31 0 -44 15q-15 16 -19 43l-108 581q-5 28 -5 45q0 16 11 29q11 11 29 11q40 0 48 -41z" />
<glyph unicode="X" horiz-adv-x="597" d="M298 313l-205 -291q-13 -18 -22 -22q-11 -6 -22 -6q-15 0 -28 11q-12 11 -12 26q0 11 3 17q1 4 11 19l223 315l-186 263q-14 20 -14 36t11 27q10 10 28 10q11 0 23 -5q9 -5 22 -23l168 -244l167 244q13 18 22 23q12 5 23 5q17 0 28 -10q11 -11 11 -27t-14 -36l-186 -263 l223 -315q9 -15 10 -17q4 -9 4 -19q0 -15 -12 -26q-13 -11 -28 -11q-12 0 -22 5q-8 4 -22 23z" />
<glyph unicode="Y" horiz-adv-x="502" d="M206 41v293l-191 311q-14 23 -14 37q0 36 40 36q12 0 24 -5q8 -5 20 -23l165 -269l166 269q8 14 20 22q10 6 24 6q17 0 29 -9q11 -11 11 -27q0 -14 -14 -37l-191 -311v-293q0 -47 -45 -47q-22 0 -32 13q-12 12 -12 34z" />
<glyph unicode="Z" horiz-adv-x="559" d="M41 87l367 549h-324q-43 0 -43 38q0 18 12 28q11 10 31 10h390q20 0 34 -9q12 -9 12 -22q0 -16 -4 -25q-6 -13 -18 -31l-368 -549h360q43 0 43 -38q0 -18 -12 -28q-11 -10 -31 -10h-414q-52 0 -52 40q0 11 3 22q2 6 14 25z" />
<glyph unicode="[" horiz-adv-x="242" d="M158 642v-648h34q16 0 27 -11t11 -27t-11 -27t-27 -11h-69q-25 0 -35 13q-12 13 -12 35v704q0 48 47 48h69q16 0 27 -11t11 -27t-11 -27t-27 -11h-34z" />
<glyph unicode="\" horiz-adv-x="409" d="M308 24l-274 613q-14 33 -14 44q0 16 11 27q10 10 28 10q14 0 25 -8q10 -9 16 -22l274 -613q14 -33 14 -44q0 -16 -11 -27q-10 -10 -28 -10q-15 0 -25 9q-10 7 -16 21z" />
<glyph unicode="]" horiz-adv-x="242" d="M83 -6v648h-34q-16 0 -27 11t-11 27t11 27t27 11h69q24 0 36 -13q11 -14 11 -35v-704q0 -48 -47 -48h-69q-16 0 -27 11t-11 27t11 27t27 11h34z" />
<glyph unicode="^" horiz-adv-x="603" d="M301 630l-158 -291q-29 -50 -50 -50q-16 0 -26 10q-11 9 -11 23q0 10 4 18q2 3 6 11l7 14l175 312q13 22 24 31q10 10 29 10t29 -10q12 -12 23 -31l175 -312q6 -11 13 -25q4 -8 4 -18q0 -15 -10 -24q-11 -9 -27 -9q-21 0 -50 50z" />
<glyph unicode="_" horiz-adv-x="502" d="M501 -125h-501q-29 0 -29 25q0 10 8 18q7 7 21 7h501q29 0 29 -25q0 -10 -8 -18q-7 -7 -21 -7z" />
<glyph unicode="`" d="M141 616l-115 47q-19 7 -27 17t-8 20q0 14 10 28q11 14 28 14q12 0 34 -9l115 -47q19 -7 27 -17t8 -20q0 -14 -10 -27q-11 -15 -28 -15q-11 0 -34 9z" />
<glyph unicode="a" horiz-adv-x="559" d="M270 70q74 0 110 59q36 58 36 137t-35 138q-36 58 -111 58t-111 -59t-36 -137t36 -137q35 -59 111 -59zM499 495v-458q0 -22 -13 -32q-14 -11 -28 -11q-15 0 -28 11q-13 10 -13 32v37q-59 -80 -147 -80q-108 0 -171 80q-64 79 -64 192q0 114 63 193q61 79 172 79 q43 0 79 -17q33 -17 66 -54l2 28q0 23 13 33q11 10 28 10q16 0 29 -10q12 -10 12 -33z" />
<glyph unicode="b" horiz-adv-x="559" d="M62 41v684q0 47 44 47q21 0 33 -12q11 -14 11 -35v-259q23 30 59 51q37 21 86 21q103 0 165 -80q62 -82 62 -192q0 -113 -61 -192q-62 -80 -166 -80q-106 0 -143 73l-2 -26q0 -47 -44 -47q-22 0 -32 13q-12 12 -12 34zM288 70q74 0 110 59q36 58 36 137t-35 138 q-36 58 -111 58t-111 -59t-36 -137t36 -137q35 -59 111 -59z" />
<glyph unicode="c" horiz-adv-x="446" d="M276 538q66 0 104 -19q39 -19 39 -48q0 -15 -10 -25q-11 -12 -26 -12t-46 14t-61 14q-77 0 -115 -59t-38 -137t38 -137t115 -59q34 0 66 15t40 15q14 0 25 -9q9 -11 9 -28q0 -27 -38 -48t-102 -21q-117 0 -178 79q-63 79 -63 193q0 113 62 193q61 79 179 79z" />
<glyph unicode="d" horiz-adv-x="559" d="M407 41v26q-40 -73 -144 -73q-105 0 -166 81q-62 80 -62 191q0 112 62 192t166 80q48 0 85 -20q37 -21 57 -52l2 259q0 47 44 47q21 0 33 -12q11 -14 11 -35v-684q0 -47 -44 -47q-22 0 -32 13q-12 12 -12 34zM270 462q-75 0 -111 -59t-36 -137t36 -137q35 -59 111 -59 q74 0 110 59q36 58 36 137t-35 138q-36 58 -111 58z" />
<glyph unicode="e" horiz-adv-x="523" d="M114 298h293q0 63 -36 114q-38 50 -105 50q-76 0 -114 -48q-38 -49 -38 -116zM446 232h-332q0 -70 42 -116t116 -46q58 0 99 22q14 9 41 25.5t40 24.5q13 0 23 -10q9 -11 9 -29q0 -33 -69 -71q-71 -38 -144 -38q-121 0 -183 78q-62 79 -62 194q0 114 66 193q64 79 174 79 q104 0 167 -78q62 -79 62 -181q0 -25 -10 -35q-11 -12 -39 -12z" />
<glyph unicode="f" horiz-adv-x="261" d="M174 456v-415q0 -47 -44 -47q-22 0 -32 13q-12 12 -12 34v415h-36q-44 0 -44 38t44 38h36v125q0 55 33 85t84 30h27q20 0 36 -10q15 -10 15 -28q0 -38 -49 -38h-22q-36 0 -36 -35v-129h55q45 0 45 -38t-45 -38h-55z" />
<glyph unicode="g" horiz-adv-x="559" d="M270 70q74 0 110 59q36 58 36 137t-35 138q-36 58 -111 58t-111 -59t-36 -137t36 -137q35 -59 111 -59zM495 495v-457q0 -117 -65 -185q-66 -69 -175 -69q-69 0 -138 32q-67 31 -67 65q0 15 9 29q9 12 28 12q14 0 66 -31t109 -31q77 0 111 49q34 47 34 115v46 q-24 -36 -57 -55q-36 -21 -80 -21q-108 0 -171 80q-64 79 -64 192q0 114 63 193q61 79 172 79q40 0 78 -20q37 -19 57 -47l2 24q0 22 14 33q13 10 33 10q16 0 29 -10q12 -10 12 -33z" />
<glyph unicode="h" horiz-adv-x="541" d="M393 41v290q0 65 -36 98q-37 33 -87 33t-87 -33t-37 -98v-290q0 -47 -44 -47q-22 0 -32 13q-12 12 -12 34v684q0 47 44 47q21 0 33 -12q11 -14 11 -35v-255l2 -2q29 37 66 53q39 17 82 17q74 0 129 -49q56 -50 56 -153v-295q0 -47 -44 -47q-22 0 -32 13q-12 12 -12 34z " />
<glyph unicode="i" d="M102 718q22 0 39 -15q15 -17 15 -39q0 -23 -15 -38q-16 -16 -39 -16t-38 16q-16 15 -16 38t16 39q15 15 38 15zM146 491v-450q0 -47 -44 -47q-22 0 -32 13q-12 12 -12 34v450q0 47 44 47q21 0 33 -12q11 -14 11 -35z" />
<glyph unicode="j" d="M102 718q22 0 39 -15q15 -17 15 -39q0 -23 -15 -38q-16 -16 -39 -16t-38 16q-16 15 -16 38t16 39q15 15 38 15zM146 491v-660q0 -47 -44 -47q-22 0 -32 13q-12 12 -12 34v660q0 47 44 47q21 0 33 -12q11 -14 11 -35z" />
<glyph unicode="k" horiz-adv-x="465" d="M58 41v684q0 47 44 47q21 0 33 -12q11 -14 11 -35v-375l193 161q15 13 27 20q13 7 23 7q16 0 27 -11q10 -10 10 -28q0 -12 -4 -19q-4 -8 -18 -19l-201 -158l233 -229q12 -12 17 -22q4 -8 4 -23q0 -14 -11 -25q-10 -10 -26 -10q-15 0 -25 5q-8 4 -26 22l-223 232v-212 q0 -47 -44 -47q-22 0 -32 13q-12 12 -12 34z" />
<glyph unicode="l" d="M146 725v-684q0 -47 -44 -47q-22 0 -32 13q-12 12 -12 34v684q0 47 44 47q21 0 33 -12q11 -14 11 -35z" />
<glyph unicode="m" horiz-adv-x="839" d="M374 41v298q0 57 -30 90t-84 33t-84 -33t-30 -90v-298q0 -47 -44 -47q-22 0 -32 13q-12 12 -12 34v450q0 47 44 47q21 0 33 -12q11 -14 11 -35v-16l2 -2q21 27 52 47q29 18 83 18q43 0 81 -21q36 -20 65 -69q32 46 70 68q37 22 93 22q74 0 129 -49q57 -49 57 -153v-295 q0 -47 -45 -47q-22 0 -32 13q-12 12 -12 34v298q0 57 -30 90t-84 33q-53 0 -83 -33t-30 -90v-298q0 -47 -44 -47q-22 0 -32 13q-12 12 -12 34z" />
<glyph unicode="n" horiz-adv-x="541" d="M58 41v450q0 47 44 47q21 0 33 -12q11 -14 11 -35v-21l2 -2q29 37 66 53q39 17 82 17q74 0 129 -49q56 -50 56 -153v-295q0 -47 -44 -47q-22 0 -32 13q-12 12 -12 34v290q0 65 -36 98q-37 33 -87 33t-87 -33t-37 -98v-290q0 -47 -44 -47q-22 0 -32 13q-12 12 -12 34z" />
<glyph unicode="o" horiz-adv-x="541" d="M270 70q74 0 110 59q36 58 36 137t-35 138q-36 58 -111 58t-111 -59t-36 -137t36 -137q35 -59 111 -59zM270 538q106 0 171 -80q63 -80 63 -192t-62 -192q-63 -80 -172 -80q-108 0 -171 80q-64 79 -64 192q0 114 63 193q61 79 172 79z" />
<glyph unicode="p" horiz-adv-x="559" d="M62 -169v660q0 47 44 47q21 0 33 -12q11 -14 11 -35v-26q40 73 145 73q103 0 165 -80q62 -82 62 -192q0 -113 -61 -192q-62 -80 -166 -80q-50 0 -86 21q-36 19 -57 51l-2 -235q0 -47 -44 -47q-22 0 -32 13q-12 12 -12 34zM288 70q74 0 110 59q36 58 36 137t-35 138 q-36 58 -111 58t-111 -59t-36 -137t36 -137q35 -59 111 -59z" />
<glyph unicode="q" horiz-adv-x="559" d="M263 538q105 0 142 -73l2 26q0 47 44 47q21 0 33 -12q11 -14 11 -35v-660q0 -47 -44 -47q-22 0 -32 13q-12 12 -12 34v235q-24 -30 -59 -50q-37 -22 -85 -22q-105 0 -166 81q-62 80 -62 191q0 112 62 192t166 80zM270 462q-75 0 -111 -59t-36 -137t36 -137 q35 -59 111 -59q74 0 110 59q36 58 36 137t-35 138q-36 58 -111 58z" />
<glyph unicode="r" horiz-adv-x="317" d="M58 41v450q0 47 44 47q21 0 33 -12q11 -14 11 -35v-45q18 34 53 63t70 29q23 0 36 -12q13 -13 13 -33q0 -38 -51 -47t-86 -45q-35 -38 -35 -107v-253q0 -47 -44 -47q-22 0 -32 13q-12 12 -12 34z" />
<glyph unicode="s" horiz-adv-x="446" d="M227 538q61 0 120 -27q58 -28 58 -67q0 -16 -10 -26t-30 -10q-2 0 -50 27t-88 27t-66 -17q-27 -17 -27 -50q0 -36 101 -80q107 -46 143 -67q41 -26 41 -90q0 -78 -57 -121q-58 -43 -138 -43q-82 0 -141 33q-59 32 -59 68q0 16 11 29q11 11 25 11q13 0 63 -32 q49 -33 104 -33q48 0 76 22q28 21 28 50q0 42 -71 75q-40 18 -140 65q-74 44 -74 106q0 70 54 110q53 40 127 40z" />
<glyph unicode="t" horiz-adv-x="262" d="M86 532v115q0 47 44 47q21 0 33 -12q11 -14 11 -35v-115h36q45 0 45 -38t-45 -38h-36v-415q0 -47 -44 -47q-22 0 -32 13q-12 12 -12 34v415h-36q-44 0 -44 38t44 38h36z" />
<glyph unicode="u" horiz-adv-x="541" d="M58 206v285q0 47 44 47q21 0 33 -12q11 -14 11 -35v-282q0 -139 124 -139q60 0 92 36q31 34 31 103v282q0 47 44 47q21 0 33 -12q11 -14 11 -35v-285q0 -109 -60 -160q-61 -52 -151 -52q-92 0 -152 51t-60 161z" />
<glyph unicode="v" horiz-adv-x="428" d="M167 32l-153 429q-9 24 -9 36q0 19 12 30q13 11 28 11q19 0 30 -8q10 -8 16 -26l121 -368l124 368q6 18 16 26q11 8 30 8q18 0 29 -10q11 -11 11 -31q0 -12 -9 -36l-153 -429q-7 -19 -14 -27q-8 -11 -33 -11q-20 0 -29 9q-9 6 -17 29z" />
<glyph unicode="w" horiz-adv-x="745" d="M155 40l-146 425q-7 21 -7 34q0 20 13 30q12 9 29 9t29 -9q13 -9 20 -36l113 -363l114 350q11 34 20 46t32 12q22 0 32 -12q9 -12 20 -46l111 -350l115 363q7 25 20 36q12 9 29 9q21 0 31 -12q11 -13 11 -27q0 -2 -2 -14q-1 -6 -5 -20l-146 -425q-16 -46 -51 -46 q-20 0 -30 10q-13 11 -20 36l-114 359l-116 -359q-16 -46 -51 -46q-19 0 -30 11q-13 11 -21 35z" />
<glyph unicode="x" horiz-adv-x="466" d="M24 76l157 206l-138 181q-15 19 -15 35t11 29q11 11 26 11q12 0 22 -5q10 -8 16 -15l129 -172l130 172q10 12 17 16t21 4q16 0 27 -11q10 -11 10 -29q0 -16 -15 -35l-138 -181l157 -206q12 -17 14 -23q4 -9 4 -19q0 -17 -11 -28q-12 -12 -29 -12q-25 0 -39 20l-148 204 l-147 -204q-14 -20 -39 -20q-18 0 -29 11t-11 29q0 10 4 18q3 8 14 24z" />
<glyph unicode="y" horiz-adv-x="446" d="M179 19l-150 433l-10 32q-2 10 -2 17q0 17 12 27q11 10 28 10q16 0 28 -9q12 -10 16 -24l122 -365l123 365q10 33 42 33q15 0 28 -10q12 -10 12 -27q0 -6 -2 -16q0 -2 -1.5 -6.5l-4 -12t-4.5 -14.5l-223 -635q-12 -33 -43 -33q-14 0 -27 11q-13 10 -13 26q0 10 5 25l8 24 z" />
<glyph unicode="z" horiz-adv-x="446" d="M141 76h240q44 0 44 -38t-44 -38h-318q-23 0 -33 9t-10 22q0 14 4 22q7 14 14 23l255 380h-219q-44 0 -44 38t44 38h297q23 0 33 -9t10 -22q0 -14 -4 -22q-7 -14 -14 -23l-258 -378z" />
<glyph unicode="{" horiz-adv-x="242" d="M76 26v122q0 70 -7 95q-8 27 -35 36q-26 7 -39 16q-10 7 -10 23q0 17 10 24q9 7 38 15t36 37q7 27 7 94v122q0 53 25 81q26 27 77 27h38q41 0 41 -30t-41 -30h-14q-20 0 -32 -12q-12 -14 -12 -36v-158q0 -72 -27 -101q-26 -27 -64 -32q39 -6 65 -34q26 -29 26 -101v-158 q0 -22 12 -35t32 -13h14q41 0 41 -30t-41 -30h-38q-102 0 -102 108z" />
<glyph unicode="|" horiz-adv-x="223" d="M70 37v692q0 43 41 43q20 0 31 -11q10 -11 10 -32v-692q0 -43 -41 -43q-19 0 -30 12q-11 11 -11 31z" />
<glyph unicode="}" horiz-adv-x="242" d="M165 610v-122q0 -70 7 -95q8 -28 36 -35q28 -9 38 -16q11 -7 11 -24q0 -16 -10 -23q-11 -8 -38 -15q-28 -7 -36 -37q-8 -32 -8 -95v-122q0 -54 -25 -80q-25 -28 -77 -28h-38q-40 0 -40 30t40 30h14q20 0 32 13q12 12 12 35v158q0 72 27 101q26 27 64 32q-38 6 -64 35 q-27 28 -27 100v158q0 22 -12 35t-32 13h-14q-40 0 -40 30t40 30h38q102 0 102 -108z" />
<glyph unicode="~" horiz-adv-x="603" d="M194 325q30 0 56 -8q23 -7 59 -24q41 -20 57 -26q21 -10 38 -10q20 0 48 34t50 34q14 0 25 -9q10 -9 10 -20q0 -43 -41 -79q-40 -36 -89 -36q-30 0 -56 8q-17 5 -58 25q-26 12 -57 26q-22 9 -39 9q-20 0 -48 -34t-50 -34q-15 0 -25 9t-10 20q0 43 41 79t89 36z" />
<glyph unicode="&#xa1;" horiz-adv-x="298" d="M148 436q-21 0 -36 15t-15 36t15 36t36 15t36 -15t15 -36t-15 -36t-36 -15zM192 294v-433q0 -47 -44 -47q-22 0 -32 13q-12 12 -12 34v433q0 47 44 47q21 0 33 -12q11 -14 11 -35z" />
<glyph unicode="&#xa2;" horiz-adv-x="446" d="M227 79v375q-53 -20 -78 -72q-26 -54 -26 -116t26 -116q26 -53 78 -71zM227 -60v59q-93 16 -142 91q-50 76 -50 176q0 102 49 176q50 76 143 92v58q0 21 21 21q22 0 22 -21v-54q70 0 109 -19q40 -19 40 -48q0 -15 -10 -25q-11 -12 -26 -12q-11 0 -44 14t-69 14v-392 q40 0 71 15t41 15q14 0 25 -9q9 -11 9 -28q0 -28 -38 -48q-39 -21 -108 -21v-54q0 -21 -22 -21q-21 0 -21 21z" />
<glyph unicode="&#xa3;" horiz-adv-x="596" d="M242 398h130q43 0 43 -41q0 -19 -11 -30q-13 -11 -32 -11h-109q4 -19 5 -33q2 -26 2 -33q0 -38 -24 -85q-23 -49 -63 -83h338q43 0 43 -41q0 -19 -11 -30q-13 -11 -32 -11h-401q-26 0 -39 9q-14 8 -14 33q53 65 80 103q34 47 34 106q0 25 -1 35q-2 14 -6 30h-101 q-43 0 -43 41q0 21 12 31q10 10 31 10h77q-20 37 -35 74q-14 36 -14 69q0 78 64 127q65 50 153 50q87 0 158 -58q71 -59 71 -119q0 -43 -42 -43q-23 0 -60 69t-126 69q-52 0 -92 -26q-38 -27 -38 -75q0 -40 20 -77q19 -36 33 -60z" />
<glyph unicode="&#xa4;" horiz-adv-x="539" d="M269 184q67 0 117 48q49 48 49 124q0 75 -48 124q-50 48 -118 48q-69 0 -118 -48t-49 -124q0 -75 49 -123q48 -49 118 -49zM35 172l34 35q-24 27 -36 66q-13 36 -13 83q0 44 12 83q12 38 37 66l-34 35q-14 14 -14 28q0 16 12 26q10 10 22 10q10 0 21 -11l42 -43 q28 27 68 40q42 14 83 14q93 0 150 -54l42 43q11 11 21 11q12 0 23 -10q11 -11 11 -26q0 -14 -14 -28l-34 -35q23 -26 37 -65q12 -39 12 -84q0 -44 -12 -82q-12 -39 -37 -67l34 -35q14 -14 14 -28t-11 -25q-13 -11 -23 -11t-21 11l-42 43q-29 -27 -67 -40q-42 -14 -83 -14 q-94 0 -151 54l-42 -43q-11 -11 -21 -11q-11 0 -22 11q-12 11 -12 25t14 28z" />
<glyph unicode="&#xa5;" horiz-adv-x="539" d="M224 261v71h-137q-41 0 -41 33t41 33h96l-160 247q-15 23 -15 40q0 13 11 24q11 9 24 9q27 0 46 -28l180 -269l179 269q10 15 22 22q10 6 24 6q12 0 24 -9q11 -11 11 -24q0 -17 -15 -40l-160 -247h96q41 0 41 -33t-41 -33h-137v-71h137q41 0 41 -33t-41 -33h-137v-154 q0 -47 -44 -47q-21 0 -33 13q-12 12 -12 34v154h-137q-41 0 -41 33t41 33h137z" />
<glyph unicode="&#xa6;" horiz-adv-x="223" d="M70 525v204q0 43 41 43t41 -43v-204q0 -43 -41 -43q-17 0 -29 10t-12 33zM70 37v204q0 43 41 43t41 -43v-204q0 -43 -41 -43q-17 0 -29 10t-12 33z" />
<glyph unicode="&#xa7;" horiz-adv-x="559" d="M240 153l115 -56q50 37 69 67q17 29 17 59q0 38 -16 63t-73 51l-126 58q-52 -23 -81 -48q-29 -27 -29 -70q0 -37 30 -64q28 -28 94 -60zM297 718q86 0 146 -48q59 -48 59 -103q0 -20 -10 -33t-30 -13q-23 0 -57 61q-35 60 -114 60q-52 0 -84 -22q-34 -22 -34 -62 q0 -51 127 -111q130 -63 178 -95q51 -34 51 -126q0 -50 -31 -96q-33 -48 -78 -73q65 -44 65 -118q0 -71 -63 -113q-64 -42 -147 -42q-103 0 -165 50t-62 94q0 50 44 50q23 0 61 -59t120 -59q58 0 92 23q32 23 32 57q0 52 -133 113q-134 61 -185 94q-51 31 -51 123 q0 61 32 102q32 39 90 69q-65 48 -65 113q0 78 58 121t154 43z" />
<glyph unicode="&#xa8;" d="M195 712q23 0 39 -15q15 -17 15 -39q0 -23 -15 -38q-16 -16 -39 -16t-38 16q-16 15 -16 38t16 39q15 15 38 15zM9 712q23 0 39 -15q15 -17 15 -39q0 -23 -15 -38q-16 -16 -39 -16t-38 16q-16 15 -16 38t16 39q15 15 38 15z" />
<glyph unicode="&#xa9;" horiz-adv-x="804" d="M681 356q0 117 -83 202q-82 84 -197 84q-113 0 -198 -83q-83 -85 -83 -203q0 -117 83 -202q84 -84 198 -84q115 0 198 84q82 82 82 202zM38 356q0 150 106 256t257 106q150 0 256 -106q107 -107 107 -256t-107 -256q-106 -106 -256 -106q-151 0 -257 106t-106 256z M403 203q62 0 96 46t51 46q12 0 23 -6q9 -6 9 -22q0 -36 -49 -82q-49 -48 -130 -48q-94 0 -154 63q-59 64 -59 158q0 98 58 159q59 62 155 62q81 0 131 -45q48 -45 48 -82q0 -28 -33 -28q-21 0 -53 45q-33 44 -93 44q-62 0 -96 -43t-34 -112q0 -64 36 -109q36 -46 94 -46z " />
<glyph unicode="&#xaa;" horiz-adv-x="363" d="M268 555q0 44 -23 73q-23 30 -61 30t-60 -30q-23 -31 -23 -73q0 -43 23 -74q22 -30 60 -30t61 30q23 29 23 74zM333 692v-275q0 -13 -9 -19q-10 -7 -24 -7q-33 0 -33 26v16q-15 -19 -37 -31q-20 -11 -49 -11q-69 0 -110 47q-42 46 -42 117t42 117q40 46 110 46 q30 0 49 -10q20 -11 35 -32l2 16q0 13 10 20q9 6 23 6q33 0 33 -26z" />
<glyph unicode="&#xab;" horiz-adv-x="409" d="M38 268l99 178q15 26 34 26q16 0 28 -9t12 -26q0 -11 -11 -31l-83 -138l83 -138q11 -20 11 -31q0 -16 -12 -25q-13 -10 -28 -10q-19 0 -34 26zM196 268l100 178q15 26 34 26q16 0 28 -9t12 -26q0 -11 -11 -31l-83 -138l83 -138q11 -20 11 -31q0 -16 -12 -25 q-13 -10 -28 -10q-19 0 -34 26z" />
<glyph unicode="&#xac;" horiz-adv-x="603" d="M472 316h-382q-43 0 -43 41q0 21 12 31q10 10 31 10h423q20 0 31 -11q10 -11 10 -32v-204q0 -43 -41 -43q-19 0 -30 12q-11 11 -11 31v165z" />
<glyph unicode="&#xae;" horiz-adv-x="804" d="M681 356q0 117 -83 202q-82 84 -197 84q-113 0 -198 -83q-83 -85 -83 -203q0 -117 83 -202q84 -84 198 -84q115 0 198 84q82 82 82 202zM38 356q0 150 106 256t257 106q150 0 256 -106q107 -107 107 -256t-107 -256q-106 -106 -256 -106q-151 0 -257 106t-106 256z M318 381h76q62 0 80 15t18 48q0 34 -24 44t-68 10h-82v-117zM382 321h-64v-143q0 -32 -33 -32t-33 32v359q0 21 23 21h132q78 0 115 -26q36 -27 36 -93q0 -55 -28 -82t-75 -33l89 -136l6 -12t4 -13q0 -10 -12 -13q-11 -4 -25 -4q-27 0 -40 22z" />
<glyph unicode="&#xaf;" d="M1 689h202q43 0 43 -41t-43 -41h-202q-43 0 -43 41t43 41z" />
<glyph unicode="&#xb0;" horiz-adv-x="402" d="M200 486q36 0 64 26q26 26 26 63t-26 63q-28 26 -64 26q-37 0 -63 -26t-26 -63t26 -63t63 -26zM200 718q60 0 102 -42t42 -101t-42 -101t-102 -42q-59 0 -101 42t-42 101t42 101t101 42z" />
<glyph unicode="&#xb1;" horiz-adv-x="603" d="M511 0h-421q-43 0 -43 41q0 20 12 31q10 10 31 10h421q43 0 43 -41q0 -19 -11 -30q-13 -11 -32 -11zM260 353v110q0 43 41 43q20 0 31 -11q10 -11 10 -32v-110h169q43 0 43 -41q0 -19 -11 -30q-13 -11 -32 -11h-169v-110q0 -43 -41 -43q-19 0 -30 12q-11 11 -11 31v110 h-170q-43 0 -43 41q0 20 12 31q10 10 31 10h170z" />
<glyph unicode="&#xb2;" horiz-adv-x="320" d="M176 362h150q8 0 14 -6q7 -7 7 -15t-7 -15q-4 -6 -14 -6h-191q-15 0 -21 6q-6 8 -6 14t11 22l136 181q12 15 21 34q8 19 8 35q0 26 -18 44q-16 17 -46 17q-34 0 -52 -25q-19 -25 -19 -63q0 -13 -6 -17q-5 -5 -15 -5q-24 0 -24 29q0 52 33 88q35 35 92 35q48 0 77 -29 q30 -29 30 -68q0 -25 -7 -46q-8 -19 -21 -35z" />
<glyph unicode="&#xb3;" horiz-adv-x="320" d="M217 317q-54 0 -84 30t-30 60q0 14 5 20q6 7 15 7q18 0 27 -24q8 -24 23 -38q17 -14 43 -14q31 0 54 21q21 21 21 52q0 41 -19 57q-17 16 -50 16q-30 0 -30 21q0 16 27 22q28 5 41 21q14 14 14 41q0 28 -15 46q-18 18 -42 18q-27 0 -40 -15q-13 -16 -16 -42q0 -12 -4 -17 q-8 -6 -19 -6q-9 0 -16 7q-6 6 -6 16q0 40 28 70q26 29 75 29q46 0 75 -29q28 -31 28 -72q0 -26 -12 -47q-10 -21 -34 -36q33 -11 50 -36q17 -26 17 -60q0 -54 -35 -86q-37 -32 -91 -32z" />
<glyph unicode="&#xb4;" d="M178 663l-115 -47q-22 -9 -34 -9q-17 0 -28 14q-10 13 -10 28q0 9 8 20q8 10 27 17l115 47q22 9 34 9q18 0 28 -13t10 -29q0 -11 -7 -19q-7 -10 -28 -18z" />
<glyph unicode="&#xb6;" horiz-adv-x="603" d="M242 -173v517q-96 0 -154 52q-60 51 -60 133q0 84 65 134q64 49 191 49h191q24 0 36 -13q11 -14 11 -35v-837q0 -43 -41 -43q-19 0 -30 12q-11 11 -11 31v819h-115v-819q0 -43 -41 -43q-20 0 -30 12q-12 10 -12 31z" />
<glyph unicode="&#xb7;" horiz-adv-x="252" d="M125 357q23 0 39 -15q15 -16 15 -39t-15 -38q-16 -16 -39 -16t-38 16q-16 15 -16 38t16 39q15 15 38 15z" />
<glyph unicode="&#xb8;" d="M183 0l-29 -42q15 3 21 3q27 0 48 -16t21 -39q0 -32 -19.5 -53.5t-46.5 -28t-54 -5t-44 10.5q-15 7 -19 20t2.5 22.5t17.5 9.5q3 0 26 -4t26 -4q35 0 35 27q0 8 -1 10.5t-10.5 5t-32.5 2.5q-30 0 -30 19q0 11 36 62h53z" />
<glyph unicode="&#xb9;" horiz-adv-x="259" d="M138 349v327h-51q-9 0 -14 6q-6 6 -6 15t6 15t14 6h85q9 0 12 -3q3 -1 3 -11v-355q0 -26 -25 -26q-11 0 -17 7q-7 6 -7 19z" />
<glyph unicode="&#xba;" horiz-adv-x="352" d="M175 451q36 0 58 31q23 31 23 73q0 41 -23 73q-23 30 -58 30t-57 -30q-23 -32 -23 -73q0 -42 23 -73q22 -31 57 -31zM175 718q70 0 112 -46q41 -47 41 -117t-41 -117q-42 -47 -112 -47q-69 0 -110 47q-42 46 -42 117t42 117q40 46 110 46z" />
<glyph unicode="&#xbb;" horiz-adv-x="409" d="M207 130l84 138l-84 138q-11 20 -11 31q0 16 13 26q12 9 27 9q20 0 35 -26l99 -178l-99 -178q-15 -26 -35 -26q-16 0 -28 9t-12 26q0 11 11 31zM49 130l83 138l-83 138q-11 20 -11 31q0 16 13 26q12 9 27 9q19 0 34 -26l99 -178l-99 -178q-15 -26 -34 -26q-16 0 -28 9 t-12 26q0 11 11 31z" />
<glyph unicode="&#xbc;" horiz-adv-x="662" d="M175 58l194 638q9 30 25 30q39 0 15 -72l-193 -638q-9 -30 -27 -30q-19 0 -22 14.5t8 57.5zM390 142h117v201zM507 101h-157q-12 0 -15 4q-5 4 -5 13q0 4 3 12q5 10 9 16l138 227q8 13 16 17q10 5 22 5q18 0 27 -9q10 -10 10 -31v-213h25q9 0 15 -6t6 -15q0 -8 -6 -14 t-15 -6h-25v-78q0 -26 -24 -26q-12 0 -18 7q-6 6 -6 19v78zM122 350v327h-51q-9 0 -14 6q-6 6 -6 15t6 15t14 6h85q9 0 12 -3q3 -2 3 -11v-355q0 -26 -25 -26q-11 0 -17 7q-7 6 -7 19z" />
<glyph unicode="&#xbd;" horiz-adv-x="687" d="M172 58l194 638q9 30 25 30q39 0 15 -72l-193 -638q-9 -30 -27 -30q-19 0 -22 14.5t8 57.5zM119 350v327h-51q-10 0 -14 6q-6 6 -6 15t6 15t14 6h85q9 0 12 -3q3 -2 3 -11v-355q0 -26 -25 -26q-11 0 -17 7q-7 6 -7 19zM457 42h149q8 0 14 -6q7 -7 7 -15t-7 -15 q-4 -6 -14 -6h-190q-15 0 -21 6q-6 8 -6 14t11 22l135 181q12 15 21 34q8 19 8 35q0 26 -18 44q-16 17 -45 17q-34 0 -52 -25q-19 -25 -19 -63q0 -13 -6 -17q-5 -5 -15 -5q-24 0 -24 29q0 52 33 88q35 35 92 35q47 0 76 -29q30 -28 30 -68q0 -25 -7 -46q-8 -19 -21 -35z" />
<glyph unicode="&#xbe;" horiz-adv-x="687" d="M258 61l193 638q9 30 25 30q39 0 15 -72l-192 -638q-9 -30 -27 -30q-19 0 -22.5 14.5t8.5 57.5zM177 318q-54 0 -84 30t-30 60q0 14 5 20q6 7 15 7q18 0 27 -24q8 -24 23 -38q17 -14 43 -14q31 0 54 21q21 21 21 52q0 41 -19 57q-17 16 -50 16q-30 0 -30 21q0 16 27 22 q26 4 41 21q14 14 14 41q0 28 -15 46q-18 18 -42 18q-27 0 -40 -15q-13 -16 -16 -42q0 -12 -4 -17q-8 -6 -19 -6q-9 0 -16 7q-6 6 -6 16q0 40 28 70q26 29 75 29q46 0 75 -29q28 -31 28 -72q0 -26 -12 -47q-10 -21 -34 -36q33 -11 50 -36q17 -26 17 -60q0 -54 -35 -86 q-37 -32 -91 -32zM455 145h117v201zM572 104h-157q-12 0 -15 4q-5 4 -5 13q0 5 3 12q5 10 9 16l138 227q8 13 16 17q10 5 22 5q18 0 27 -9q10 -10 10 -31v-213h25q9 0 15 -6t6 -15q0 -8 -6 -14t-15 -6h-25v-78q0 -26 -24 -26q-12 0 -18 7q-6 6 -6 19v78z" />
<glyph unicode="&#xbf;" horiz-adv-x="446" d="M230 436q-21 0 -36 15t-15 36t15 36t36 15q22 0 37 -15t15 -36t-15 -36t-37 -15zM186 194v100q0 47 44 47q22 0 34 -12q11 -14 11 -35v-113q0 -36 -10 -46t-62 -21q-51 -11 -71 -41q-20 -32 -20 -67q0 -50 33 -80t83 -30q44 0 73 18q28 18 39 50q11 33 21 40q8 7 23 7 q18 0 31 -12q12 -14 12 -34q0 -64 -61 -107q-62 -44 -135 -44q-91 0 -152 52t-61 132t45 130q43 50 123 66z" />
<glyph unicode="&#xc0;" horiz-adv-x="615" d="M347 770l-116 46q-19 9 -27 17q-8 11 -8 21q0 14 10 28q11 14 28 14q12 0 35 -9l115 -47q21 -10 27 -17q8 -11 8 -20q0 -14 -10 -28q-11 -14 -28 -14q-11 0 -34 9zM445 231l-137 385l-140 -385h277zM141 155l-46 -128q-12 -33 -43 -33q-19 0 -30 10q-12 10 -12 27 q0 7 6 24q3 11 6 20l221 589q10 26 25 41q13 13 39 13q23 0 39 -14q14 -13 24 -40l221 -589q1 -3 2 -7t3 -9t3 -8q4 -12 4 -20q0 -17 -12 -27q-11 -10 -30 -10q-17 0 -27 9q-10 7 -16 24l-46 128h-331z" />
<glyph unicode="&#xc1;" horiz-adv-x="615" d="M384 816l-115 -46q-22 -9 -35 -9q-17 0 -28 13q-10 14 -10 29q0 7 8 20q6 7 27 17l116 47q22 9 34 9q18 0 28 -14q10 -11 10 -28q0 -12 -7 -20t-28 -18zM445 231l-137 385l-140 -385h277zM141 155l-46 -128q-12 -33 -43 -33q-19 0 -30 10q-12 10 -12 27q0 7 6 24 q3 11 6 20l221 589q10 26 25 41q13 13 39 13q23 0 39 -14q14 -13 24 -40l221 -589q1 -3 2 -7t3 -9t3 -8q4 -12 4 -20q0 -17 -12 -27q-11 -10 -30 -10q-17 0 -27 9q-10 7 -16 24l-46 128h-331z" />
<glyph unicode="&#xc2;" horiz-adv-x="615" d="M178 833l130 56l129 -56q23 -9 23 -35q0 -16 -9 -27q-12 -10 -27 -10q-10 0 -22 5l-94 37l-95 -37q-6 -2 -10 -3q-10 -2 -12 -2q-14 0 -26 10q-10 10 -10 27q0 26 23 35zM445 231l-137 385l-140 -385h277zM141 155l-46 -128q-12 -33 -43 -33q-19 0 -30 10q-12 10 -12 27 q0 7 6 24q3 11 6 20l221 589q10 26 25 41q13 13 39 13q23 0 39 -14q14 -13 24 -40l221 -589q1 -3 2 -7t3 -9t3 -8q4 -12 4 -20q0 -17 -12 -27q-11 -10 -30 -10q-17 0 -27 9q-10 7 -16 24l-46 128h-331z" />
<glyph unicode="&#xc3;" horiz-adv-x="615" d="M252 872q26 0 60 -10q28 -10 50 -10q18 0 33 10q17 10 29 10t23 -12q10 -10 10 -27q0 -23 -26 -43q-24 -20 -67 -20q-30 0 -59 10q-34 10 -51 10t-34 -10q-15 -10 -29 -10q-13 0 -22 12q-11 11 -11 27q0 24 26 44q25 19 68 19zM445 231l-137 385l-140 -385h277zM141 155 l-46 -128q-12 -33 -43 -33q-19 0 -30 10q-12 10 -12 27q0 7 6 24q3 11 6 20l221 589q10 26 25 41q13 13 39 13q23 0 39 -14q14 -13 24 -40l221 -589q1 -3 2 -7t3 -9t3 -8q4 -12 4 -20q0 -17 -12 -27q-11 -10 -30 -10q-17 0 -27 9q-10 7 -16 24l-46 128h-331z" />
<glyph unicode="&#xc4;" horiz-adv-x="615" d="M401 866q21 0 39 -15q15 -17 15 -39t-15 -39q-16 -15 -39 -15t-38 15q-16 16 -16 39t16 39q17 15 38 15zM214 866q20 0 40 -15q15 -17 15 -39t-15 -39q-18 -15 -40 -15q-23 0 -38 15q-16 16 -16 39t16 39q17 15 38 15zM445 231l-137 385l-140 -385h277zM141 155l-46 -128 q-12 -33 -43 -33q-19 0 -30 10q-12 10 -12 27q0 7 6 24q3 11 6 20l221 589q10 26 25 41q13 13 39 13q23 0 39 -14q14 -13 24 -40l221 -589q1 -3 2 -7t3 -9t3 -8q4 -12 4 -20q0 -17 -12 -27q-11 -10 -30 -10q-17 0 -27 9q-10 7 -16 24l-46 128h-331z" />
<glyph unicode="&#xc5;" horiz-adv-x="615" d="M308 786q19 0 33 14q13 13 13 32t-13 33q-12 12 -33 12q-20 0 -32 -12q-14 -16 -14 -33q0 -18 14 -32t32 -14zM308 926q39 0 67 -28q27 -28 27 -66q0 -39 -27 -66q-28 -28 -67 -28t-67 28q-28 27 -28 66q0 38 28 66t67 28zM445 231l-137 385l-140 -385h277zM141 155 l-46 -128q-12 -33 -43 -33q-19 0 -30 10q-12 10 -12 27q0 7 6 24q3 11 6 20l221 589q10 26 25 41q13 13 39 13q23 0 39 -14q14 -13 24 -40l221 -589q1 -3 2 -7t3 -9t3 -8q4 -12 4 -20q0 -17 -12 -27q-11 -10 -30 -10q-17 0 -27 9q-10 7 -16 24l-46 128h-331z" />
<glyph unicode="&#xc6;" horiz-adv-x="763" d="M374 231v379l-194 -379h194zM462 315v-233h212q43 0 43 -41q0 -19 -11 -30q-13 -11 -32 -11h-253q-25 0 -35 13q-12 13 -12 35v107h-232l-68 -133q-7 -16 -18 -22q-10 -6 -24 -6q-19 0 -29 10q-12 9 -12 22q0 7 2 17q1 6 11 24l312 607q13 24 24 32q10 6 37 6h287 q43 0 43 -41q0 -19 -11 -30q-13 -11 -32 -11h-202v-233h193q43 0 43 -41q0 -19 -11 -30q-13 -11 -32 -11h-193z" />
<glyph unicode="&#xc7;" horiz-adv-x="596" d="M368 -5l-25 -37q15 3 21 3q30 0 50 -17q19 -18 19 -38q0 -44 -29 -65q-30 -21 -82 -21q-34 0 -53 10q-21 10 -21 25q0 12 7 19q5 8 15 8q8 0 25 -4q19 -4 27 -4q35 0 35 27q0 15 -12 17q-8 1 -32 1q-13 0 -21 5q-9 4 -9 14q0 11 10 25l23 32q-126 9 -202 106 q-83 107 -83 255q0 150 84 256q82 106 234 106q87 0 147 -36q59 -36 59 -68q0 -20 -9 -30q-10 -12 -27 -12q-12 0 -59 35t-111 35q-112 0 -167 -85q-57 -85 -57 -201q0 -114 56 -200t163 -86q52 0 98 21q62 28 93 43q35 0 35 -41q0 -35 -68 -67q-61 -28 -134 -31z" />
<glyph unicode="&#xc8;" horiz-adv-x="446" d="M261 770l-115 46q-16 7 -28 17q-8 11 -8 21q0 14 11 28q9 14 27 14q11 0 35 -9l115 -47q20 -9 27 -17q9 -10 9 -20q0 -14 -11 -28t-28 -14q-11 0 -34 9zM146 315v-233h213q43 0 43 -41q0 -19 -11 -30q-13 -11 -32 -11h-254q-25 0 -35 13q-12 14 -12 35v616q0 48 47 48 h254q43 0 43 -41q0 -19 -11 -30q-13 -11 -32 -11h-213v-233h194q43 0 43 -41q0 -19 -11 -30q-13 -11 -32 -11h-194z" />
<glyph unicode="&#xc9;" horiz-adv-x="446" d="M298 816l-115 -46q-24 -9 -35 -9q-17 0 -27 13q-11 14 -11 29q0 7 8 20q9 9 28 17l115 47q22 9 34 9q18 0 28 -14q11 -11 11 -28q0 -12 -7 -20q-10 -10 -29 -18zM146 315v-233h213q43 0 43 -41q0 -19 -11 -30q-13 -11 -32 -11h-254q-25 0 -35 13q-12 14 -12 35v616 q0 48 47 48h254q43 0 43 -41q0 -19 -11 -30q-13 -11 -32 -11h-213v-233h194q43 0 43 -41q0 -19 -11 -30q-13 -11 -32 -11h-194z" />
<glyph unicode="&#xca;" horiz-adv-x="446" d="M92 833l130 56l130 -56q23 -10 23 -35q0 -17 -10 -27q-12 -10 -27 -10q-10 0 -22 5l-94 37l-95 -37q-3 -2 -9 -3q-12 -2 -13 -2q-15 0 -25 10q-11 10 -11 27q0 25 23 35zM146 315v-233h213q43 0 43 -41q0 -19 -11 -30q-13 -11 -32 -11h-254q-25 0 -35 13q-12 14 -12 35 v616q0 48 47 48h254q43 0 43 -41q0 -19 -11 -30q-13 -11 -32 -11h-213v-233h194q43 0 43 -41q0 -19 -11 -30q-13 -11 -32 -11h-194z" />
<glyph unicode="&#xcb;" horiz-adv-x="446" d="M315 866q20 0 40 -15q14 -17 14 -39t-14 -39q-18 -15 -40 -15q-21 0 -38 15q-16 18 -16 39t16 39q18 15 38 15zM128 866q21 0 39 -15q16 -18 16 -39t-16 -39q-17 -15 -39 -15t-38 15q-16 18 -16 39t16 39q18 15 38 15zM146 315v-233h213q43 0 43 -41q0 -19 -11 -30 q-13 -11 -32 -11h-254q-25 0 -35 13q-12 14 -12 35v616q0 48 47 48h254q43 0 43 -41q0 -19 -11 -30q-13 -11 -32 -11h-213v-233h194q43 0 43 -41q0 -19 -11 -30q-13 -11 -32 -11h-194z" />
<glyph unicode="&#xcc;" d="M61 770l-115 46q-19 9 -27 17q-8 11 -8 21q0 14 10 28q11 14 28 14q11 0 34 -9l115 -47q22 -9 28 -17q8 -11 8 -20q0 -14 -10 -28q-11 -14 -29 -14q-11 0 -34 9zM146 671v-630q0 -47 -44 -47q-22 0 -32 13q-12 12 -12 34v630q0 47 44 47q21 0 33 -12q11 -14 11 -35z" />
<glyph unicode="&#xcd;" d="M246 816l-115 -46q-23 -9 -34 -9q-17 0 -28 13q-10 14 -10 29q0 7 8 20q6 7 27 17l115 47q23 9 34 9q19 0 29 -14q10 -11 10 -28q0 -12 -7 -20q-7 -9 -29 -18zM146 671v-630q0 -47 -44 -47q-22 0 -32 13q-12 12 -12 34v630q0 47 44 47q21 0 33 -12q11 -14 11 -35z" />
<glyph unicode="&#xce;" d="M-25 833l130 56l129 -56q23 -9 23 -35q0 -18 -9 -27q-12 -10 -27 -10q-10 0 -22 5l-94 37l-95 -37l-9 -3q-12 -2 -13 -2q-14 0 -26 10q-10 10 -10 27q0 25 23 35zM146 671v-630q0 -47 -44 -47q-22 0 -32 13q-12 12 -12 34v630q0 47 44 47q21 0 33 -12q11 -14 11 -35z" />
<glyph unicode="&#xcf;" d="M194 866q21 0 39 -15q16 -18 16 -39t-16 -39q-17 -15 -39 -15t-38 15q-17 17 -17 39t17 39q18 15 38 15zM7 866q21 0 39 -15q16 -18 16 -39t-16 -39q-16 -15 -39 -15t-38 15q-16 16 -16 39t16 39q17 15 38 15zM146 671v-630q0 -47 -44 -47q-22 0 -32 13q-12 12 -12 34 v630q0 47 44 47q21 0 33 -12q11 -14 11 -35z" />
<glyph unicode="&#xd0;" horiz-adv-x="633" d="M151 321v-245h127q111 0 169.5 78.5t58.5 205.5q0 56 -13 104t-39.5 87.5t-73 62t-108.5 22.5h-121v-239h121q43 0 43 -38t-43 -38h-121zM63 48v273h-38q-43 0 -43 38t43 38h38v267q0 48 47 48h174q148 0 232 -98.5t84 -253.5q0 -156 -78.5 -258t-225.5 -102h-186 q-47 0 -47 48z" />
<glyph unicode="&#xd1;" horiz-adv-x="671" d="M286 872q26 0 60 -10q29 -10 50 -10q18 0 33 10q17 10 29 10t23 -12q10 -10 10 -27q0 -23 -26 -43q-24 -20 -67 -20q-30 0 -59 10q-34 10 -51 10q-16 0 -33 -10q-16 -10 -30 -10q-13 0 -22 12q-11 11 -11 27q0 24 26 44q25 19 68 19zM148 557l-2 -516q0 -47 -44 -47 q-22 0 -32 13q-12 12 -12 34v625q0 52 40 52q20 0 31 -8q12 -8 31 -38l361 -517l2 516q0 47 44 47q21 0 33 -12q11 -14 11 -35v-625q0 -52 -40 -52q-20 0 -31 8q-12 8 -31 38z" />
<glyph unicode="&#xd2;" horiz-adv-x="689" d="M381 770l-115 46q-20 9 -28 17q-8 11 -8 21q0 14 10 28q11 14 29 14q11 0 34 -9l115 -47q21 -10 27 -17q8 -11 8 -20q0 -14 -10 -28q-11 -14 -28 -14q-11 0 -34 9zM344 718q145 0 229 -106q83 -107 83 -256q0 -147 -83 -254q-84 -108 -229 -108q-146 0 -229 107 q-84 107 -84 255q0 147 84 255q83 107 229 107zM344 70q111 0 165 85q53 85 53 201t-53 202q-54 84 -165 84q-112 0 -165 -84q-54 -86 -54 -202q0 -117 54 -201q52 -85 165 -85z" />
<glyph unicode="&#xd3;" horiz-adv-x="689" d="M418 816l-115 -46q-22 -9 -34 -9q-18 0 -29 13q-10 14 -10 29q0 7 8 20q6 7 28 17l115 47q22 9 34 9q18 0 28 -14q10 -11 10 -28q0 -12 -7 -20t-28 -18zM344 718q145 0 229 -106q83 -107 83 -256q0 -147 -83 -254q-84 -108 -229 -108q-146 0 -229 107q-84 107 -84 255 q0 147 84 255q83 107 229 107zM344 70q111 0 165 85q53 85 53 201t-53 202q-54 84 -165 84q-112 0 -165 -84q-54 -86 -54 -202q0 -117 54 -201q52 -85 165 -85z" />
<glyph unicode="&#xd4;" horiz-adv-x="689" d="M212 833l130 56l129 -56q23 -9 23 -35q0 -16 -9 -27q-12 -10 -27 -10q-10 0 -22 5l-94 37l-95 -37q-6 -2 -10 -3q-10 -2 -12 -2q-14 0 -26 10q-10 10 -10 27q0 26 23 35zM344 718q145 0 229 -106q83 -107 83 -256q0 -147 -83 -254q-84 -108 -229 -108q-146 0 -229 107 q-84 107 -84 255q0 147 84 255q83 107 229 107zM344 70q111 0 165 85q53 85 53 201t-53 202q-54 84 -165 84q-112 0 -165 -84q-54 -86 -54 -202q0 -117 54 -201q52 -85 165 -85z" />
<glyph unicode="&#xd5;" horiz-adv-x="689" d="M286 872q26 0 60 -10q29 -10 50 -10q18 0 33 10q17 10 29 10t23 -12q10 -10 10 -27q0 -23 -26 -43q-24 -20 -67 -20q-30 0 -59 10q-34 10 -51 10q-16 0 -33 -10q-16 -10 -30 -10q-13 0 -22 12q-11 11 -11 27q0 24 26 44q25 19 68 19zM344 718q145 0 229 -106 q83 -107 83 -256q0 -147 -83 -254q-84 -108 -229 -108q-146 0 -229 107q-84 107 -84 255q0 147 84 255q83 107 229 107zM344 70q111 0 165 85q53 85 53 201t-53 202q-54 84 -165 84q-112 0 -165 -84q-54 -86 -54 -202q0 -117 54 -201q52 -85 165 -85z" />
<glyph unicode="&#xd6;" horiz-adv-x="689" d="M435 866q21 0 39 -15q15 -17 15 -39t-15 -39q-16 -15 -39 -15t-38 15q-16 16 -16 39t16 39q17 15 38 15zM248 866q22 0 40 -15q15 -17 15 -39t-15 -39q-16 -15 -40 -15q-23 0 -38 15q-16 16 -16 39t16 39q17 15 38 15zM344 718q145 0 229 -106q83 -107 83 -256 q0 -147 -83 -254q-84 -108 -229 -108q-146 0 -229 107q-84 107 -84 255q0 147 84 255q83 107 229 107zM344 70q111 0 165 85q53 85 53 201t-53 202q-54 84 -165 84q-112 0 -165 -84q-54 -86 -54 -202q0 -117 54 -201q52 -85 165 -85z" />
<glyph unicode="&#xd7;" horiz-adv-x="603" d="M301 309l152 151q23 23 42 23q24 0 34 -21.5t-19 -55.5l-153 -153l153 -153q27 -31 18 -54t-33 -23q-19 0 -42 23l-152 152l-153 -152q-23 -23 -42 -23q-13 0 -25 8t-12 27t22 42l153 153l-153 153q-27 32 -18 54.5t33 22.5q19 0 42 -23z" />
<glyph unicode="&#xd8;" horiz-adv-x="689" d="M546 639l59 70q14 17 31 17q14 0 22 -7q9 -7 9 -21q0 -12 -12 -26l-69 -80q70 -98 70 -236q0 -147 -83 -254q-84 -108 -229 -108q-62 0 -113 21q-49 19 -90 59l-61 -72q-13 -16 -31 -16q-13 0 -21 8t-8 19q0 13 14 30l66 77q-69 100 -69 236q0 147 84 255q83 107 229 107 q60 0 112 -20q49 -21 90 -59zM528 524l-334 -389q29 -32 65 -48q36 -17 85 -17q111 0 165 85q53 85 53 201q0 43 -8 89q-8 41 -26 79zM160 190l333 388q-29 32 -63 48q-35 16 -86 16q-112 0 -165 -84q-54 -86 -54 -202q0 -44 9 -86q7 -40 26 -80z" />
<glyph unicode="&#xd9;" horiz-adv-x="671" d="M381 770l-115 46q-20 9 -28 17q-8 11 -8 21q0 14 10 28q11 14 29 14q11 0 34 -9l115 -47q21 -10 27 -17q8 -11 8 -20q0 -14 -10 -28q-11 -14 -28 -14q-11 0 -34 9zM58 282v389q0 47 44 47q21 0 33 -12q11 -14 11 -35v-423q0 -84 52 -130q51 -48 137 -48q85 0 137 48 q51 46 51 130v423q0 47 44 47q21 0 33 -12q11 -14 11 -35v-389q0 -162 -80 -225q-81 -63 -196 -63q-116 0 -196 64q-81 63 -81 224z" />
<glyph unicode="&#xda;" horiz-adv-x="671" d="M418 816l-115 -46q-22 -9 -34 -9q-18 0 -29 13q-10 14 -10 29q0 7 8 20q6 7 28 17l115 47q22 9 34 9q18 0 28 -14q10 -11 10 -28q0 -12 -7 -20t-28 -18zM58 282v389q0 47 44 47q21 0 33 -12q11 -14 11 -35v-423q0 -84 52 -130q51 -48 137 -48q85 0 137 48q51 46 51 130 v423q0 47 44 47q21 0 33 -12q11 -14 11 -35v-389q0 -162 -80 -225q-81 -63 -196 -63q-116 0 -196 64q-81 63 -81 224z" />
<glyph unicode="&#xdb;" horiz-adv-x="671" d="M212 833l130 56l129 -56q23 -9 23 -35q0 -16 -9 -27q-12 -10 -27 -10q-10 0 -22 5l-94 37l-95 -37q-6 -2 -10 -3q-10 -2 -12 -2q-14 0 -26 10q-10 10 -10 27q0 26 23 35zM58 282v389q0 47 44 47q21 0 33 -12q11 -14 11 -35v-423q0 -84 52 -130q51 -48 137 -48 q85 0 137 48q51 46 51 130v423q0 47 44 47q21 0 33 -12q11 -14 11 -35v-389q0 -162 -80 -225q-81 -63 -196 -63q-116 0 -196 64q-81 63 -81 224z" />
<glyph unicode="&#xdc;" horiz-adv-x="671" d="M435 866q21 0 39 -15q15 -17 15 -39t-15 -39q-16 -15 -39 -15t-38 15q-16 16 -16 39t16 39q17 15 38 15zM248 866q22 0 40 -15q15 -17 15 -39t-15 -39q-16 -15 -40 -15q-23 0 -38 15q-16 16 -16 39t16 39q17 15 38 15zM58 282v389q0 47 44 47q21 0 33 -12q11 -14 11 -35 v-423q0 -84 52 -130q51 -48 137 -48q85 0 137 48q51 46 51 130v423q0 47 44 47q21 0 33 -12q11 -14 11 -35v-389q0 -162 -80 -225q-81 -63 -196 -63q-116 0 -196 64q-81 63 -81 224z" />
<glyph unicode="&#xdd;" horiz-adv-x="502" d="M206 41v293l-191 311q-14 23 -14 37q0 36 40 36q12 0 24 -5q8 -5 20 -23l165 -269l166 269q8 14 20 22q10 6 24 6q17 0 29 -9q11 -11 11 -27q0 -14 -14 -37l-191 -311v-293q0 -47 -45 -47q-22 0 -32 13q-12 12 -12 34zM409 795l-115 -47q-22 -9 -34 -9q-17 0 -28 14 q-10 13 -10 28q0 9 8 20q8 10 27 17l115 47q22 9 34 9q18 0 28 -13t10 -29q0 -11 -7 -19q-7 -10 -28 -18z" />
<glyph unicode="&#xde;" horiz-adv-x="522" d="M146 156v-115q0 -47 -44 -47t-44 47v630q0 47 44 47t44 -47v-71h134q59 0 109.5 -21.5t86 -74t35.5 -127.5q0 -37 -13 -74t-39 -71t-72 -55t-104 -21h-137zM146 524v-292h131q60 0 103 39t43 106q0 61 -36 104t-114 43h-127z" />
<glyph unicode="&#xdf;" horiz-adv-x="559" d="M58 37v526q0 98 52 153q53 56 140 56q88 0 144 -56t56 -126q0 -58 -18 -99q-20 -43 -59 -69q63 -17 98 -71q36 -56 36 -127q0 -88 -54 -159t-144 -71q-30 0 -44 11q-15 12 -15 30q0 14 9 27q8 11 25 11q71 0 100 41t29 114q0 69 -34 107q-35 39 -87 39q-46 0 -46 37 q0 21 10 28q8 8 39 17q30 9 49 34q18 24 18 90q0 48 -29 83q-30 33 -80 33q-46 0 -76 -34q-31 -34 -31 -116v-509q0 -22 -13 -32q-14 -11 -31 -11q-20 0 -31 10q-13 10 -13 33z" />
<glyph unicode="&#xe0;" horiz-adv-x="559" d="M313 616l-116 47q-18 7 -28 17q-7 10 -7 20q0 13 9 28q12 14 29 14q12 0 33 -9l117 -47q20 -8 26 -17q9 -9 9 -20q0 -14 -10 -27q-10 -15 -28 -15q-12 0 -34 9zM270 70q74 0 110 59q36 58 36 137t-35 138q-36 58 -111 58t-111 -59t-36 -137t36 -137q35 -59 111 -59z M499 495v-458q0 -22 -13 -32q-14 -11 -28 -11q-15 0 -28 11q-13 10 -13 32v37q-59 -80 -147 -80q-108 0 -171 80q-64 79 -64 192q0 114 63 193q61 79 172 79q43 0 79 -17q33 -17 66 -54l2 28q0 23 13 33q11 10 28 10q16 0 29 -10q12 -10 12 -33z" />
<glyph unicode="&#xe1;" horiz-adv-x="559" d="M350 663l-117 -47q-21 -9 -33 -9q-17 0 -29 14q-9 13 -9 28q0 8 7 20q10 10 28 17l116 47q23 9 34 9q18 0 28 -13t10 -29q0 -11 -8 -19q-6 -10 -27 -18zM270 70q74 0 110 59q36 58 36 137t-35 138q-36 58 -111 58t-111 -59t-36 -137t36 -137q35 -59 111 -59zM499 495 v-458q0 -22 -13 -32q-14 -11 -28 -11q-15 0 -28 11q-13 10 -13 32v37q-59 -80 -147 -80q-108 0 -171 80q-64 79 -64 192q0 114 63 193q61 79 172 79q43 0 79 -17q33 -17 66 -54l2 28q0 23 13 33q11 10 28 10q16 0 29 -10q12 -10 12 -33z" />
<glyph unicode="&#xe2;" horiz-adv-x="559" d="M144 680l129 55l129 -55q24 -10 24 -35q0 -14 -9 -27q-11 -11 -27 -11q-10 0 -22 5l-95 37l-94 -37q-6 -2 -11 -3q-8 -2 -11 -2q-15 0 -26 11q-10 10 -10 27q0 24 23 35zM270 70q74 0 110 59q36 58 36 137t-35 138q-36 58 -111 58t-111 -59t-36 -137t36 -137 q35 -59 111 -59zM499 495v-458q0 -22 -13 -32q-14 -11 -28 -11q-15 0 -28 11q-13 10 -13 32v37q-59 -80 -147 -80q-108 0 -171 80q-64 79 -64 192q0 114 63 193q61 79 172 79q43 0 79 -17q33 -17 66 -54l2 28q0 23 13 33q11 10 28 10q16 0 29 -10q12 -10 12 -33z" />
<glyph unicode="&#xe3;" horiz-adv-x="559" d="M217 718q25 0 61 -10q33 -10 50 -10q16 0 32 10q19 10 30 10q12 0 23 -11q9 -12 9 -28q0 -24 -25 -43q-26 -20 -67 -20q-28 0 -59 10q-36 10 -52 10t-33 -10t-29 -10q-11 0 -22 12q-11 10 -11 27q0 24 25 44q26 19 68 19zM270 70q74 0 110 59q36 58 36 137t-35 138 q-36 58 -111 58t-111 -59t-36 -137t36 -137q35 -59 111 -59zM499 495v-458q0 -22 -13 -32q-14 -11 -28 -11q-15 0 -28 11q-13 10 -13 32v37q-59 -80 -147 -80q-108 0 -171 80q-64 79 -64 192q0 114 63 193q61 79 172 79q43 0 79 -17q33 -17 66 -54l2 28q0 23 13 33 q11 10 28 10q16 0 29 -10q12 -10 12 -33z" />
<glyph unicode="&#xe4;" horiz-adv-x="559" d="M367 712q23 0 39 -15q14 -15 14 -39t-14 -38q-16 -16 -39 -16q-25 0 -38 16q-16 15 -16 38t16 39q13 15 38 15zM180 712q22 0 39 -15q14 -15 14 -39t-14 -38q-16 -16 -39 -16q-25 0 -38 16q-17 15 -17 38q0 22 17 39q14 15 38 15zM270 70q74 0 110 59q36 58 36 137 t-35 138q-36 58 -111 58t-111 -59t-36 -137t36 -137q35 -59 111 -59zM499 495v-458q0 -22 -13 -32q-14 -11 -28 -11q-15 0 -28 11q-13 10 -13 32v37q-59 -80 -147 -80q-108 0 -171 80q-64 79 -64 192q0 114 63 193q61 79 172 79q43 0 79 -17q33 -17 66 -54l2 28q0 23 13 33 q11 10 28 10q16 0 29 -10q12 -10 12 -33z" />
<glyph unicode="&#xe5;" horiz-adv-x="559" d="M273 632q20 0 34 14q13 15 13 32q0 18 -13 33q-13 13 -34 13q-19 0 -32 -13q-14 -13 -14 -33q0 -19 14 -32q14 -14 32 -14zM273 772q39 0 68 -27q27 -30 27 -67t-27 -66q-28 -28 -68 -28q-39 0 -66 28q-28 27 -28 66t28 67q27 27 66 27zM270 70q74 0 110 59q36 58 36 137 t-35 138q-36 58 -111 58t-111 -59t-36 -137t36 -137q35 -59 111 -59zM499 495v-458q0 -22 -13 -32q-14 -11 -28 -11q-15 0 -28 11q-13 10 -13 32v37q-59 -80 -147 -80q-108 0 -171 80q-64 79 -64 192q0 114 63 193q61 79 172 79q43 0 79 -17q33 -17 66 -54l2 28q0 23 13 33 q11 10 28 10q16 0 29 -10q12 -10 12 -33z" />
<glyph unicode="&#xe6;" horiz-adv-x="894" d="M496 298h281q0 64 -37 114q-38 50 -105 50q-70 0 -104 -49q-35 -50 -35 -115zM416 37v37q-28 -40 -66 -60t-80 -20q-108 0 -171 80q-64 79 -64 192q0 114 63 193q61 79 172 79q44 0 78 -17q33 -17 66 -54l2 28q0 23 13 33q11 10 28 10q16 0 29 -10q12 -10 12 -33v-22 q22 26 65 47q40 18 77 18q90 0 158 -72q67 -71 67 -187q0 -25 -10 -35q-11 -12 -39 -12h-326q0 -63 44 -112q44 -48 117 -48q51 0 91 22q13 8 40 24t40 24q13 0 23 -10q9 -11 9 -29q0 -34 -64 -71q-67 -38 -133 -38q-52 0 -91 16q-40 15 -66 48l-2 -21q0 -22 -13 -32 q-14 -11 -28 -11q-15 0 -28 11q-13 10 -13 32zM270 70q74 0 110 59q36 58 36 137t-35 138q-36 58 -111 58t-111 -59t-36 -137t36 -137q35 -59 111 -59z" />
<glyph unicode="&#xe7;" horiz-adv-x="446" d="M282 -6l-25 -36q16 3 21 3q30 0 50 -17q19 -18 19 -38q0 -44 -29 -65q-30 -21 -83 -21q-35 0 -52 10q-20 9 -20 25q0 11 5 19t15 8q7 0 26 -4q17 -4 26 -4q37 0 37 27q0 16 -13 17q-9 1 -32 1q-14 0 -21 5q-10 4 -10 14q0 11 11 25l23 34q-83 13 -132 76q-63 79 -63 193 q0 113 62 193q61 79 179 79q66 0 104 -19q39 -19 39 -48q0 -15 -10 -25q-11 -12 -26 -12t-46 14t-61 14q-77 0 -115 -59t-38 -137t38 -137t115 -59q34 0 66 15t40 15q14 0 25 -9q9 -11 9 -28q0 -27 -38 -48q-36 -19 -96 -21z" />
<glyph unicode="&#xe8;" horiz-adv-x="523" d="M295 616l-115 47q-18 7 -28 17q-7 8 -7 20q0 15 9 28q12 14 29 14q12 0 33 -9l117 -47q20 -8 26 -17q9 -9 9 -20q0 -15 -11 -27q-9 -15 -27 -15q-11 0 -35 9zM114 298h293q0 63 -36 114q-38 50 -105 50q-76 0 -114 -48q-38 -49 -38 -116zM446 232h-332q0 -70 42 -116 t116 -46q58 0 99 22q14 9 41 25.5t40 24.5q13 0 23 -10q9 -11 9 -29q0 -33 -69 -71q-71 -38 -144 -38q-121 0 -183 78q-62 79 -62 194q0 114 66 193q64 79 174 79q104 0 167 -78q62 -79 62 -181q0 -25 -10 -35q-11 -12 -39 -12z" />
<glyph unicode="&#xe9;" horiz-adv-x="523" d="M333 663l-117 -47q-21 -9 -33 -9q-17 0 -29 14q-9 12 -9 28q0 10 7 20q10 10 28 17l115 47q24 9 35 9q18 0 27 -13q11 -12 11 -29q0 -11 -8 -19q-8 -11 -27 -18zM114 298h293q0 63 -36 114q-38 50 -105 50q-76 0 -114 -48q-38 -49 -38 -116zM446 232h-332q0 -70 42 -116 t116 -46q58 0 99 22q14 9 41 25.5t40 24.5q13 0 23 -10q9 -11 9 -29q0 -33 -69 -71q-71 -38 -144 -38q-121 0 -183 78q-62 79 -62 194q0 114 66 193q64 79 174 79q104 0 167 -78q62 -79 62 -181q0 -25 -10 -35q-11 -12 -39 -12z" />
<glyph unicode="&#xea;" horiz-adv-x="523" d="M126 680l130 55l130 -55q23 -12 23 -35q0 -15 -10 -27q-9 -11 -26 -11q-12 0 -22 5l-95 37l-94 -37q-6 -2 -11 -3q-10 -2 -11 -2q-15 0 -26 11q-10 9 -10 27q0 24 22 35zM114 298h293q0 63 -36 114q-38 50 -105 50q-76 0 -114 -48q-38 -49 -38 -116zM446 232h-332 q0 -70 42 -116t116 -46q58 0 99 22q14 9 41 25.5t40 24.5q13 0 23 -10q9 -11 9 -29q0 -33 -69 -71q-71 -38 -144 -38q-121 0 -183 78q-62 79 -62 194q0 114 66 193q64 79 174 79q104 0 167 -78q62 -79 62 -181q0 -25 -10 -35q-11 -12 -39 -12z" />
<glyph unicode="&#xeb;" horiz-adv-x="523" d="M350 712q21 0 39 -15q14 -17 14 -39t-14 -38q-17 -16 -39 -16q-25 0 -38 16q-17 15 -17 38q0 22 17 39q14 15 38 15zM163 712q21 0 39 -15q14 -17 14 -39t-14 -38q-17 -16 -39 -16q-23 0 -38 16q-17 15 -17 38q0 22 17 39q15 15 38 15zM114 298h293q0 63 -36 114 q-38 50 -105 50q-76 0 -114 -48q-38 -49 -38 -116zM446 232h-332q0 -70 42 -116t116 -46q58 0 99 22q14 9 41 25.5t40 24.5q13 0 23 -10q9 -11 9 -29q0 -33 -69 -71q-71 -38 -144 -38q-121 0 -183 78q-62 79 -62 194q0 114 66 193q64 79 174 79q104 0 167 -78 q62 -79 62 -181q0 -25 -10 -35q-11 -12 -39 -12z" />
<glyph unicode="&#xec;" d="M69 616l-115 47q-19 7 -27 17t-8 20q0 14 10 28q11 14 28 14q12 0 34 -9l115 -47q20 -7 28 -17t8 -20q0 -14 -10 -27q-11 -15 -29 -15q-11 0 -34 9zM146 491v-450q0 -47 -44 -47q-22 0 -32 13q-12 12 -12 34v450q0 47 44 47q21 0 33 -12q11 -14 11 -35z" />
<glyph unicode="&#xed;" d="M246 663l-115 -47q-23 -9 -34 -9q-17 0 -28 14q-10 13 -10 28q0 9 8 20q8 10 27 17l115 47q23 9 34 9q19 0 29 -13t10 -29q0 -11 -7 -19q-7 -10 -29 -18zM146 491v-450q0 -47 -44 -47q-22 0 -32 13q-12 12 -12 34v450q0 47 44 47q21 0 33 -12q11 -14 11 -35z" />
<glyph unicode="&#xee;" d="M-21 680l130 55l129 -55q23 -10 23 -35q0 -18 -9 -27q-11 -11 -27 -11q-10 0 -22 5l-94 37l-95 -37l-9 -3q-12 -2 -13 -2q-15 0 -26 11q-10 10 -10 27q0 23 23 35zM146 491v-450q0 -47 -44 -47q-22 0 -32 13q-12 12 -12 34v450q0 47 44 47q21 0 33 -12q11 -14 11 -35z " />
<glyph unicode="&#xef;" d="M194 712q22 0 39 -15q16 -18 16 -39q0 -22 -16 -38t-39 -16q-22 0 -38 16q-17 15 -17 38q0 22 17 39q16 15 38 15zM7 712q23 0 39 -15q16 -18 16 -39q0 -22 -16 -38t-39 -16t-38 16q-16 15 -16 38t16 39q15 15 38 15zM146 491v-450q0 -47 -44 -47q-22 0 -32 13 q-12 12 -12 34v450q0 47 44 47q21 0 33 -12q11 -14 11 -35z" />
<glyph unicode="&#xf0;" horiz-adv-x="541" d="M270 70q64 0 105 52t41 140q0 77 -37 134.5t-109 57.5q-71 0 -109 -58t-38 -134q0 -81 39 -136.5t108 -55.5zM390 472q-28 88 -119 163l-88 -42q-31 -15 -45 -1q-9 6 -8.5 20t17.5 22l77 37q-15 12 -54 30q-27 11 -36 28.5t0.5 30t32.5 12.5q51 0 136 -61l92 46 q32 14 46 4q8 -4 6.5 -20.5t-20.5 -27.5l-78 -38q155 -141 155 -376q0 -136 -58.5 -220.5t-181.5 -84.5q-102 0 -165.5 78.5t-63.5 189.5q0 47 13.5 92.5t39.5 86.5t72 66t104 25q79 0 126 -60z" />
<glyph unicode="&#xf1;" horiz-adv-x="541" d="M217 718q25 0 61 -10q33 -10 50 -10q16 0 32 10q19 10 30 10q12 0 23 -11q9 -12 9 -28q0 -24 -25 -43q-26 -20 -67 -20q-28 0 -59 10q-36 10 -52 10t-33 -10t-29 -10q-11 0 -22 12q-11 10 -11 27q0 24 25 44q26 19 68 19zM58 41v450q0 47 44 47q21 0 33 -12 q11 -14 11 -35v-21l2 -2q29 37 66 53q39 17 82 17q74 0 129 -49q56 -50 56 -153v-295q0 -47 -44 -47q-22 0 -32 13q-12 12 -12 34v290q0 65 -36 98q-37 33 -87 33t-87 -33t-37 -98v-290q0 -47 -44 -47q-22 0 -32 13q-12 12 -12 34z" />
<glyph unicode="&#xf2;" horiz-adv-x="541" d="M313 616l-116 47q-18 7 -28 17q-7 10 -7 20q0 13 9 28q12 14 29 14q12 0 33 -9l117 -47q20 -8 26 -17q9 -9 9 -20q0 -14 -10 -27q-10 -15 -28 -15q-12 0 -34 9zM270 70q74 0 110 59q36 58 36 137t-35 138q-36 58 -111 58t-111 -59t-36 -137t36 -137q35 -59 111 -59z M270 538q106 0 171 -80q63 -80 63 -192t-62 -192q-63 -80 -172 -80q-108 0 -171 80q-64 79 -64 192q0 114 63 193q61 79 172 79z" />
<glyph unicode="&#xf3;" horiz-adv-x="541" d="M350 663l-117 -47q-21 -9 -33 -9q-17 0 -29 14q-9 13 -9 28q0 8 7 20q10 10 28 17l116 47q23 9 34 9q18 0 28 -13t10 -29q0 -11 -8 -19q-6 -10 -27 -18zM270 70q74 0 110 59q36 58 36 137t-35 138q-36 58 -111 58t-111 -59t-36 -137t36 -137q35 -59 111 -59zM270 538 q106 0 171 -80q63 -80 63 -192t-62 -192q-63 -80 -172 -80q-108 0 -171 80q-64 79 -64 192q0 114 63 193q61 79 172 79z" />
<glyph unicode="&#xf4;" horiz-adv-x="541" d="M144 680l129 55l129 -55q24 -10 24 -35q0 -14 -9 -27q-11 -11 -27 -11q-10 0 -22 5l-95 37l-94 -37q-6 -2 -11 -3q-8 -2 -11 -2q-15 0 -26 11q-10 10 -10 27q0 24 23 35zM270 70q74 0 110 59q36 58 36 137t-35 138q-36 58 -111 58t-111 -59t-36 -137t36 -137 q35 -59 111 -59zM270 538q106 0 171 -80q63 -80 63 -192t-62 -192q-63 -80 -172 -80q-108 0 -171 80q-64 79 -64 192q0 114 63 193q61 79 172 79z" />
<glyph unicode="&#xf5;" horiz-adv-x="541" d="M217 718q25 0 61 -10q33 -10 50 -10q16 0 32 10q19 10 30 10q12 0 23 -11q9 -12 9 -28q0 -24 -25 -43q-26 -20 -67 -20q-28 0 -59 10q-36 10 -52 10t-33 -10t-29 -10q-11 0 -22 12q-11 10 -11 27q0 24 25 44q26 19 68 19zM270 70q74 0 110 59q36 58 36 137t-35 138 q-36 58 -111 58t-111 -59t-36 -137t36 -137q35 -59 111 -59zM270 538q106 0 171 -80q63 -80 63 -192t-62 -192q-63 -80 -172 -80q-108 0 -171 80q-64 79 -64 192q0 114 63 193q61 79 172 79z" />
<glyph unicode="&#xf6;" horiz-adv-x="541" d="M367 712q23 0 39 -15q14 -15 14 -39t-14 -38q-16 -16 -39 -16q-25 0 -38 16q-16 15 -16 38t16 39q13 15 38 15zM180 712q22 0 39 -15q14 -15 14 -39t-14 -38q-16 -16 -39 -16q-25 0 -38 16q-17 15 -17 38q0 22 17 39q14 15 38 15zM270 70q74 0 110 59q36 58 36 137 t-35 138q-36 58 -111 58t-111 -59t-36 -137t36 -137q35 -59 111 -59zM270 538q106 0 171 -80q63 -80 63 -192t-62 -192q-63 -80 -172 -80q-108 0 -171 80q-64 79 -64 192q0 114 63 193q61 79 172 79z" />
<glyph unicode="&#xf7;" horiz-adv-x="603" d="M301 118q30 0 51 -21t21 -51t-21 -51t-51 -21q-29 0 -52 21q-21 21 -21 51t21 51q23 21 52 21zM301 532q30 0 51 -21t21 -51t-21 -51t-51 -21q-29 0 -52 21q-21 21 -21 51t21 51q22 21 52 21zM511 212h-421q-43 0 -43 41q0 21 12 31q10 10 31 10h421q43 0 43 -41 q0 -19 -11 -30q-13 -11 -32 -11z" />
<glyph unicode="&#xf8;" horiz-adv-x="541" d="M396 370l-219 -263q34 -37 93 -37q74 0 110 59q36 58 36 137q0 31 -4 54q-3 19 -16 50zM143 162l219 263q-34 37 -92 37q-75 0 -111 -59t-36 -137q0 -56 20 -104zM41 39l45 54q-51 69 -51 173q0 114 63 193q61 79 172 79q43 0 79 -13q34 -13 64 -38l41 50q8 10 15 14 q8 5 16 5q12 0 22 -8q9 -8 9 -20q0 -14 -14 -31l-48 -57q50 -77 50 -174q0 -112 -62 -192q-63 -80 -172 -80q-85 0 -143 52l-42 -51q-13 -19 -32 -19q-11 0 -21 8q-9 8 -9 20q0 14 18 35z" />
<glyph unicode="&#xf9;" horiz-adv-x="541" d="M313 616l-116 47q-18 7 -28 17q-7 10 -7 20q0 13 9 28q12 14 29 14q12 0 33 -9l117 -47q20 -8 26 -17q9 -9 9 -20q0 -14 -10 -27q-10 -15 -28 -15q-12 0 -34 9zM58 206v285q0 47 44 47q21 0 33 -12q11 -14 11 -35v-282q0 -139 124 -139q60 0 92 36q31 34 31 103v282 q0 47 44 47q21 0 33 -12q11 -14 11 -35v-285q0 -109 -60 -160q-61 -52 -151 -52q-92 0 -152 51t-60 161z" />
<glyph unicode="&#xfa;" horiz-adv-x="541" d="M350 663l-117 -47q-21 -9 -33 -9q-17 0 -29 14q-9 13 -9 28q0 8 7 20q10 10 28 17l116 47q23 9 34 9q18 0 28 -13t10 -29q0 -11 -8 -19q-6 -10 -27 -18zM58 206v285q0 47 44 47q21 0 33 -12q11 -14 11 -35v-282q0 -139 124 -139q60 0 92 36q31 34 31 103v282q0 47 44 47 q21 0 33 -12q11 -14 11 -35v-285q0 -109 -60 -160q-61 -52 -151 -52q-92 0 -152 51t-60 161z" />
<glyph unicode="&#xfb;" horiz-adv-x="541" d="M144 680l129 55l129 -55q24 -10 24 -35q0 -14 -9 -27q-11 -11 -27 -11q-10 0 -22 5l-95 37l-94 -37q-6 -2 -11 -3q-8 -2 -11 -2q-15 0 -26 11q-10 10 -10 27q0 24 23 35zM58 206v285q0 47 44 47q21 0 33 -12q11 -14 11 -35v-282q0 -139 124 -139q60 0 92 36q31 34 31 103 v282q0 47 44 47q21 0 33 -12q11 -14 11 -35v-285q0 -109 -60 -160q-61 -52 -151 -52q-92 0 -152 51t-60 161z" />
<glyph unicode="&#xfc;" horiz-adv-x="541" d="M367 712q23 0 39 -15q14 -15 14 -39t-14 -38q-16 -16 -39 -16q-25 0 -38 16q-16 15 -16 38t16 39q13 15 38 15zM180 712q22 0 39 -15q14 -15 14 -39t-14 -38q-16 -16 -39 -16q-25 0 -38 16q-17 15 -17 38q0 22 17 39q14 15 38 15zM58 206v285q0 47 44 47q21 0 33 -12 q11 -14 11 -35v-282q0 -139 124 -139q60 0 92 36q31 34 31 103v282q0 47 44 47q21 0 33 -12q11 -14 11 -35v-285q0 -109 -60 -160q-61 -52 -151 -52q-92 0 -152 51t-60 161z" />
<glyph unicode="&#xfd;" horiz-adv-x="446" d="M179 19l-150 433l-10 32q-2 10 -2 17q0 17 12 27q11 10 28 10q16 0 28 -9q12 -10 16 -24l122 -365l123 365q10 33 42 33q15 0 28 -10q12 -10 12 -27q0 -6 -2 -16q0 -2 -1.5 -6.5l-4 -12t-4.5 -14.5l-223 -635q-12 -33 -43 -33q-14 0 -27 11q-13 10 -13 26q0 10 5 25l8 24 zM383 663l-115 -47q-23 -9 -34 -9q-17 0 -28 14q-10 13 -10 28q0 9 8 20q8 10 27 17l115 47q22 9 34 9q18 0 28 -13t10 -29q0 -11 -7 -19q-7 -10 -28 -18z" />
<glyph unicode="&#xfe;" horiz-adv-x="559" d="M62 -169v894q0 47 44 47t44 -47v-260q40 73 145 73q94 0 160.5 -73.5t66.5 -198.5q0 -126 -65.5 -199t-161.5 -73q-95 0 -143 72l-2 -235q0 -47 -44 -47q-18 0 -31 11t-13 36zM288 70q66 0 106 52.5t40 143.5q0 82 -36 139t-110 57q-66 0 -106.5 -52t-40.5 -144 q0 -50 13.5 -92.5t48 -73t85.5 -30.5z" />
<glyph unicode="&#xff;" horiz-adv-x="446" d="M315 712q22 0 40 -15q14 -17 14 -39t-14 -38q-17 -16 -40 -16q-22 0 -38 16t-16 38q0 21 16 39q17 15 38 15zM128 712q22 0 39 -15q16 -18 16 -39q0 -22 -16 -38t-39 -16q-22 0 -38 16t-16 38q0 21 16 39q16 15 38 15zM179 19l-150 433l-10 32q-2 10 -2 17q0 17 12 27 q11 10 28 10q16 0 28 -9q12 -10 16 -24l122 -365l123 365q10 33 42 33q15 0 28 -10q12 -10 12 -27q0 -6 -2 -16q0 -2 -1.5 -6.5l-4 -12t-4.5 -14.5l-223 -635q-12 -33 -43 -33q-14 0 -27 11q-13 10 -13 26q0 10 5 25l8 24z" />
<glyph unicode="&#x131;" d="M146 491v-450q0 -47 -44 -47q-22 0 -32 13q-12 12 -12 34v450q0 47 44 47q21 0 33 -12q11 -14 11 -35z" />
<glyph unicode="&#x141;" horiz-adv-x="391" d="M146 337v-255h189q43 0 43 -41t-43 -41h-230q-47 0 -47 48v238l-13 -8q-12 -7 -18 -8q-29 -11 -44 9q-6 7 -9.5 16.5t1.5 23t22 23.5l61 36v293q0 47 44 47t44 -47v-242l67 38l5 3q6 4 14 6.5t18 2.5q38 0 38 -38q0 -23 -24 -37z" />
<glyph unicode="&#x142;" d="M58 41v243l-21 -21q-5 -5 -15 -11q-11 -6 -24.5 -4t-21.5 10q-26 29 6 61l76 76v330q0 47 44 47t44 -47v-242l21 21q33 33 61 5q12 -12 10.5 -29t-16.5 -32l-76 -76v-331q0 -47 -44 -47t-44 47z" />
<glyph unicode="&#x152;" horiz-adv-x="931" d="M555 48v56q-37 -51 -91 -80q-56 -30 -120 -30q-146 0 -229 107q-84 107 -84 255q0 147 84 255q83 107 229 107q62 0 116 -26q53 -27 95 -74v46q0 48 47 48h242q43 0 43 -41q0 -19 -11 -30q-13 -11 -32 -11h-201v-233h194q43 0 43 -41q0 -19 -11 -30q-13 -11 -32 -11h-194 v-233h211q43 0 43 -41q0 -19 -11 -30q-13 -11 -32 -11h-252q-25 0 -35 13q-12 13 -12 35zM344 70q111 0 165 85q53 85 53 201t-53 202q-54 84 -165 84q-112 0 -165 -84q-54 -86 -54 -202q0 -117 54 -201q52 -85 165 -85z" />
<glyph unicode="&#x153;" horiz-adv-x="912" d="M123 266q0 -78 36 -137q35 -59 110 -59q73 0 109 59q36 58 36 137t-35 138q-36 58 -110 58t-110 -59t-36 -137zM267 538q61 0 110 -27q49 -28 83 -77q28 48 77 76t111 28q108 0 172 -78q63 -78 63 -181q0 -25 -10 -35q-11 -12 -39 -12h-332q0 -71 44 -115q44 -45 121 -45 q53 0 94 22q52 32 79 48q13 0 23 -10q9 -11 9 -29q0 -34 -67 -71q-68 -38 -142 -38q-73 0 -123 27q-51 27 -80 77q-33 -46 -84 -75q-52 -29 -109 -29q-107 0 -169 80q-63 80 -63 192t63 192q62 80 169 80zM502 298h293q0 66 -37 115q-39 49 -110 49t-108 -49 q-38 -50 -38 -115z" />
<glyph unicode="&#x160;" horiz-adv-x="483" d="M420 635q0 -17 -10 -27q-10 -12 -28 -12q-13 0 -51 23t-90 23q-50 0 -81 -28q-32 -29 -32 -73q0 -63 84 -98q25 -10 81 -33t86 -35q88 -52 88 -156q0 -95 -64 -159q-65 -66 -178 -66q-76 0 -136 25q-62 26 -62 61q0 19 10 32q9 13 27 13q48 -24 81 -38q39 -17 81 -17 q66 0 107 42q40 41 40 103q0 69 -84 103q-3 1 -167 68q-88 49 -88 149q0 69 58 126t152 57q68 0 122 -24q54 -26 54 -59zM258 740l-130 55q-23 11 -23 35q0 38 36 38q10 0 22 -5l95 -37l94 37l1 1q1 0 3 1t4 1.5t6 1t8 0.5q13 0 24.5 -8.5t11.5 -29.5q0 -24 -23 -35z" />
<glyph unicode="&#x161;" horiz-adv-x="446" d="M227 538q61 0 120 -27q58 -28 58 -67q0 -16 -10 -26t-30 -10q-2 0 -50 27t-88 27t-66 -17q-27 -17 -27 -50q0 -36 101 -80q107 -46 143 -67q41 -26 41 -90q0 -78 -57 -121q-58 -43 -138 -43q-82 0 -141 33q-59 32 -59 68q0 16 11 29q11 11 25 11q13 0 63 -32 q49 -33 104 -33q48 0 76 22q28 21 28 50q0 42 -71 75q-40 18 -140 65q-74 44 -74 106q0 70 54 110q53 40 127 40zM233 607l-129 55q-23 11 -23 35q0 38 36 38q10 0 22 -5l94 -37l94 37h1q1 1 3 1.5t4 1.5t6 1.5t8 0.5q13 0 25 -8.5t12 -29.5q0 -24 -24 -35z" />
<glyph unicode="&#x178;" horiz-adv-x="502" d="M350 866q19 0 39 -15q14 -17 14 -39t-14 -39q-18 -15 -39 -15q-24 0 -38 15q-17 17 -17 39t17 39q15 15 38 15zM163 866q19 0 39 -15q14 -17 14 -39t-14 -39q-18 -15 -39 -15q-23 0 -38 15q-17 17 -17 39t17 39q17 15 38 15zM206 41v293l-191 311q-14 23 -14 37 q0 36 40 36q12 0 24 -5q8 -5 20 -23l165 -269l166 269q8 14 20 22q10 6 24 6q17 0 29 -9q11 -11 11 -27q0 -14 -14 -37l-191 -311v-293q0 -47 -45 -47q-22 0 -32 13q-12 12 -12 34z" />
<glyph unicode="&#x17d;" horiz-adv-x="559" d="M41 87l367 549h-324q-43 0 -43 38q0 18 12 28q11 10 31 10h390q20 0 34 -9q12 -9 12 -22q0 -16 -4 -25q-6 -13 -18 -31l-368 -549h360q43 0 43 -38q0 -18 -12 -28q-11 -10 -31 -10h-414q-52 0 -52 40q0 11 3 22q2 6 14 25zM281 739l-129 55q-23 11 -23 35q0 38 36 38 q10 0 22 -5l94 -37l94 37h1q1 1 3 1.5t4 1.5t6 1.5t8 0.5q13 0 25 -8.5t12 -29.5q0 -24 -24 -35z" />
<glyph unicode="&#x17e;" horiz-adv-x="446" d="M141 76h240q44 0 44 -38t-44 -38h-318q-23 0 -33 9t-10 22q0 14 4 22q7 14 14 23l255 380h-219q-44 0 -44 38t44 38h297q23 0 33 -9t10 -22q0 -14 -4 -22q-7 -14 -14 -23l-258 -378zM234 607l-129 55q-23 11 -23 35q0 38 36 38q10 0 22 -5l94 -37l94 37h1q1 1 3 1.5 t4 1.5t6 1.5t8 0.5q13 0 25 -8.5t12 -29.5q0 -24 -24 -35z" />
<glyph unicode="&#x192;" horiz-adv-x="539" d="M147 432h63l22 124q15 86 51 125q34 37 106 37q34 0 50 -10t16 -28q0 -32 -57 -32q-34 0 -52 -24t-29 -81l-20 -111h62q16 0 27 -11t11 -27t-11 -27t-27 -11h-75l-73 -396q-18 -96 -50 -136q-33 -40 -115 -40q-33 0 -49 11q-16 10 -16 29q0 37 45 37h41q25 0 39 29 q13 27 25 95l66 371h-50q-16 0 -27 11t-11 27t11 27t27 11z" />
<glyph unicode="&#x2c6;" d="M-27 680l129 55l129 -55q24 -11 24 -35q0 -22 -16 -33t-43 0l-94 37l-94 -37q-26 -9 -42 -0.5t-16 33.5q0 24 23 35z" />
<glyph unicode="&#x2c7;" d="M102 607l-129 55q-23 11 -23 35q0 38 36 38q10 0 22 -5l94 -37l94 37h1q1 1 3 1.5t4 1.5t6 1.5t8 0.5q13 0 25 -8.5t12 -29.5q0 -24 -24 -35z" />
<glyph unicode="&#x2d8;" d="M-2 733q8 0 43 -28q21 -17 34.5 -24t37.5 -3.5t51 27.5q29 28 42 28q16 0 23 -9q23 -34 -15 -79t-112 -45q-66 0 -110.5 44t-15.5 79q7 10 22 10z" />
<glyph unicode="&#x2d9;" d="M102 712q20 0 37 -12.5t17 -41.5q0 -20 -13 -37t-41 -17q-20 0 -37 14t-17 40q0 21 14 37.5t40 16.5z" />
<glyph unicode="&#x2da;" d="M102 772q39 0 66.5 -27.5t27.5 -66.5q0 -40 -27.5 -67.5t-66.5 -27.5t-66.5 27.5t-27.5 67.5q0 39 27.5 66.5t66.5 27.5zM102 725q-20 0 -33.5 -13.5t-13.5 -33.5t13.5 -33.5t33.5 -13.5t33.5 13.5t13.5 33.5t-13.5 33.5t-33.5 13.5z" />
<glyph unicode="&#x2db;" d="M146 2h53q-60 -56 -59 -98q2 -34 45 -27q7 1 15 3q44 15 44 -19q0 -39 -85 -39q-41 0 -70 19t-29 54q0 14 4 25t24.5 33t57.5 49z" />
<glyph unicode="&#x2dc;" d="M46 718q26 0 60 -10l8 -2q8 -3 12.5 -4t13.5 -2.5t16 -1t16 2.5t17 7q17 10 29 10q11 0 22.5 -9.5t11.5 -29.5q0 -22 -25.5 -42.5t-68.5 -20.5q-16 0 -59.5 10t-50.5 10q-16 0 -33 -10t-29 -10q-10 0 -21.5 10t-11.5 29q0 22 23.5 42.5t69.5 20.5z" />
<glyph unicode="&#x2dd;" d="M289 663l-116 -47q-44 -18 -62 5q-8 10 -10.5 21t6 23.5t29.5 20.5l116 47q22 9 34 9q17 0 29.5 -14.5t7 -34t-33.5 -30.5zM68 663l-115 -47q-32 -13 -51.5 -4.5t-19.5 26.5t7 31q8 10 27 17l115 47q22 9 34 9q19 0 28.5 -13t9.5 -29q0 -24 -35 -37z" />
<glyph unicode="&#x3bc;" horiz-adv-x="541" d="M58 -169v660q0 47 44 47q21 0 33 -12q11 -14 11 -35v-282q0 -76 28 -107q29 -32 96 -32q66 0 95 32q28 31 28 107v282q0 47 44 47q21 0 33 -12q11 -14 11 -35v-450q0 -47 -44 -47q-33 0 -41 29q-23 -14 -57 -22q-31 -7 -69 -7q-44 0 -71 10q-29 11 -53 36v-209 q0 -47 -44 -47q-22 0 -32 13q-12 12 -12 34z" />
<glyph unicode="&#x2013;" horiz-adv-x="502" d="M463 230h-425q-16 0 -27 11t-11 27t11 27t27 11h425q16 0 27 -11t11 -27t-11 -27t-27 -11z" />
<glyph unicode="&#x2014;" horiz-adv-x="1005" d="M0 306h1002q16 0 27 -11t11 -27t-11 -27t-27 -11h-1002q-16 0 -27 11t-11 27t11 27t27 11z" />
<glyph unicode="&#x2018;" d="M36 571l56 110q11 19 19 28q9 9 28 9q18 0 29 -10q11 -11 11 -28q0 -13 -11 -37l-56 -110q-11 -19 -19 -28q-9 -9 -28 -9q-17 0 -28 11q-12 11 -12 27q0 13 11 37z" />
<glyph unicode="&#x2019;" d="M36 571l56 110q11 19 19 28q9 9 28 9q18 0 29 -10q11 -11 11 -28q0 -13 -11 -37l-56 -110q-11 -19 -19 -28q-9 -9 -28 -9q-17 0 -28 11q-12 11 -12 27q0 13 11 37z" />
<glyph unicode="&#x201a;" d="M36 -51l56 110q10 19 19 28t28 9q18 0 29 -10q11 -11 11 -28q0 -13 -11 -37l-56 -110q-11 -20 -19 -28q-9 -9 -28 -9q-17 0 -28 11q-12 11 -12 27q0 13 11 37z" />
<glyph unicode="&#x201c;" horiz-adv-x="336" d="M30 571l56 110q11 19 19 28q9 9 28 9q18 0 29 -10q11 -11 11 -28q0 -13 -11 -37l-56 -110q-10 -19 -19 -28t-28 -9q-17 0 -28 11q-12 11 -12 27q0 13 11 37zM172 571l56 110q10 19 19 28q10 9 29 9q18 0 29 -10q11 -11 11 -28q0 -13 -11 -37l-57 -110q-10 -19 -19 -28 t-28 -9q-17 0 -28 11q-12 11 -12 27q0 13 11 37z" />
<glyph unicode="&#x201d;" horiz-adv-x="336" d="M30 571l56 110q11 19 19 28q9 9 28 9q18 0 29 -10q11 -11 11 -28q0 -13 -11 -37l-56 -110q-10 -19 -19 -28t-28 -9q-17 0 -28 11q-12 11 -12 27q0 13 11 37zM172 571l56 110q10 19 19 28q10 9 29 9q18 0 29 -10q11 -11 11 -28q0 -13 -11 -37l-57 -110q-10 -19 -19 -28 t-28 -9q-17 0 -28 11q-12 11 -12 27q0 13 11 37z" />
<glyph unicode="&#x201e;" horiz-adv-x="336" d="M30 -51l56 110q10 19 19 28t28 9q18 0 29 -10q11 -11 11 -28q0 -13 -11 -37l-56 -110q-10 -20 -19 -28q-9 -9 -28 -9q-17 0 -28 11q-12 11 -12 27q0 13 11 37zM172 -51l56 110q10 19 19 28q11 9 29 9t29 -10q11 -11 11 -28q0 -13 -11 -37l-57 -110q-10 -20 -19 -28 q-9 -9 -28 -9q-17 0 -28 11q-12 11 -12 27q0 13 11 37z" />
<glyph unicode="&#x2020;" horiz-adv-x="615" d="M266 470v205q0 43 41 43q20 0 31 -11q10 -11 10 -32v-205h195q43 0 43 -41q0 -19 -11 -30q-13 -11 -32 -11h-195v-561q0 -43 -41 -43q-19 0 -30 12q-11 11 -11 31v561h-196q-43 0 -43 41q0 21 12 31q10 10 31 10h196z" />
<glyph unicode="&#x2021;" horiz-adv-x="615" d="M266 94v314h-196q-43 0 -43 41q0 21 12 31q10 10 31 10h196v185q0 43 41 43q20 0 31 -11q10 -11 10 -32v-185h195q43 0 43 -41q0 -19 -11 -30q-13 -11 -32 -11h-195v-314h195q43 0 43 -41q0 -19 -11 -30q-13 -11 -32 -11h-195v-185q0 -43 -41 -43q-19 0 -30 12 q-11 11 -11 31v185h-196q-43 0 -43 41q0 21 12 31q10 10 31 10h196z" />
<glyph unicode="&#x2022;" horiz-adv-x="502" d="M250 534q75 0 127 -52t52 -126t-52 -126t-127 -52q-74 0 -126 52t-52 126t52 126t126 52z" />
<glyph unicode="&#x2026;" horiz-adv-x="1005" d="M835 96q21 0 36 -15t15 -36t-15 -36t-36 -15t-36 15t-15 36t15 36t36 15zM501 96q21 0 36 -15t15 -36t-15 -36t-36 -15t-36 15t-15 36t15 36t36 15zM167 96q21 0 36 -15t15 -36t-15 -36t-36 -15t-36 15t-15 36t15 36t36 15z" />
<glyph unicode="&#x2030;" horiz-adv-x="1098" d="M983 163q0 47 -21 81t-65 34t-65 -34t-21 -81q0 -46 21 -80q21 -35 65 -35t65 34t21 81zM744 163q0 71 41 121q41 48 112 48q72 0 112 -49t40 -120q0 -73 -40 -120q-40 -49 -112 -49q-70 0 -111 50q-42 51 -42 119zM285 549q0 47 -21 81q-22 34 -66 34t-65 -34t-21 -81 q0 -45 21 -80t65 -35t66 34q21 34 21 81zM46 549q0 72 40 121q40 48 112 48q73 0 113 -49t40 -120q0 -73 -40 -120q-40 -49 -113 -49q-70 0 -111 50t-41 119zM632 163q0 47 -21 81t-65 34t-65 -34t-21 -81q0 -46 21 -80q21 -35 65 -35t65 34t21 81zM394 163q0 72 40 121 q40 48 112 48t112 -49t40 -120q0 -73 -40 -120q-40 -49 -112 -49q-70 0 -111 50t-41 119zM211 58l267 638q13 30 35 30q15 0 26 -8q9 -9 9 -19q0 -8 -14 -45l-266 -638q-14 -30 -38 -30q-33 0 -33 27q0 7 3 15q1 5 11 30z" />
<glyph unicode="&#x2039;" horiz-adv-x="261" d="M43 268l99 178q15 26 34 26q16 0 28 -9t12 -26q0 -11 -11 -31l-83 -138l83 -138q11 -20 11 -31q0 -16 -12 -25q-13 -10 -28 -10q-19 0 -34 26z" />
<glyph unicode="&#x203a;" horiz-adv-x="261" d="M54 130l83 138l-83 138q-11 20 -11 31q0 16 13 26q12 9 27 9q19 0 34 -26l99 -178l-99 -178q-15 -26 -34 -26q-16 0 -28 9t-12 26q0 11 11 31z" />
<glyph unicode="&#x2044;" horiz-adv-x="169" d="M-32 58l193 638q9 30 25 30q39 0 15 -72l-192 -638q-9 -30 -27 -30q-19 0 -22 14.5t8 57.5z" />
<glyph unicode="&#x2122;" horiz-adv-x="995" d="M475 336v315q0 67 63 67q22 0 41 -8q17 -8 26 -31l100 -261l99 261q9 22 27 31q18 8 40 8q63 0 63 -67v-315q0 -16 -11 -27t-27 -11t-27 11t-11 27v288l-111 -289q-13 -37 -43 -37t-43 37l-108 289l-2 -288q0 -16 -11 -27t-27 -11t-27 11t-11 27zM185 341v305h-95 q-32 0 -32 33t32 33h273q32 0 32 -33t-32 -33h-95v-305q0 -43 -42 -43q-20 0 -30 12q-11 11 -11 31z" />
<glyph unicode="&#x2212;" horiz-adv-x="603" d="M511 212h-421q-43 0 -43 41t43 41h421q43 0 43 -41t-43 -41z" />
<glyph unicode="&#x25fc;" horiz-adv-x="540" d="M0 540h540v-540h-540v540z" />
<glyph unicode="&#xfb01;" horiz-adv-x="465" d="M174 456v-415q0 -47 -44 -47q-22 0 -32 13q-12 12 -12 34v415h-36q-44 0 -44 38t44 38h36v125q0 55 33 85t84 30h27q20 0 36 -10q15 -10 15 -28q0 -38 -49 -38h-22q-36 0 -36 -35v-129h55q45 0 45 -38t-45 -38h-55zM362 718q22 0 39 -15q15 -17 15 -39q0 -23 -15 -38 q-16 -16 -39 -16t-38 16q-16 15 -16 38t16 39q15 15 38 15zM406 491v-450q0 -47 -44 -47q-22 0 -32 13q-12 12 -12 34v450q0 47 44 47q21 0 33 -12q11 -14 11 -35z" />
<glyph unicode="&#xfb02;" horiz-adv-x="465" d="M406 725v-684q0 -47 -44 -47q-22 0 -32 13q-12 12 -12 34v684q0 47 44 47q21 0 33 -12q11 -14 11 -35zM174 456v-415q0 -47 -44 -47q-22 0 -32 13q-12 12 -12 34v415h-36q-44 0 -44 38t44 38h36v125q0 55 33 85t84 30h27q20 0 36 -10q15 -10 15 -28q0 -38 -49 -38h-22 q-36 0 -36 -35v-129h55q45 0 45 -38t-45 -38h-55z" />
</font>
</defs>
</svg>
