<?xml version="1.0" standalone="no"?>
<!DOCTYPE svg PUBLIC "-//W3C//DTD SVG 1.1//EN" "http://www.w3.org/Graphics/SVG/1.1/DTD/svg11.dtd" >
<svg xmlns="http://www.w3.org/2000/svg">
<metadata></metadata>
<defs>
<font id="henryhandregular" horiz-adv-x="736" >
<font-face units-per-em="1000" ascent="800" descent="-200" />
<missing-glyph horiz-adv-x="420" />
<glyph unicode=" "  horiz-adv-x="420" />
<glyph unicode="&#x09;" horiz-adv-x="420" />
<glyph unicode="&#xa0;" horiz-adv-x="420" />
<glyph unicode="!" horiz-adv-x="282" d="M285 625l-137 -403q10 -25 7.5 -34t-21.5 -42q-7 -8 -18 -10t-27 -0.5t-23 0.5q-14 10 -16 22t2.5 21.5t10.5 25t6 28.5q25 38 48 123t54 128l57 184q32 -12 57 -8q-1 -4 -4 -10l-4.5 -9t0 -7.5t8.5 -8.5zM117 21q2 -13 -5 -22t-13.5 -12.5t-22.5 -8.5t-19 -6 q-27 13 -38.5 37t8.5 46q13 4 27.5 5t29.5 -0.5t24.5 -11.5t8.5 -27z" />
<glyph unicode="&#x22;" horiz-adv-x="258" d="M44 702q0 4 1.5 7t3 4.5t5.5 2t7 0.5h8.5h8.5q9 0 15 -2.5t9 -5.5t4.5 -10t1.5 -11.5t-0.5 -15t-0.5 -16.5q0 -79 -40 -90q-23 45 -23 137zM165 702q0 5 1.5 8.5t5.5 4.5t6.5 1.5t10 0t9.5 -0.5q11 0 16 -4.5t5.5 -13t-1.5 -17.5t-4 -21.5t-2 -21.5q0 -8 1 -23t1 -22.5 t-1.5 -17.5t-7 -15.5t-14.5 -8.5q-26 53 -26 151z" />
<glyph unicode="#" horiz-adv-x="702" d="M688 519q-10 -20 -36 -24t-51.5 -0.5t-50 -8t-33.5 -44.5q1 -15 12.5 -26t24.5 -17t21.5 -17.5t4.5 -27.5q-21 -7 -32.5 -4.5t-34.5 10.5t-36 9q-22 -5 -39 -24t-25.5 -40.5t-22.5 -41t-30 -24.5t-48 8q-23 22 -0.5 54t54.5 53v15q-28 9 -70.5 -21t-57.5 -34 q-7 -3 -21 -11.5t-22 -12.5t-23 -6t-25 8q-4 9 -2 19.5t7 19t1.5 15t-17.5 8.5l6 15q-52 26 -108 19q-15 6 -16 23.5t7 25.5q23 10 50 7.5t57.5 -4t57.5 -1t49.5 18t33.5 52.5q-12 5 -40 7t-45 9t-18 27q21 17 55.5 18t61.5 -3t48.5 12.5t24.5 61.5h55q15 -33 -7 -55 q6 -25 31 -32.5t52 -1t46 19.5q16 7 23.5 18t9 20t10 19t25.5 17q5 -1 18 -2t21 -2.5t18.5 -5.5t10 -11t-4.5 -19q-18 -4 -35.5 -18.5t-19.5 -29.5q8 -9 38 -16t37 -24zM483 505q-33 -5 -66 0t-62 -7t-37 -48q22 -9 41 -10t36.5 6.5t29 14.5t30 22t28.5 22z" />
<glyph unicode="$" horiz-adv-x="437" d="M414 525q-26 -24 -61.5 -31t-65.5 6q-62 -80 -73 -148q14 -11 53.5 -20.5t54.5 -31.5q12 -33 -8.5 -61t-53.5 -41l-100 -39q-18 -28 -33.5 -61.5t-32.5 -77.5t-26 -65q-24 -15 -62 10q6 14 35 69t38 89l-11 11t-11 10.5t-7 11.5t-3 17q7 15 20 19t24.5 1t22.5 2.5 t15 23.5l20 81q-9 10 -37.5 27t-44.5 35t-13 44q12 38 44.5 63t66.5 37t66.5 37t44.5 63q11 13 28 52.5t38.5 64.5t56.5 25l4 -5q-65 -119 -102 -174q8 -11 28.5 -11t42 6t34.5 -2.5t8 -36.5zM199 467q-27 0 -54.5 -20t-32.5 -45q2 -1 13.5 -9t16.5 -10.5t14.5 -6t17.5 -3.5 q2 9 9.5 30t11.5 36.5t4 27.5zM256 271q-26 18 -57 15l-18 -61q21 3 42 16.5t33 29.5z" />
<glyph unicode="%" horiz-adv-x="773" d="M787 674q-67 -65 -176.5 -158.5t-205.5 -180t-164 -167.5q-27 -22 -74.5 -71t-88 -80t-87.5 -44q-10 33 9 60.5t47.5 43.5t58 40.5t36.5 50.5q21 29 53.5 56.5t60 45.5t56 45.5t44.5 58.5q-14 4 -62.5 5t-78 15.5t-37.5 54.5q4 23 13.5 42.5t28 35t33 26t43.5 21.5 t42.5 16t46 14.5t40.5 11.5q7 -7 16.5 -23.5t21 -27t30.5 -11.5q10 -5 4 -16.5t4 -18.5q17 -11 34.5 12.5t33.5 22.5q20 14 58.5 52.5t76 64t79.5 29.5zM737 330q16 -20 13 -38.5t-11.5 -32t-28 -26.5t-36 -22t-34.5 -18q-9 -4 -13 -6q-18 -21 -60.5 -22t-60.5 -11 q-25 -12 -58.5 -4t-41.5 37q-7 25 13 63q41 40 92 66t110.5 32.5t115.5 -18.5zM419 512q-15 13 -35.5 12.5t-38.5 -6t-41 0.5q-3 -5 -16 -17.5t-20 -24t0 -21.5h82q6 4 27 10t32 16t10 30zM681 293q-138 10 -180 -70q49 -4 97.5 16t82.5 54z" />
<glyph unicode="&#x26;" horiz-adv-x="457" d="M422 180q-16 -21 -38 -25t-42 1.5t-45 5t-43 -14.5q-12 -16 -18.5 -45.5t-9.5 -52.5t-18 -42.5t-42 -22.5q-21 20 -23.5 47t6.5 48.5t24.5 53t20.5 47.5q-11 8 -43 6t-48 5q-10 6 -33.5 6.5t-33.5 5.5q-2 5 11 23l-4.5 4.5t-5 4.5t-4 4.5t-3 5.5l-1.5 6t1 7q15 3 40 20.5 t40 19.5q-11 10 -45 21t-48 28t2 51q19 18 53.5 29t65.5 17.5t60.5 17t46 35.5t14.5 65q12 14 26.5 49.5t32.5 57.5t48 25l24 -21l-75 -174q11 -12 30.5 -12.5t38.5 4.5t31 -2.5t7 -33.5q-39 -24 -102.5 -27t-124 -8.5t-96.5 -37.5q36 -12 82 -17t102.5 -7t77.5 -4 q-8 -32 -34.5 -48t-56 -19t-66 -10.5t-57.5 -22.5q31 -19 76.5 -23.5t83.5 -1.5t83 -3q19 0 28 -12.5t4 -33.5z" />
<glyph unicode="'" horiz-adv-x="154" d="M67 565l-3 6q-20 39 -20 131q0 4 1.5 7t3 4.5t5.5 2t7 0.5h8.5h8.5q9 0 15 -2.5t9 -5.5t4.5 -10t1.5 -11.5t-0.5 -15t-0.5 -16.5q0 -79 -40 -90z" />
<glyph unicode="(" horiz-adv-x="443" d="M469 705q4 -13 -1 -17.5t-14 -3.5t-18.5 0t-13.5 -7q-400 -308 -338 -621q37 -3 44.5 -16t-4.5 -30t-15.5 -38t11.5 -40l-40 -9q1 -2 0 -4t-3.5 -4.5t-3.5 -4.5l-42 22q-54 170 -9 340.5t180 287.5q30 17 63.5 50.5t57 60.5t59.5 49t74 25z" />
<glyph unicode=")" horiz-adv-x="353" d="M336 481q-10 -59 -29 -116t-50 -113.5t-58 -99.5t-74 -100t-74 -89t-80 -91q-9 8 -20 11.5t-17.5 4t-12.5 8t-9 23.5q59 49 112.5 107t106 131.5t84 149t46 160.5t-7.5 165q-8 33 -44.5 96.5t-43.5 100.5q29 22 57 6.5t36 -46.5q84 -165 78 -308z" />
<glyph unicode="*" horiz-adv-x="423" d="M412 540q18 -39 -53 -53q-6 -1 -17 -3l-4 -1q-5 -14 7.5 -46.5t11.5 -57t-34 -34.5q-26 7 -47.5 52.5t-34.5 58.5q-14 -11 -22.5 -37t-12 -49t-18.5 -38.5t-42 -11.5q-23 16 -24 38t10.5 40.5t19.5 41t1 37.5q-11 -7 -28.5 -29.5t-35 -33t-41.5 -0.5q-35 64 15 91l-7 7 t-6.5 7t-5 7t-2 8t1.5 10q8 23 29 26t44.5 2t35.5 13l-54 76q2 6 4.5 11t8 7.5t9 4.5t11.5 2.5t11 0.5h13h11q0 -6 3.5 -10t9 -8.5t7.5 -7.5l67 26q0 -20 20.5 -30t34.5 4q29 26 77 21q2 -15 -12.5 -28t-32 -21t-31.5 -23t-12 -33q11 -6 54.5 -12t59.5 -25z" />
<glyph unicode="+" horiz-adv-x="544" d="M507 395q-3 -10 -5.5 -29t-5.5 -28.5t-13.5 -19t-29.5 -11.5q-22 -3 -34 18.5t-28 24.5q-31 7 -49.5 3t-36 -20t-28 -33t-26.5 -35.5t-32 -26.5q15 -15 15 -44t-15 -44q-15 -24 -43.5 -20t-37.5 35q3 18 18.5 40.5t28.5 38.5t18.5 39.5t-12.5 43.5l-156 -12v35l29 -15 q13 21 39 33.5t48 15.5t58.5 6t49.5 5q-10 17 12 61.5t17 69.5q12 5 25 7.5t28 0t21 -13.5l-40 -130q22 0 49 6t45 11t42.5 3t48.5 -15z" />
<glyph unicode="," horiz-adv-x="185" d="M157 72q4 -28 -11.5 -55.5t-34.5 -44t-49.5 -39.5t-39.5 -31q-6 -4 -10.5 -4.5t-9 2.5t-6.5 5.5t-6.5 9t-6.5 8.5q6 5 17.5 14.5t18.5 15.5t18.5 16t18 17t16.5 18.5t14 19.5t11.5 20.5t7.5 22.5t2.5 24.5t-2.5 25.5q18 21 33.5 0t18.5 -45z" />
<glyph unicode="-" horiz-adv-x="493" d="M454 467q23 -25 21.5 -43.5t-15.5 -29.5l-13 -10q-68 17 -63 20l6 -1q-3 -4 -65 -4q-34 0 -75.5 -10t-71 -19t-68 -7t-75.5 21q-7 29 8.5 36.5t42 8t35.5 10.5q33 5 61 16.5t55 11.5q99 17 217 0z" />
<glyph unicode="." horiz-adv-x="131" d="M107 94q-10 -6 -12 -35t-14 -44.5t-50 -1.5q-1 5 -3.5 20t-3 23.5t0 21t6 21.5t16.5 16z" />
<glyph unicode="/" horiz-adv-x="726" d="M728 687l-10 -41q-117 -118 -350.5 -337.5t-350.5 -338.5q-18 -6 -22.5 2.5t-5 24.5t-6.5 22v19q43 39 140 127t150 136.5t131 122t144.5 141t129.5 135.5q5 -1 17 0.5t20.5 -1t12.5 -12.5z" />
<glyph unicode="0" horiz-adv-x="695" d="M636 338q-12 -25 -34.5 -50.5t-37 -38t-45.5 -37.5q-15 -41 -50.5 -66.5t-89 -48t-77.5 -38.5q-15 -6 -39.5 -18t-42 -20t-40 -14.5t-45.5 -5t-45 11.5q-40 18 -58.5 44.5t-17 60t9 62.5t21.5 68t18 61q147 210 439 334q11 17 38.5 22t54.5 -5.5t35 -33.5 q4 -20 16.5 -69.5t17.5 -78t-0.5 -69t-27.5 -71.5zM582 546q-29 9 -64 4t-61 -11t-57.5 -23t-54 -32t-51 -38.5t-49 -41t-47 -41t-45.5 -38.5q-3 -19 -16.5 -54t-23.5 -61.5t-10 -57.5t17 -53q54 -3 109.5 12t94.5 34t92.5 59.5t78.5 62.5t78 71q3 14 11.5 52.5t10.5 55.5 t0 46t-13 54z" />
<glyph unicode="1" horiz-adv-x="450" d="M412 594q-44 -75 -144.5 -281t-173.5 -314h-37q5 15 0 29t-13.5 18.5t-17.5 -0.5q18 32 57 99t62 107.5t52.5 100.5t48.5 113q-6 1 -16.5 2.5t-14 2.5t-10 4.5t-10.5 10t-9 17.5q23 9 47 35t39.5 51t38.5 48.5t44.5 27.5t56.5 -12v-59z" />
<glyph unicode="2" horiz-adv-x="796" d="M760 101q-69 -15 -141 0q-68 -15 -270 -43.5t-285 -58.5q8 3 9.5 9t0 15t-0.5 13l-33 16q56 58 138 118t150 102.5t145.5 104t129.5 126.5l16 77q-35 15 -81.5 11t-80 -14t-81 -21t-84.5 -11q-5 5 -7.5 12t-2.5 12.5t0.5 15.5t0.5 13q25 5 72 19.5t84 26.5t84 19 t81.5 2.5t66 -27t47.5 -65.5q-20 -73 -73.5 -138t-109.5 -105.5t-130 -94t-113 -92.5q199 5 384 52q9 -7 30.5 -19t32.5 -19.5t18.5 -22.5t2.5 -33z" />
<glyph unicode="3" horiz-adv-x="652" d="M610 315q-36 -76 -95.5 -134.5t-134.5 -93.5t-152 -55t-164 -28q-41 36 -33 69q365 36 504 254q-1 37 -21 51t-44 11.5t-59.5 -9t-52.5 -5.5l-103 -42q-7 3 -3.5 13t0.5 18.5t-20 4.5l-17 13q27 26 72.5 48t84 36t77.5 43t60 70q-24 20 -58 23t-63 -5t-68.5 -18 t-64.5 -11q-17 -3 -44 -16t-47 -23.5t-43.5 -10t-39.5 18.5q-3 15 4 26.5t16 17t24.5 12.5t20.5 10q259 85 439 66l25 -83l-67 -120q27 1 43 -8.5t21 -29t6 -35t-1 -42.5t-2 -36z" />
<glyph unicode="4" horiz-adv-x="538" d="M506 795q1 -50 -13.5 -108t-31 -97.5t-48 -107t-44.5 -98.5q25 -6 67.5 -6t62.5 -7q-7 -13 -6 -35.5t-6.5 -32t-35.5 -7.5q-8 1 -41 9.5t-55 4.5q-35 -77 -51 -115.5t-35.5 -105t-22.5 -120.5q-7 -2 -20.5 -10t-23 -12.5t-20 -2t-17.5 15.5l-16 14q19 36 35.5 93.5 t36 107.5t51.5 87l-13 55q-7 -1 -30.5 -5t-34.5 -6t-34 -4.5t-35.5 -2t-31 2.5t-30.5 7t-24 14t-19 22q30 46 123.5 124t128.5 125q3 1 11 5t11 5t10 3.5t12 3t11.5 0.5t13.5 -1l7 -41q-12 -28 -38.5 -53.5t-52.5 -42t-55.5 -40.5t-44.5 -49q15 -11 37 -13.5t42 0.5t43 0 q46 66 96.5 210.5t75.5 193.5q12 10 20.5 6.5t18.5 -2.5t16 16z" />
<glyph unicode="5" horiz-adv-x="686" d="M730 655q-8 -23 -32.5 -33t-61.5 -15t-53 -12q-34 -22 -105.5 -37.5t-94.5 -24.5q-17 -24 -48 -34l-82 -97q32 -15 94.5 -26t113 -28.5t79.5 -53.5q9 -58 -12 -113t-77 -77q-246 -129 -428 -110q-19 65 5 102l55 28l14 -67q49 5 83 9.5t81.5 16.5t82 28t69.5 44t58 65 q19 50 -59 74l-239 20q-19 17 -20.5 38t12 43.5t30 42.5t37 43.5t29.5 37.5q64 36 135.5 62.5t178 58t144.5 44.5z" />
<glyph unicode="6" horiz-adv-x="534" d="M485 140q-83 -63 -186.5 -99t-208.5 -39q-32 25 -46 55.5t-10 65.5t13 64.5t23.5 69.5t19.5 64q30 63 77.5 120t107.5 117.5t92 102.5q22 16 30 12t6.5 -15t0.5 -24.5t12 -16.5q-17 -19 -65 -70t-76 -82t-63 -79t-55 -90l6 -8q208 88 322 0q17 -18 18.5 -48.5t-3.5 -49 t-15 -50.5zM422 208q-4 15 -12.5 26.5t-17.5 17.5t-25 10.5t-25.5 6t-29 3.5t-26.5 3q-25 3 -40 -7t-20 -24t-17 -28t-31 -17q-12 4 -21 4.5t-15.5 -3t-11.5 -7t-7.5 -13t-4.5 -15t-2.5 -18.5t-0.5 -19v-20v-18q11 -19 28 -19.5t38.5 6t35.5 1.5q18 17 55 28t67.5 17.5 t55.5 27.5t27 57z" />
<glyph unicode="7" horiz-adv-x="504" d="M500 648q-4 -38 -31 -69.5t-62 -64.5t-49 -63l-233 -355q12 -25 11.5 -38.5t-14.5 -26t-29 -20t-32 -20t-24 -26.5h-29q19 13 10.5 31.5t-23.5 18.5q22 33 152 241.5t216 312.5q-29 16 -66.5 14.5t-68.5 -11.5t-68.5 -8t-68.5 25l29 25q287 40 366 56z" />
<glyph unicode="8" horiz-adv-x="649" d="M621 375q-10 -112 -76 -195.5t-182 -124.5q-4 -2 -34.5 -12.5t-38 -13t-35 -11t-38.5 -9t-34.5 -4t-38 0.5t-34 8.5t-35.5 15t-32 25.5q-17 25 -22 50.5t3.5 52t18 45.5t28 49.5t26.5 46.5q48 21 76.5 55t37 66.5t23 80.5t32.5 81q21 29 58.5 40t72 9t73.5 7t62 35 q16 -4 30.5 -0.5t29.5 -0.5t22 -21q0 -24 -7 -45t-26 -46.5t-27.5 -35.5t-37.5 -41q19 -3 33 -9.5t25 -19t16.5 -21.5t15.5 -29t15 -29zM539 613q-17 -4 -51.5 -11.5t-56.5 -12t-51.5 -15.5t-48.5 -23.5t-35.5 -34t-23.5 -49.5q12 3 28.5 -2.5t24.5 -4.5q6 2 35.5 10.5 t41.5 13t37.5 14.5t38.5 20t29 24t23.5 32t8.5 39zM554 367q0 29 -18.5 38t-48 10t-41.5 7q-9 -5 -32.5 -13t-37 -18.5t-22.5 -31.5q-12 16 -25 16.5t-23 -8t-24 -16t-26 -5.5q-11 -20 -34.5 -44t-43.5 -42.5t-40 -45t-24 -49.5t6 -58q71 -34 146 -5q10 4 36.5 14t39.5 15.5 t38 16.5t39 19t35 21.5t33 25.5t26.5 29.5t22 35.5t13 40.5t5.5 47.5z" />
<glyph unicode="9" horiz-adv-x="504" d="M461 647q7 -17 7.5 -37.5t-2 -36.5t-10 -39t-13 -36t-16.5 -36q-38 -60 -101 -145t-114 -161t-86 -152q-6 -4 -18 -18t-24 -22t-26 -5q7 15 -5.5 26t-28.5 14q181 251 287 360l14 68q-21 -5 -54 -15t-57 -16.5t-54.5 -12.5t-61 -5t-60.5 9q-11 33 -12 57t12.5 47t30.5 39 t41.5 33.5t46.5 31t44.5 31.5t35.5 34q9 3 30 11t34.5 12t32.5 8t37 3t36 -8q-3 -17 2.5 -22.5t14 -3.5t19.5 0t18 -13zM393 584q-48 34 -101.5 21.5t-99.5 -54t-71 -95.5q40 -8 89.5 6.5t92.5 29t71 4.5z" />
<glyph unicode=":" horiz-adv-x="266" d="M220 334q-9 -18 -30.5 -23.5t-38.5 3.5q-26 16 -19.5 35t23.5 33.5t34 21.5q25 -2 33.5 -26.5t-2.5 -43.5zM132 68q-1 -8 0.5 -10.5t-3 -9t-5.5 -7.5l-7 -7l-7 -7q-29 3 -49 16.5t-17 42.5q-3 16 5 28.5t13.5 16t23.5 14.5q25 5 34 -7t9.5 -38.5t2.5 -31.5z" />
<glyph unicode=";" horiz-adv-x="215" d="M135 133q0 -26 -12 -60t-8 -63q-13 -12 -23 -47.5t-25 -54.5t-48 -8q-20 19 -22.5 35.5t8 30t24 26.5t25 29.5t11.5 33.5q7 19 7 41.5t-3 42t8.5 31.5t43.5 10zM187 425q-20 -57 -66 -96q-2 2 -10.5 8.5t-12.5 10t-11 10.5t-10 12.5t-5.5 12.5t-0.5 14.5t7 15.5 q20 28 53.5 31t55.5 -19z" />
<glyph unicode="=" horiz-adv-x="487" d="M442 412q-19 -10 -14 -23t3 -23t-24 -9q-42 21 -140.5 19.5t-145.5 15.5q2 2 5 17.5t11 24.5t24 3q35 -12 76 -9.5t76 11.5t70.5 4t58.5 -31zM434 187q2 -15 -2.5 -25t-17.5 -5q-31 20 -73 22.5t-82.5 -5t-81.5 -14t-81.5 -1.5t-71.5 28q5 19 22.5 25t43 8t37.5 7l14 -15 l85.5 13.5t113.5 15.5t87 5zM92 392h-20q-5 1 2 16q9 20 18 4v-20z" />
<glyph unicode="?" horiz-adv-x="514" d="M479 593q-22 -17 -8.5 -48t-6.5 -48q-20 -31 -55 -58t-71 -44t-72.5 -39t-63.5 -45t-41.5 -60.5t-8.5 -86.5q-7 -2 -17.5 -7t-19.5 -7.5t-19 -0.5q-6 6 -10 14.5t-6 15t-3 18t-1 16.5v18v15q10 40 38.5 76t73.5 65.5t81 48.5t87 41q4 5 21 26t24.5 33t8.5 32.5t-14 38.5 q-19 13 -44.5 14t-47 -5t-50.5 -14t-48 -9q-18 -10 -48 -35.5t-57.5 -40.5t-59.5 -12q-13 31 6.5 53.5t62 43.5t53.5 30q21 3 56 13t63.5 18.5t62 12.5t58 -0.5t45.5 -25t31 -57.5zM124 14q-21 -25 -50.5 -22.5t-37.5 35.5q-5 19 5 28t29 14t26 12q33 -2 28 -67z" />
<glyph unicode="@" horiz-adv-x="843" d="M792 432q-3 -8 -15 -35.5t-17.5 -39t-17.5 -35.5t-22 -37t-24.5 -30t-31 -28.5t-35.5 -18.5q-125 -50 -193 -9q-18 26 -49.5 27.5t-63.5 -13.5t-65.5 -28t-55 -15.5t-32.5 24t2 89.5q50 87 141.5 148t185.5 58l11 -12q-11 -18 -3 -30t19.5 -25.5t8.5 -20.5 q-2 -16 -16.5 -40.5t-25.5 -43t-7.5 -38.5t31.5 -33q104 9 175 110q1 20 11 47.5t17.5 46.5t9.5 46.5t-13 47.5q-26 44 -74.5 61t-102.5 10q-66 -17 -124 -38.5t-119.5 -56t-107.5 -75.5t-80 -99.5t-44 -125.5q-10 -35 -1 -74t33 -71q64 -24 142.5 -24t151 18.5t138.5 50.5 q1 -2 2.5 -7.5t2 -8t2 -7.5t1.5 -8v-7t-1.5 -6.5t-3.5 -5t-6 -4t-9 -1.5q-100 -53 -224 -63.5t-241 36.5q-37 27 -42 70.5t4.5 99.5t6.5 81q15 18 30.5 56t35 64.5t54.5 35.5l-8 19q61 46 112 79t119.5 66t128 47t128 8.5t129.5 -36.5q23 -27 36.5 -58t17.5 -68t-12 -70z M428 409q-60 -2 -102 -43.5t-78 -107.5q61 8 94 25q25 20 33 26.5t27.5 26t25 37t0.5 36.5z" />
<glyph unicode="A" horiz-adv-x="615" d="M588 64q2 -19 -8 -35.5t-28 -24.5q-37 3 -56 38q-6 9 -14 33q-1 2 -5 15t-7 19q-6 19 -11 30t-14 19t-22.5 5t-31.5 -16q-33 2 -70 0.5t-70.5 -5t-65.5 -16t-55 -33.5q-9 -7 -16 -26q-2 -6 -4.5 -18.5l-3.5 -17.5q-6 -20 -19 -27.5t-41 0.5q-30 15 -22 46q2 11 10 26 q9 17 10 22q31 81 119 272.5t126 300.5q21 15 41.5 11.5t32.5 -18.5q30 -64 56 -154q8 -30 22 -86t17 -69q48 -190 130 -291zM417 225l-93 306q-46 -59 -88 -157q-10 -25 -32.5 -83t-35.5 -87q8 2 54 12.5t71 14.5q75 10 124 -6z" />
<glyph unicode="B" horiz-adv-x="719" d="M681 342q-9 -19 -32 -52t-35 -63q-164 -153 -373 -221q-26 -5 -41.5 7.5t-20 30.5t-14.5 40t-25 31q-7 22 1 48.5t19 45.5t8.5 41.5t-28.5 41.5q25 23 32 57.5t2 65t-4.5 69t15.5 64.5q-17 6 -36.5 0t-50.5 -23.5t-38 -20.5q-6 1 -9.5 -0.5t-7.5 2.5t-6 5t-4.5 7 t-3.5 7.5t-3.5 7.5t-2.5 7q19 28 52.5 48t60.5 28.5t77 21t73 19.5q208 43 285 -34q6 -32 -9.5 -60.5t-49 -62.5t-40.5 -44q18 -10 50 -12.5t60 -3t53.5 -7t38 -29t7.5 -62.5zM451 548v38q-33 3 -91.5 -6.5t-73.5 -10.5q-29 -12 -39.5 -36t-7.5 -49.5t2.5 -54.5t-8.5 -50 q155 91 218 169zM571 351q-58 15 -113 3t-134.5 -50t-103.5 -47q-3 -34 0 -47.5t14.5 -40t14.5 -37.5q103 11 190 69.5t132 149.5z" />
<glyph unicode="C" horiz-adv-x="762" d="M720 225q-36 -19 -95.5 -58t-104 -68t-105.5 -56.5t-111.5 -36.5t-109.5 4.5t-112 55.5q-2 4 -19.5 35t-21.5 42.5t-12 37t-4.5 45.5t15.5 41q24 -9 30 4t3 42t-1 38q18 22 51.5 66t57.5 75t61 69.5t70.5 61t77.5 36.5t89 10q1 -17 12.5 -25.5t25 -10.5t24.5 -9t11 -21 q-14 -9 -24 -26.5t-14.5 -35.5t-11.5 -35t-15 -26.5t-25.5 -9t-43.5 15.5q-9 8 -7.5 35t-15.5 31q-78 -48 -152 -120.5t-119 -148.5q-20 -34 -22 -71.5t19 -69.5t62 -43q68 -6 141 17.5t126.5 56.5t124 75t120.5 61q28 -6 33 -35.5t-8 -48.5z" />
<glyph unicode="D" horiz-adv-x="695" d="M643 310q-209 -244 -468 -315q-21 22 -32.5 44.5t-12.5 51t1 47.5t9 55.5t9 53.5q18 19 20.5 51.5t-1.5 62t7 65.5q-8 12 1 36t14.5 43t-15.5 44q-15 5 -37.5 -4t-40.5 -19t-38 -6.5t-33 29.5q-6 30 51 63q7 -4 24 -1t20.5 1.5t18 4.5t17 6.5t18.5 8.5t21 10 q12 18 36 20.5t46.5 -4.5t52 -15.5t45.5 -9.5q161 27 260 -144q43 -75 7 -179zM555 354q35 34 -11 108q-32 75 -110.5 102t-164.5 6q-7 -25 -12.5 -54t-9.5 -52t-8 -61.5t-6 -56.5t-4.5 -63t-3 -56.5t-3 -62t-2.5 -55.5q98 34 186 97t149 148z" />
<glyph unicode="E" horiz-adv-x="642" d="M634 180l-50 -53q-17 -2 -71 -9t-79.5 -11.5t-67.5 -12.5t-74.5 -19t-61.5 -26q-25 12 -43.5 9t-28 -15.5t-22.5 -24.5t-26.5 -16.5t-38.5 8.5q-15 25 -11.5 60t16 65t11.5 64t-25 58q20 28 28.5 62.5t12 82.5t6.5 67q-8 7 -38.5 9.5t-37.5 23.5q-2 37 17.5 52.5 t45.5 13.5t55 4.5t41 27.5q34 5 108.5 27.5t121.5 20.5q18 24 43 21.5t45.5 -15.5t34.5 -31l-10 -38q-19 -3 -67 -8.5t-74 -10t-64.5 -12.5t-69.5 -21t-58 -31q-2 -13 -19 -61.5t-19 -76.5q37 0 133 20t172 9l22 -29q-21 -24 -60 -37t-78.5 -15.5t-80.5 -10t-70.5 -20 t-45 -45t-7.5 -84.5l5 -16q89 23 248.5 44.5t209.5 31.5z" />
<glyph unicode="F" horiz-adv-x="655" d="M640 649q-3 -6 -10.5 -25t-11.5 -26t-15.5 -16.5t-28.5 -11.5q-35 16 -71 19.5t-65.5 -1t-66 -19.5t-60 -28.5t-60.5 -35t-57 -31.5q-9 -14 -16 -55.5t-7 -63.5q30 -1 74 16.5t82 36t77 30t72.5 -3t54.5 -62.5q-41 -17 -144.5 -33.5t-157.5 -44.5q-41 -21 -64 -43.5 t-31 -58.5q-14 -29 -1 -84.5t-4 -86.5l-50 -27q-23 14 -31 41t-6 50.5t10 57.5q3 5 10 14.5t11 15.5t9 16.5t4 18t-4 20.5q-32 5 -48.5 28.5t9.5 47.5q22 -3 34 9t21 40.5t12 34.5q-4 13 -1 25t0 24.5t-17 18.5q-3 -8 -9 -10t-11 -0.5t-11 -0.5q-2 5 -8 15.5t-8.5 16t-2 14 t7.5 14.5q25 -2 47 10.5t37 30t34 34.5t37.5 23.5t48.5 -2.5q35 1 80 18t83 35.5t77.5 32t77 5.5t68.5 -43z" />
<glyph unicode="G" horiz-adv-x="739" d="M688 401q12 -51 -16.5 -145t-16.5 -153q12 -24 8.5 -36t-16.5 -32t-15 -31q-65 -6 -84 44v67q-35 5 -77 -4t-64 -18.5t-75.5 -37t-63.5 -32.5q-19 -4 -36.5 -4.5t-34 4t-29.5 9.5t-27.5 15.5t-24.5 18t-24 22.5t-20.5 23t-21 25t-19.5 23q2 106 63 210t156 172 q118 84 183 108q134 52 193 -48l-11 -68q-25 -1 -58 8.5t-56.5 16.5t-61 0t-79.5 -35q-13 -9 -27 -20t-25.5 -20.5t-27 -24.5t-24.5 -24t-25.5 -28t-23.5 -26.5t-25 -29t-22 -27t-23.5 -29t-21.5 -26.5q-24 -44 9.5 -94.5t81.5 -72.5q27 8 86 24t95 27.5t81 30t75 44.5 t47 59q-10 13 -24.5 11t-26 -10t-28 -15t-30.5 -4q-23 5 -61 -4t-60 -4v51q39 6 84.5 25t78.5 36.5t77.5 27t87.5 1.5z" />
<glyph unicode="H" horiz-adv-x="568" d="M577 684q-17 -55 -67.5 -161t-66.5 -153q2 -4 20.5 -22.5t12.5 -33.5q-35 -26 -48.5 -69.5t-12 -84t-7.5 -89t-36 -80.5q-9 -3 -16.5 -3.5t-13 0.5t-12 5.5t-9.5 7t-8.5 10.5t-7 11t-6.5 12.5t-6 11.5l65 212q-21 12 -48.5 8.5t-48 -12.5t-49 -18.5t-50.5 -9.5 q-30 -16 -34 -51.5t5 -72t13 -69t-19 -47.5t-83 -3q-12 28 -14 61t4 67t14 63.5t19 65.5t16 57q9 43 11.5 54t14 54.5t18.5 62t22.5 54t30.5 55t37 41t47 33.5q5 -11 2.5 -30.5t-4.5 -32t-10.5 -32.5t-14 -32.5t-15 -32t-14.5 -30.5q1 -13 -9.5 -31t-21 -32t-10.5 -32.5 t18 -34.5q36 -4 73 5t79 25t67 21q22 229 101 331q36 7 72 -29z" />
<glyph unicode="I" horiz-adv-x="518" d="M490 602q-13 -19 -39.5 -26.5t-63 -9.5t-53.5 -7q-8 -31 -28.5 -109t-31 -119.5t-23.5 -106t-20 -118.5q10 -8 28 -19t26.5 -17t16.5 -20t8 -33q-151 -18 -279 -5q-17 67 23 68l93 2q-19 40 7 111t22 103q5 40 36 123t34 132q-14 6 -30.5 6.5t-30.5 -2t-24 6t-11 32.5 q83 85 301 63z" />
<glyph unicode="J" horiz-adv-x="484" d="M446 606q0 -20 -4.5 -62.5t-5.5 -62.5q0 -16 7 -84q4 -53 -8 -93q-17 -14 -22 -50q-5 -50 -13 -73q-8 -12 -21.5 -48t-22.5 -52q-34 -63 -96 -63q-43 -36 -105.5 -50t-123.5 5q-28 16 -11 45l13 45l10 -3q74 -22 135.5 9.5t118.5 100.5q-11 20 0 50q8 16 28 38 q-3 21 5 59q2 24 13 57q19 66 -2 105q0 18 -2 37.5t-6 44t-6 37.5q-4 30 16.5 61.5t55.5 52.5q47 -29 47 -106z" />
<glyph unicode="K" horiz-adv-x="658" d="M654 40q-12 2 -31.5 -4.5t-35.5 -13.5t-36.5 -6t-36.5 15q-50 52 -119 91t-139 76t-117 81q-20 -26 -23 -59.5t3 -63.5t9.5 -59t-7.5 -55t-44 -43q-17 1 -25 10t-15 30t-11 29q15 151 47 514q12 14 26.5 22t30 3.5t23.5 -27.5q0 -26 -6 -72t-7.5 -72t6.5 -72q36 17 72 53 t70.5 67t73.5 42q12 11 30 38t34 49.5t35 41t41.5 16t46.5 -30.5q-10 -50 -46 -88.5t-92.5 -79.5t-83.5 -71q-26 -10 -51.5 -34t-34.5 -50q44 -24 122.5 -78.5t147 -94t131.5 -53.5q1 -4 6.5 -16.5t6 -16t-0.5 -18.5z" />
<glyph unicode="L" horiz-adv-x="588" d="M565 67q-1 -2 -4.5 -6.5t-5.5 -6.5t-5.5 -6t-6.5 -5.5t-7.5 -3.5t-9 -2t-10.5 0.5t-13 3.5v16q-24 -2 -103 -6t-123 -8t-106.5 -16.5t-105.5 -31.5l-34 17q8 72 8.5 206t10.5 246t44 197q65 10 65 -38l-46 -445l13 -15q-6 -4 -6.5 -9t0.5 -12.5t0 -12.5q21 -13 35 -10 t39.5 8.5t42.5 1.5q37 -14 78 -3.5t83.5 21t77.5 16.5t59.5 -17t29.5 -79z" />
<glyph unicode="M" horiz-adv-x="750" d="M715 41q-9 -3 -20 -14t-18 -19t-18 -8t-24 15q-27 25 -33.5 66t1 79t9 81t-10.5 72q-4 14 -6.5 43t-8 50.5t-19.5 37.5q-50 -51 -108 -165.5t-90 -155.5l-63 -5q-2 6 -8.5 31t-9 32.5t-9.5 30t-11 32.5t-11.5 29t-14.5 30.5t-16 27t-19.5 27.5t-22.5 23h-7.5h-8t-7 -0.5 t-7 -2t-5.5 -4.5t-5 -7q-9 -36 -10.5 -91.5t-0.5 -98.5t-11 -91t-41 -80q-46 8 -56 33.5t4 53.5t28 63.5t10 54.5q21 25 21 81t21 84q1 13 5 36.5t7 41.5t2 41.5t-8 42.5q10 2 22.5 18.5t21 30.5t23.5 17t30 -23q-6 -40 9.5 -80t38.5 -69t50 -68.5t39 -70.5 q48 44 118.5 156.5t104.5 151.5q1 6 0 9t2 8.5t4 8t6 7t7 7t7.5 6.5t7.5 5.5t7.5 5.5t7.5 5q60 -18 34 -97q14 -72 19.5 -134t8.5 -149.5t6 -139.5q27 -16 35.5 -45t-9.5 -57z" />
<glyph unicode="N" horiz-adv-x="568" d="M528 570q5 -53 -20 -143.5t-10 -147.5q-16 -13 -19.5 -24.5t0.5 -31.5t4 -30q-6 -20 -10.5 -60t-14 -70t-31.5 -53l-50 5q-47 65 -110.5 207t-106.5 202q-51 -215 -51 -332q29 -42 0 -82q-7 -2 -17.5 -9.5t-18 -13t-17.5 -4.5t-18 13q-7 35 -2.5 89t11.5 91t17 92t14 92 q0 8 -0.5 43.5t0 51t3 44t10 50.5t18.5 41q-5 5 -6 11t0.5 10.5t6 12.5t5.5 10q9 11 28 12.5t31 -6.5q13 -47 29.5 -93.5t41 -100.5t39 -84.5t48.5 -98t45 -89.5q15 -1 20 10t4 25.5t1.5 31t12.5 24.5q-2 76 22.5 221t27.5 175l51 36q27 -10 31 -31.5t-7 -55.5t-12 -40z" />
<glyph unicode="O" horiz-adv-x="652" d="M610 357q15 -43 5.5 -83t-36 -75.5t-57 -61t-57 -39t-36.5 -10.5q-27 -20 -92 -37.5t-91 -36.5q-60 10 -116.5 49.5t-84.5 92.5q-26 88 -13.5 166.5t58.5 137.5q32 41 75 78.5t98.5 66t110.5 37.5t112.5 -13.5t103.5 -80.5q27 -47 33 -97t-13 -94zM530 382l-27 151 q-35 23 -65.5 27.5t-50 -5t-42 -18.5t-42 -13t-49.5 11l-42.5 -42.5t-40.5 -45t-41.5 -55t-26.5 -55.5t-14 -63q7 -14 17.5 -53.5t26 -63.5t45.5 -34q75 -48 227 22q-11 20 10 37.5t47 25.5l27 7q18 9 27.5 31t11 40t2 52.5t0.5 43.5z" />
<glyph unicode="P" horiz-adv-x="541" d="M522 521q-41 -65 -107 -114t-155 -97.5t-127 -75.5q-1 -18 -4.5 -51.5t-6 -58.5t-1.5 -56.5t7 -54.5q-5 -12 -20 -12.5t-22 6.5l-36 35q5 39 31.5 210t33.5 276q-15 6 -32 0.5t-33 0t-20 30.5q15 26 68 40.5t72 35.5q29 -4 92.5 15t104.5 10q-1 -4 1 -7.5t6 -6.5t6 -6 q7 -1 35 -1t48.5 -3.5t36.5 -12.5q32 -35 22 -102zM433 559q-140 44 -232 -9q-3 -22 -20.5 -93t-17.5 -108q25 17 73 43t80.5 45t66.5 51.5t50 70.5z" />
<glyph unicode="Q" horiz-adv-x="672" d="M627 -48l-63 -59q-21 8 -34 27.5t-17.5 38.5t-16 39.5t-28.5 31.5q-4 56 -47 75q-30 -21 -97 -38.5t-95 -36.5q-59 11 -111.5 50.5t-74.5 92.5q-18 85 2.5 165t72.5 139q36 41 82.5 78.5t104.5 66t114 37t111.5 -13.5t96.5 -80q22 -47 23 -97t-23 -96q12 -37 -8.5 -72.5 t-50.5 -62t-54 -54t-16.5 -61.5t58.5 -72zM548 399l-10 151q-26 13 -55.5 9.5t-53 -16.5t-51.5 -24t-51 -14.5t-52 12.5q-11 -10 -43 -36.5t-47.5 -41.5t-37.5 -40t-33.5 -51.5t-15.5 -56.5q5 -15 12.5 -55t20.5 -63.5t41 -33.5q19 -13 41 -15.5t45 5.5t41.5 17t42 22 t36.5 19q-1 2 -7 15.5t-7.5 17t-6 16t-4.5 17.5t-1.5 15.5t1 16.5t6 14t10.5 14t17 11l82 -68q64 30 80 143z" />
<glyph unicode="R" horiz-adv-x="750" d="M666 108q18 -53 -9 -74q-50 -38 -71 -15q2 22 -11 33t-32.5 18.5t-26.5 19.5l-317 113q-25 -21 -27 -53t8 -59t5.5 -54.5t-33.5 -41.5l-62 19l13 97q13 6 27 28q-21 11 -26 31t0 38t1 37t-23 30q-5 30 9 59t22 44t-8 52q3 7 5 18.5t2 20.5t-0.5 23.5t-0.5 18.5 q-8 5 -24 9t-27.5 6.5t-23 9.5t-10.5 17.5t10 29.5q102 52 193 62t166.5 -10.5t186.5 -71.5q18 -13 21 -31t-0.5 -29t-17.5 -36t-16 -28q-90 -78 -144 -100.5t-188 -46.5q50 -36 126 -68t167 -64t136 -52zM526 512q-107 52 -172.5 59t-170.5 -24q-9 -11 -9 -62t4 -96l5 -45 q39 12 85.5 21.5t72.5 15.5t58 20t62 40.5t65 70.5z" />
<glyph unicode="S" horiz-adv-x="605" d="M582 240v-17v-20t-1 -18.5t-3.5 -20.5t-6.5 -17.5t-11 -18t-16 -13.5q-91 -62 -195.5 -90t-206.5 -4q-12 14 -15.5 29.5t6.5 28.5q23 21 46 22t53.5 -5.5t56.5 -1.5q3 1 26.5 6t29 6.5t26 6.5t28 8.5t24.5 10.5t26.5 13.5t21.5 16.5t22 21q-35 40 -97 60t-121.5 27.5 t-116.5 22t-95 56.5t-44 117q27 57 74.5 98.5t107.5 41.5q-2 21 8 27t24 2.5t28 1t18 21.5q30 -6 58.5 -2t51 11.5t47.5 3t47 -27.5l16 -52q-6 -19 -15.5 -30.5t-27.5 -16t-29 -5t-39 -0.5q6 37 -50 52q-177 -45 -227 -137q11 -32 40.5 -50t73.5 -33t64 -27q25 -7 74 -12.5 t83.5 -10.5t73.5 -25.5t62 -55.5z" />
<glyph unicode="T" d="M727 645q-7 -8 -27.5 -35t-36 -37.5t-35.5 -4.5q-32 27 -64.5 31.5t-52.5 -3.5t-59.5 -30.5t-60.5 -31.5q0 -62 -9 -138t-17 -127.5t-10 -128t12 -138.5q-15 5 -27.5 -1t-19 -14.5t-19 -11t-26.5 9.5l-13 38l45 487q-27 12 -54.5 12.5t-54 -8t-50.5 -19t-53.5 -22.5 t-52.5 -17q-23 13 -23 30t11.5 39.5t11.5 34.5l265 44q-3 24 8.5 34t29 7.5t35 -3.5t26.5 2q10 2 50.5 10t51 10t41.5 9.5t47 14t41.5 17.5t50.5 24q32 -2 42.5 -29.5t-3.5 -54.5z" />
<glyph unicode="U" horiz-adv-x="602" d="M563 705q7 -35 8 -72t0.5 -67t-12 -72t-16.5 -65t-25.5 -69.5t-27.5 -63.5t-34 -68.5t-33 -62t-36 -65.5q-18 -9 -41.5 -26.5t-42 -33t-43 -30.5t-46 -23t-48 -6.5t-52.5 15.5q-1 12 -15 26t-26 23.5t-15 25t19 29.5q-22 9 -32 24.5t-11 30t-2 40t-5 42.5q23 15 17.5 25 t-15.5 25.5t-2 25.5q-7 157 87 321q18 3 42.5 -3t40.5 -19q-7 -14 -33.5 -83t-43.5 -92q10 -20 -1.5 -68.5t-4.5 -68.5q-13 -46 -7.5 -97.5t20.5 -92.5q10 -26 33.5 -35t46.5 -3t34 21q125 90 185.5 233t43.5 302l-23 16q14 33 47.5 58t68.5 3z" />
<glyph unicode="V" horiz-adv-x="608" d="M583 644q-64 -146 -219 -328q-14 -50 -62 -154t-63 -161q-8 -2 -23 -7t-22 -6t-18 2.5t-22 15.5q-1 27 -18 103.5t-8 114.5q-49 150 -99 420q4 10 10.5 16t12 8.5t15.5 1.5t15 -2.5t16.5 -5.5t14.5 -5q12 -61 21 -154.5t22.5 -169t42.5 -146.5q48 72 154 237t172 263 q10 3 19.5 -1.5t15 -10.5t13 -17t10.5 -14z" />
<glyph unicode="W" horiz-adv-x="897" d="M887 652q-8 -56 -33.5 -118.5t-52 -109.5t-54.5 -109t-40 -116q-15 -8 -30.5 -36.5t-26.5 -51.5t-34.5 -37.5t-53.5 4.5q-22 17 -28.5 45t-13 53t-29.5 39q3 25 -4.5 44t-20.5 40.5t-19 38.5q-80 -76 -105 -189q-24 -9 -36.5 -32.5t-23 -49.5t-29.5 -38l5 -10 q-7 0 -15.5 -9t-14 -17t-14.5 -6.5t-19 18.5q-10 82 -50.5 218.5t-48.5 171.5q-6 23 -23.5 81t-28 104.5t-11.5 87.5q48 32 76 14q-11 -19 3 -63t10 -67q21 -9 13 -29t6 -26q1 -43 22 -132t22 -120q2 -25 15 -51t34 -37q34 48 99.5 165.5t108.5 174.5q41 20 56 1t20.5 -61.5 t16.5 -56.5l63 -165q46 52 106.5 196.5t95.5 198.5q-4 43 19 58z" />
<glyph unicode="X" horiz-adv-x="709" d="M727 648q-4 -31 -27.5 -51t-50 -29t-55 -29t-40.5 -49q-20 -19 -80.5 -78.5t-92.5 -90.5q32 -18 55.5 -48.5t36 -58t37 -55.5t60.5 -42q6 -31 -7 -46.5t-44 -27.5t-42 -20q-30 9 -36 52.5t-19 56.5q-7 11 -30 62t-50 73q-33 -9 -62.5 -29t-46.5 -38.5t-46 -53t-46 -52.5 q-6 -13 9 -35.5t-3 -35.5l-84 -53q-7 9 -23.5 24.5t-25 25.5t-8.5 25.5t17 32.5q210 210 269 273q3 30 -10 61.5t-34.5 59.5t-44.5 55.5t-41 59.5t-21 61q21 28 40 33.5t34 -9t25 -31t22.5 -43.5t17.5 -36l79 -133q43 19 85.5 56t71 73t69 73t81.5 56q37 -9 61 -39z" />
<glyph unicode="Y" horiz-adv-x="594" d="M590 614q-66 -53 -154 -138q-22 -21 -70 -66t-70 -67q-14 -14 -21 -35t-7.5 -35t-0.5 -44q0 -43 -3 -64q-9 -37 -27 -59q-3 -12 4 -22l17 -21q25 -31 4 -64q-20 -22 -50 -18q-7 0 -15 2t-17 4.5t-14 3.5l-7 5q-10 36 -5 75q2 7 8 31t9 39q1 18 9 76.5t7 89.5 q-2 97 -72 133l-8 4l14 14q-6 7 -22 34q-9 13 -24 42q-31 56 -62 72l-6 3l3 6q2 5 10 24q6 14 16 24q23 23 56 3l5 -3q7 -20 11 -25l10 -10l-7 -16l123 -201h18q29 27 133 132.5t164 158.5l7 1q29 -10 37.5 -36.5t-3.5 -52.5z" />
<glyph unicode="Z" d="M732 132q-12 -26 -28 -42t-26 -20.5t-40 -15.5q-4 -2 -7 -3q-15 23 -39.5 22.5t-45 -8t-45.5 9.5q-22 -1 -91 0t-102 -1t-85.5 -14.5t-94.5 -36.5q-13 8 -29 3t-29.5 -15t-28 -9t-23.5 21l5 68q33 37 120 133.5t150.5 170t120.5 145.5q-26 16 -59.5 15.5t-54 -7.5 t-62.5 -26t-52 -23q-23 -9 -42 5t-16 44q61 44 147 62t187 28.5t163 31.5l12 -34l-12 -49q-67 -46 -135 -110.5t-160 -165t-122 -131.5q25 -22 56.5 -24t59.5 8t63.5 14.5t69.5 -4.5q33 -9 73 -8t74.5 6.5t69.5 -3.5t58 -37z" />
<glyph unicode="\" horiz-adv-x="726" d="M728 19q-6 -6 -6.5 -22t-5 -24.5t-22.5 -2.5q-116 118 -349.5 337t-351.5 339l-10 41q4 10 12 12.5t19.5 1t16.5 -0.5q78 -84 177.5 -181.5t154 -148t195 -177.5t170.5 -155v-19z" />
<glyph unicode="_" d="M756 -27l-6 -82q-65 15 -140.5 19t-189 0t-141.5 -4q-34 0 -76 -10t-71.5 -19t-68.5 -7.5t-76 21.5q-6 29 9.5 36t41.5 7.5t35 10.5q81 0 236.5 14t230.5 14h216z" />
<glyph unicode="a" horiz-adv-x="487" d="M447 269q22 -152 -11 -267q-2 -1 -7 -4t-7 -4.5t-7 -4t-7.5 -3t-7 -2t-7.5 -0.5t-6.5 2t-7 4t-6.5 7q-12 9 -13 23.5t4 27.5t12 31t8 29q-36 -5 -72.5 -23.5t-79.5 -46t-71 -41.5h-94q-23 24 -33 61t2 68q126 180 294 198q-14 32 -49.5 43.5t-71 6.5t-66.5 -19 q-55 -38 -99 -17q-15 13 -9 28.5t21.5 28.5t31.5 18q16 3 66.5 16.5t78.5 18t67.5 -2t66.5 -32.5zM378 237q-87 8 -165 -34.5t-102 -120.5q22 -1 33 -2t30 7.5t28 13.5t26.5 15.5t25.5 15.5q14 16 47 29.5t55 30t22 45.5z" />
<glyph unicode="b" horiz-adv-x="534" d="M503 283q-33 -76 -90.5 -120.5t-150.5 -84.5q-14 -22 -36 -31.5t-50.5 -13t-39.5 -7.5q-8 -4 -22 -15.5t-27 -17.5t-30 -5q-9 8 -16 18.5t-10.5 23.5t-6.5 23.5t-2.5 27t0.5 26t3 28.5t4 25.5t4.5 26t4.5 22.5q4 20 12 63.5t13 69.5t12 67t10.5 72t6.5 67.5t2.5 70 t-4.5 63.5q-14 11 -14 34q8 1 23.5 12t24.5 14t25 -7q9 -22 12 -42t2.5 -48.5t0.5 -40.5q-11 -8 -14 -26t-1.5 -42t0.5 -30q-1 -34 -12.5 -82t-13.5 -75l8 -9q70 67 162.5 99.5t170.5 8.5q13 -9 22.5 -19t14 -22.5t7.5 -21.5t2.5 -25t-1 -24t-3 -27t-3.5 -26zM426 359 q-7 16 -16.5 17.5t-17.5 -2.5t-20 7q-123 -33 -223 -172q10 -29 -11.5 -65.5t-22.5 -45.5h16q42 15 76 29t76 38t70.5 50.5t49.5 64t23 79.5z" />
<glyph unicode="c" horiz-adv-x="467" d="M454 132q-4 -4 -16 -16.5t-16.5 -16.5t-14.5 -11.5t-18.5 -10.5t-17.5 -4l-5 -8q-30 -6 -87 -28.5t-97 -36.5t-87.5 -6t-79.5 50q-4 19 -4 39t1.5 36.5t10 38.5t13 35t20 36t21 32.5t25 33.5t24.5 30t26.5 30.5t23.5 27.5q5 3 26 16.5t30 19t29 16.5t32 14.5t31.5 7 t33.5 0.5t31 -10.5t32 -21.5q-1 -7 -1 -27.5t-1 -34.5t-5.5 -31t-15 -28t-26.5 -16q-29 -8 -38 4.5t-4.5 31.5t-2 34t-31.5 11q-97 -73 -130 -108q-83 -87 -72 -179q18 -11 40.5 -11t41 5.5t44 13t42.5 9.5q15 5 44.5 19t48.5 21.5t46.5 7.5t52.5 -15z" />
<glyph unicode="d" horiz-adv-x="602" d="M581 733q11 -23 1.5 -52t-34.5 -43q16 -36 16.5 -38t-4.5 -44q-6 -47 -22 -104t-30.5 -99t-27.5 -98.5t-12.5 -102t14.5 -110.5q-2 -5 -6 -20t-7 -22.5t-9.5 -17.5t-16.5 -14t-25 -3q-15 -4 -23 2.5t-10 15t-3.5 23.5t-2.5 20q2 13 7 31t6.5 27t0.5 22t-8 26 q-14 -10 -51 -38.5t-57.5 -42t-53.5 -31t-66 -22t-68 1.5q-37 26 -52 65.5t-3 79.5q37 123 128.5 214t214.5 103q48 4 60 -15q1 -4 4.5 -5.5t6.5 -1.5t8 1.5t7 1.5q19 66 28.5 139t21.5 124q12 20 30.5 28t37.5 -1zM382 322q-12 23 -35.5 33.5t-50.5 3.5q-19 -4 -35.5 -12.5 t-29 -16t-26 -24t-21 -24.5t-19 -31t-15 -29t-13.5 -34.5t-11.5 -31.5t-11.5 -33q1 -15 15 -27.5t28 -10.5q84 23 150 90t75 147z" />
<glyph unicode="e" horiz-adv-x="632" d="M624 111q-39 -6 -86.5 -19.5t-86.5 -27.5t-85.5 -27.5t-87 -21.5t-87.5 -7t-91 13q-71 37 -76 133q-4 71 28.5 127t96.5 110q62 38 137 51t143 -7q-3 -27 29 -50t33 -43l23 -56q-62 -18 -171.5 -56.5t-167.5 -55.5q-20 5 -49.5 -10t-4.5 -44q15 -18 40.5 -25t44 -7 t53.5 3.5l45 4.5q48 2 146.5 40.5t168.5 25.5zM393 334q-53 40 -107.5 33.5t-97 -46.5t-49.5 -88q21 11 125.5 42t128.5 59z" />
<glyph unicode="f" horiz-adv-x="566" d="M729 604q0 -25 -30 -61t-34 -56l-41 6q-9 15 -7 33.5t9 34t3 31t-26 26.5q-61 7 -107.5 -5.5t-75.5 -63.5h-21q-10 -28 -39.5 -72.5t-45 -82t-5.5 -76.5q23 -9 58 -8t68 6t53.5 -11.5t14.5 -60.5q-15 -23 -39 -24t-48 10.5t-53 14.5t-54 -12q-26 -18 -33 -53.5t-2 -71 t6 -67.5t-18 -49t-65 -9q-5 83 21 246l-21 15q-18 1 -64.5 -16t-79 -15t-44.5 41q20 35 60 43.5t77 2t78 4.5q9 25 21.5 67.5t21.5 73t25.5 68.5t35.5 63.5t49.5 47t69.5 30.5q35 22 73.5 35.5t84.5 13.5t82 -21z" />
<glyph unicode="g" horiz-adv-x="585" d="M533 429q15 -21 14.5 -43t-7 -34t-23.5 -38q9 -83 -3.5 -167.5t-37.5 -157t-69.5 -150.5t-88.5 -139t-106.5 -132t-111.5 -121t-115 -113l-55 9q-1 6 1.5 15.5t3 14t-6.5 12.5q27 20 62 57t69.5 67t76.5 45q6 37 32 67t53 47.5t50.5 48.5t26.5 71q96 100 131 317 q-40 2 -79 -15t-64.5 -36.5t-63.5 -31t-78 -0.5q-10 4 -33.5 11t-38.5 12.5t-26.5 20.5t-9.5 37q-2 17 -0.5 33.5t7.5 32t11 28t17.5 28t19 24t23.5 24.5t23 21.5t26 22.5t24 21q21 11 63.5 37t71.5 41t67.5 28.5t74.5 9.5t69 -25zM443 288q0 1 -4 7.5t-5.5 9t-6 9.5 t-7.5 10t-8 9t-9 8.5t-9.5 6t-10.5 5t-11.5 1.5t-12.5 -2q-79 -24 -153.5 -89t-93.5 -143q2 -2 6 -4.5t17.5 -8t29.5 -8.5t42 -2.5t55 6.5q14 15 47.5 33t60.5 32t49.5 45.5t23.5 74.5z" />
<glyph unicode="h" horiz-adv-x="514" d="M477 362q-11 -42 -9.5 -96t9 -100.5t2.5 -88t-29 -59.5q-34 18 -47.5 50.5t-10.5 67.5t7 75.5t7 75t-12 65.5q-39 -18 -76 -54.5t-62.5 -71.5t-59 -76t-61.5 -64q5 -36 -8.5 -65.5t-46.5 -23.5q-25 -8 -37 14.5t-7 49.5q37 95 61 226.5t47.5 264.5t59.5 229q9 8 18.5 1 t19.5 -6t13 20q31 -25 32.5 -52.5t-13.5 -48.5t-30.5 -51.5t-13.5 -57.5q-11 -156 -60 -294l15 -16l220 181q37 7 54.5 -24.5t17.5 -70.5z" />
<glyph unicode="i" horiz-adv-x="225" d="M196 564q-4 -10 -11.5 -16t-14.5 -8t-17.5 -1.5t-17.5 1.5t-18 3.5t-14 3.5q-10 35 -7.5 66.5t28.5 64.5q22 13 34.5 11t17 -9.5t5.5 -23.5t1 -31.5t3 -32.5t11 -28zM155 48q-2 -2 -10 -10.5t-11 -11.5t-10.5 -9.5t-12.5 -8.5t-13.5 -4.5t-17 -2t-18.5 3.5q-7 5 -14 19 t-12 17.5t-26 -0.5q18 9 22 22.5t-1 27t-5 29.5t9 29q4 34 13.5 84.5t15.5 92.5t6 88q27 25 80 21q13 -46 8 -85t-14 -81t-17.5 -77.5t-2.5 -73.5t31 -70z" />
<glyph unicode="j" horiz-adv-x="246" d="M236 647q-5 -38 -25.5 -58.5t-57.5 -33.5q-15 -5 -26.5 2.5t-22.5 23t-17 20.5q9 26 13 36t14.5 30t24.5 29.5t32 11.5q13 -3 23.5 -10t15.5 -13t13.5 -19t12.5 -19zM177 447q-4 -149 -25 -279.5t-64.5 -262t-120 -250.5t-183.5 -216q-15 -4 -24 2t-13 15.5t-13.5 20 t-24.5 13.5q138 113 228.5 281.5t135.5 352.5q-16 6 -8 37t1 42q15 14 11 36t5 38q-18 55 0 132q8 34 38.5 49t56.5 -11z" />
<glyph unicode="k" horiz-adv-x="524" d="M527 10q-29 -19 -58 -10t-47 26t-44.5 38.5t-50.5 26.5q-35 8 -104.5 46.5t-115.5 43.5q-17 -28 -2 -102q19 -8 20.5 -22t-6.5 -26t-21 -22q-14 -18 -27 -16.5t-20 11t-19.5 19.5t-25.5 8q8 59 23 160t23 160q15 2 18 7.5t-2 12t-9.5 14t-1.5 11.5l75 352q-3 4 -5 5 q3 -2 4 3l-1 8q0 36 74 36q0 -27 -2 -52t-4.5 -42t-8.5 -42t-9.5 -37t-12.5 -43t-13 -44q-8 -3 -10.5 -7t-1.5 -8t4 -7.5t5.5 -8t3.5 -7.5q-4 -26 -35 -207q18 -7 30.5 1.5t26.5 32t16 26.5q29 9 55 37t45.5 59t42.5 59.5t56 42t75 2.5l-268 -314q31 -25 90 -47.5t105.5 -38 t86 -52.5t46.5 -93z" />
<glyph unicode="l" horiz-adv-x="215" d="M196 765q-5 -120 -33 -343q-7 -56 -21.5 -135.5t-21.5 -139t-5 -123.5q-3 -17 -9 -26.5t-12.5 -13.5t-17 -3.5t-18 3t-20 6.5t-19.5 6q6 106 35 241.5t35 213.5q-5 42 6 98t8 82q-12 57 12 92q1 10 1.5 35t2.5 34t13 20.5t32 16.5q19 -1 24 -12t2.5 -24.5t5.5 -27.5z" />
<glyph unicode="m" horiz-adv-x="773" d="M765 92q-10 -35 -42 -52.5t-63 4.5q-16 50 -14.5 176.5t-17.5 173.5q-41 -34 -74.5 -83.5t-68.5 -114t-63 -102.5q0 -1 -6 -14.5t-9 -19t-12 -12t-19 -5.5q-24 1 -37 9.5t-14 24.5t1.5 29t9.5 35.5t9 31.5q-6 24 -1 65.5t7.5 68t-14.5 60.5q-24 9 -38.5 -6t-29 -40.5 t-31.5 -33.5q-3 -19 -4.5 -26.5t-7 -25.5t-16 -27t-25.5 -12q-4 -39 -26.5 -107t-29.5 -103q-7 -18 -19 -21.5t-23.5 2.5t-26.5 13.5t-23 7.5l-16 35q27 23 37.5 80.5t31.5 77.5q-14 42 2 131t-1 138q22 28 64 25q10 -105 -16 -208q17 16 39.5 52t47 63t56.5 37q3 13 13 20 t21 8.5t24 6t21 12.5q18 -12 26.5 -36.5t14 -59t12.5 -52.5q-3 -27 12 -62q27 27 67 81t79.5 97t84.5 68q46 -42 56 -102t2.5 -140t-1.5 -119z" />
<glyph unicode="n" horiz-adv-x="443" d="M415 -20q-8 -11 -19.5 -14.5t-28.5 -4.5t-23 -2q-20 47 -11.5 131.5t-2.5 134.5q17 31 -15 94q-1 1 -2 4l-3 6h-24q-23 -20 -44 -44t-41 -55.5t-31 -51t-32 -59t-27 -50.5q9 -4 13.5 -8.5t4.5 -10.5t-1.5 -11t-4 -12.5t-3.5 -11.5q-17 -14 -39.5 -14t-39.5 14 q-14 38 -16 80t7.5 85.5t21 80.5t27.5 85t24 79l49 30q10 -18 8.5 -44.5t-7 -45.5t-13 -46t-8.5 -46q12 9 30 27.5t32.5 34.5t35.5 34.5t39.5 27t43.5 12t48 -9.5q30 -54 40.5 -119t10.5 -172.5t1 -127.5z" />
<glyph unicode="o" horiz-adv-x="565" d="M531 211q-8 -15 -26 -29t-34.5 -23.5t-31.5 -23.5t-19 -29q-18 -32 -53.5 -50t-83 -32.5t-71.5 -28.5q-26 -8 -77 10t-57 19q-18 14 -30 43t-15.5 48.5t-7.5 57.5q35 61 69 107.5t81 92t105 68t123 16.5q83 -7 122 -81q13 -25 15.5 -57.5t0 -53t-9.5 -54.5zM451 293 q-16 44 -41 64.5t-71 8.5q-21 -15 -69 -42.5t-76 -46.5t-53 -56.5t-26 -84.5q0 -14 6 -24.5t18 -16t21.5 -8.5t24.5 -5.5t20 -3.5q228 81 246 215z" />
<glyph unicode="p" horiz-adv-x="538" d="M496 403q15 -28 15.5 -58.5t-7.5 -53.5t-25 -55q-25 -47 -69.5 -80.5t-87 -50t-99 -40.5t-91.5 -47q-6 -64 -22 -181.5t-24.5 -210t-5.5 -164.5q-5 -25 -17 -34.5t-22 -8t-29 8.5t-26 8q7 117 38.5 320.5t38.5 291.5q-17 23 -9.5 50.5t23.5 48.5t20.5 50t-17.5 55 q-15 12 -24.5 7.5t-20 -3t-19.5 18.5q3 16 34.5 40.5t41.5 38.5q2 13 2.5 38t2 36.5t12.5 24.5t33 18q20 -1 23.5 -13t-0.5 -26.5t6 -28.5q13 3 48 14t58.5 17t58.5 11.5t61 3.5t53 -13t46 -33zM434 338q-29 30 -79 32t-97.5 -16t-86.5 -46q11 -40 -7 -100t1 -90 q121 47 167 77q84 57 102 143z" />
<glyph unicode="q" horiz-adv-x="571" d="M556 512q-1 -11 -7 -59.5t-7 -64.5t-4 -67.5t2 -68.5q-15 -16 -17.5 -36t0.5 -35.5t-7 -38.5q-7 -51 -34 -288t-49 -354q20 -21 11 -57t-46 -41q-42 8 -57.5 33t-8.5 60t20 70t26.5 74t13.5 61q0 49 8 129.5t11 128t-5 128.5q-27 -6 -84.5 -28t-98 -35t-91 -10.5 t-86.5 32.5q-28 39 -28.5 63.5t17.5 67.5q50 56 93.5 96t98.5 78.5t115 55t122 10.5q9 9 9.5 36t7.5 36q13 1 37 13.5t38 10.5zM425 266l-21 59q-158 0 -294 -190q2 -12 9.5 -19t20 -13t17.5 -10q9 2 34.5 8t36 8.5t33.5 9t34 11t30.5 12.5t29.5 16t24 19.5t21.5 24.5 t14.5 29t10 35z" />
<glyph unicode="r" horiz-adv-x="474" d="M439 390q-65 -20 -122.5 -51.5t-111 -86.5t-72.5 -121q-12 -22 -8 -45t-0.5 -48t-26.5 -35q-24 -11 -36.5 0t-21 30.5t-18.5 22.5q16 51 31 155.5t20 125.5h-13q13 24 7.5 48t1 43t36.5 20q18 7 24 -0.5t9 -22.5t11 -20q-1 -10 -7.5 -30t-7 -29.5t8.5 -29.5 q27 16 79.5 43.5t93 52t71.5 52.5q5 -4 17 -9.5t21 -11t17 -13t7.5 -18t-10.5 -22.5z" />
<glyph unicode="s" horiz-adv-x="481" d="M453 225q6 -12 8.5 -23.5t0 -25t-3.5 -21.5t-8.5 -24t-9.5 -20t-13 -22t-11 -19q-51 -51 -141 -67.5t-174 -6.5l-55 53q20 24 59.5 30t78.5 1.5t84.5 1.5t74.5 30q1 9 16.5 29t11.5 31q-28 7 -73 10t-81.5 6.5t-76 12.5t-71 32t-50.5 60q-3 35 14 63.5t37 42.5t57.5 35 t52.5 32q23 -2 73 13.5t86.5 12t57.5 -43.5q10 -15 4 -25.5t-14.5 -13.5t-23 -9t-20.5 -12q-22 12 -49.5 13.5t-44 -2t-49 -14.5t-40.5 -13l-47 -48q25 -30 61 -42.5t73 -13t73.5 0t72.5 -9t60 -34.5z" />
<glyph unicode="t" horiz-adv-x="400" d="M373 13q-34 16 -66 9t-66.5 -17t-63.5 -18.5t-57 5.5t-47 56q-9 47 6.5 101t36 109.5t20.5 97.5h-105q4 23 21.5 33.5t39 11.5t42 3.5t35 17.5t14.5 46q0 29 1 44.5t7.5 37.5t20.5 37q-11 28 -4.5 65.5t33.5 46.5q5 -1 20 0.5t22 -2.5t5 -19l-35 -217q5 -1 16 -2.5 t18.5 -3t18 -3.5t18 -4.5t16 -6.5t13 -8.5t7.5 -10t2.5 -13t-4.5 -16.5q-15 -17 -35.5 -17t-37.5 9t-35.5 5.5t-31.5 -27.5q-7 -30 -27.5 -88t-28.5 -105t1 -93q22 -20 51 -15t59 13.5t55 15t38 -11.5t7 -66z" />
<glyph unicode="u" horiz-adv-x="498" d="M477 443q-18 -30 -23.5 -68t-6.5 -89t-6 -82h-5l-10 -210q-32 -20 -63 1t-17 54q-2 18 -0.5 26.5t6 22.5t5.5 22q-29 11 -54.5 -7.5t-53.5 -49.5t-53 -40q-11 -2 -32 -10.5t-38.5 -15t-36.5 -9.5t-32.5 7t-20.5 34q-4 84 20.5 223t28.5 175q40 32 85 0q-2 -12 -36 -140 t-34 -194q19 1 38 7t33.5 12t34 22t30 24t31 31t26.5 29.5t28 33.5t25 30q24 16 32 55.5t7 73t16.5 55.5t60.5 13z" />
<glyph unicode="v" horiz-adv-x="507" d="M478 417q9 -20 -3.5 -39.5t-25.5 -27.5t-24 -12q-61 -40 -67 -97q-27 -7 -37 -21q-5 -25 -30.5 -60t-50.5 -56q-1 -2 -10.5 -15.5t-12 -16.5t-11.5 -15t-13 -16l-13 -13t-15.5 -12.5t-16 -9t-19 -8.5t-20.5 -4q-30 57 -42.5 130t-22.5 153t-31 138q36 36 81 34 q9 -39 25.5 -150.5t36.5 -166.5h11q49 60 130 167.5t125 162.5q8 0 14.5 -1t12 -4t8.5 -4.5t6.5 -7.5t5 -8t5 -10t4.5 -10z" />
<glyph unicode="w" horiz-adv-x="800" d="M789 397q-14 -10 -22 -33t-18.5 -40t-31.5 -20q10 -18 -13 -45t-15 -51q-25 -19 -47 -60.5t-36 -77t-43.5 -60.5t-70.5 -20q0 19 -26.5 72.5t-19.5 82.5q-24 17 -29.5 72.5t-7.5 61.5l-15 43q-26 -18 -34.5 -37.5t-14.5 -60.5q-15 -9 -38 -46q-1 -9 -1.5 -18t-0.5 -13 t-2.5 -10t-8 -11.5t-15.5 -14.5q-20 -36 -35 -57.5t-42 -43t-57 -25.5q-42 82 -65.5 228t-45.5 211q36 41 74 36q11 -43 23 -109t24.5 -119t31.5 -102h22q52 67 90.5 170t91.5 169q32 -3 47.5 -26.5t17 -52t7 -64t18.5 -54.5q-3 -39 12.5 -92.5t37.5 -97.5q52 56 106 178 t83 164q19 12 43.5 4.5t25.5 -31.5z" />
<glyph unicode="x" horiz-adv-x="437" d="M440 407q-17 -26 -46.5 -54.5t-70 -62.5t-57.5 -50q-24 -9 -28 -25.5t5.5 -45t10.5 -34.5q23 -25 34 -77t34 -77q2 -21 -10 -34.5t-33 -13.5q-28 -7 -39.5 10t-17 49.5t-13.5 44.5q10 11 -0.5 23t-19.5 20.5t6 25.5q-28 21 -46 6t-23.5 -40t-21 -52.5t-40.5 -33.5 q-21 -5 -26.5 6t-2.5 26t-6 24l105 164q-4 42 -27.5 92t-43.5 98t-19 90q32 18 59.5 -3t36.5 -57q9 -34 55 -124q-1 -2 -3.5 -6t-4 -7.5t-2.5 -7.5t1.5 -7.5t8.5 -6.5q21 23 58 49.5t67 50.5t43 49q18 7 26.5 6.5t26 -7.5t24.5 -8z" />
<glyph unicode="y" horiz-adv-x="531" d="M535 485q-30 -86 -92 -183t-137.5 -202.5t-114.5 -176.5q-33 -78 -118 -210t-109 -177l-58 -32q-31 20 -31 40.5t18 36t37.5 37.5t20.5 42q16 41 52.5 96t66.5 96.5t49.5 98t10.5 110.5q-21 26 -32.5 70t-16 80.5t-22 72.5t-50.5 52q-7 16 -0.5 22.5t16.5 5.5t18 4t4 20 q13 -4 36 2.5t36 2.5t17 -32q22 -175 76 -262q26 1 40 19t18 39.5t17 41.5t38 25q4 12 11 39.5t12.5 43t20 33.5t36.5 27l32 7q-14 9 -16.5 15t0.5 16.5t1 20.5l53 76l23 -21q5 4 9.5 9t5.5 6.5t4.5 0.5t6 -3t11.5 -9z" />
<glyph unicode="z" horiz-adv-x="719" d="M709 70q-87 -14 -316.5 -30t-344.5 -42q3 10 -2.5 18t-15 15.5t-12.5 13.5q11 32 36 55.5t50 47.5t36 55q26 26 101.5 80t104.5 90q-53 13 -156 -1t-149 -7q-6 7 -7.5 15.5t0 23.5t1.5 20q47 4 186 21.5t236 18.5q4 -47 -14.5 -85.5t-52 -66.5t-69.5 -51.5t-74 -54 t-59 -62.5l-33 -35l40 -23q68 23 230 28.5t230 35.5q2 -1 18 -8t22 -11.5t15 -13.5t8.5 -20.5t-9.5 -26.5z" />
<glyph unicode="&#xa2;" horiz-adv-x="561" d="M279 99q-2 -8 -12.5 -28t-16.5 -40t-4 -39q8 -21 -5.5 -32t-34.5 -14q-24 -3 -40.5 13.5t0.5 38.5q47 92 113 101zM527 694l-24 -141q-26 -27 -73 -21q-11 20 -4.5 44t15 37.5t24 35t22.5 36.5q6 5 14 2t16 -2.5t10 9.5zM514 498q-7 -96 -67 -146q-35 10 -45 24l28 77 q-72 -8 -137.5 -47.5t-97.5 -105.5q-14 -57 43 -93q27 -8 61 -3t55 12t52.5 18.5t53.5 16.5q11 -46 -14.5 -66t-77 -28.5t-67.5 -17.5q-57 -11 -104 11.5t-59 73.5q-6 14 -8 28.5t-1.5 25.5t7 26t10.5 23t16.5 24t17 21t19.5 21.5t18 19.5q3 2 24.5 15t26 15.5t24 14.5 t26.5 15t25 12t27.5 12t26.5 9t29.5 8t28.5 4.5t32 2.5z" />
<glyph unicode="&#xa9;" horiz-adv-x="711" d="M688 481q8 -19 -8 -29.5t-14 -18.5q-2 5 -5 16.5t-5 18t-6 17.5t-8 16t-10.5 13.5t-13.5 9.5t-18 4t-23 -3l-67 5q-2 16 13 25t37 11q105 -10 128 -85zM697 338q3 22 1.5 36.5t-6 22t-9.5 11t-9 4.5h-4l-4 -85q13 -34 31 11zM657 309q9 -61 -14.5 -109.5t-57 -76 t-102 -51.5t-109 -33t-117.5 -23q-43 -8 -63 -12q-126 22 -174 124q-18 117 27 168q5 31 19.5 61t42 61.5t45.5 49t53 50.5q23 26 49.5 46t62 36.5t58.5 25.5t69.5 24.5t63.5 21.5q3 -2 13.5 -7t14.5 -7.5t10.5 -7.5t10 -11.5t6.5 -15.5l-31 -31q-16 24 -39.5 28.5t-43 -3.5 t-48 -21t-43.5 -16q-123 -65 -205 -180.5t-73 -245.5q9 -11 20.5 -32.5t23.5 -37t31 -23.5q158 -10 294 52.5t206 195.5zM459 412q-8 -12 -17.5 -38.5t-21.5 -45t-33 -27.5q-25 10 -30.5 42t-14.5 38q-49 -31 -75 -67.5t-42 -93.5q40 -14 61.5 -11.5t58 9t64.5 2.5 q-4 -32 -31.5 -46t-82 -21.5t-70.5 -11.5q-19 1 -30 10t-22 30t-16 27q18 84 84 160t152 100q48 13 66 -56z" />
<glyph unicode="&#xae;" horiz-adv-x="541" d="M497 393q-10 -35 -38 -51t-72 -26t-63 -20q-19 0 -62 -5t-69.5 -6.5t-60 8.5t-56.5 34q-14 12 -21 25t-12.5 32.5t-9.5 29.5q2 72 51.5 131.5t119.5 82.5q2 1 19 6.5t21 7t20 6t22 6t20.5 4.5t22 3.5t20.5 1.5t22.5 0t20.5 -3t21 -6l8 -26q-8 -3 -63.5 4t-76.5 -13 q-54 -12 -103.5 -46t-78.5 -81q-2 -8 -8 -27t-8 -30.5t-3 -27t6 -28.5t21 -24q39 -24 89.5 -31t85 -3t98.5 15q85 48 107 131q4 9 4.5 19t-0.5 16.5t-7 18t-8.5 15t-10.5 15.5q-9 10 -29.5 14.5t-35 11.5t-14.5 25q12 9 24.5 9t22 -5t23 -12t22.5 -9q23 -19 33 -41.5 t7 -53.5t-6.5 -45.5t-14.5 -51.5zM380 367q-28 -6 -78 5t-73 8q-2 -3 -5 -20t-12 -21q-36 -7 -40 37q17 13 24.5 51.5t25.5 52.5q-4 5 -14.5 5t-20 -3t-18 -3t-8.5 5.5t8 22.5q20 14 46 21t46 7.5t53 -0.5t50 0q9 -29 -9.5 -46.5t-48 -32t-38.5 -30.5q13 -7 44 -8.5 t49 -11.5t19 -39zM303 487l14 20l-44 -11l-17 -31z" />
<glyph unicode="&#x2c6;" horiz-adv-x="308" d="M266 643q-12 -41 -38 -121.5t-41 -131t-32 -120t-24.5 -134.5t-6.5 -129q-69 -41 -100 21q11 100 39.5 209.5t69.5 237t58 194.5q8 -3 30.5 1t35 -0.5t9.5 -26.5z" />
<glyph unicode="&#x2dd;" horiz-adv-x="585" d="M630 -52q-4 -30 -20 -55.5t-35 -42t-50.5 -32.5t-53.5 -24t-59 -20.5t-53 -18.5q-93 -59 -197 -63.5t-190 52.5q-24 23 -29 62t11 69q11 22 38.5 39t54 26t52.5 25t34.5 36t-0.5 60q-106 66 -89 156q74 132 264 226l94 23q14 20 22 63.5t21.5 73t46.5 33.5l18 -38 q-13 -26 -16 -80.5t-26 -80.5q33 -57 24 -124q-6 -7 -34 -44t-37.5 -48t-35.5 -39t-44 -40.5t-45.5 -28t-55.5 -23.5q-22 -32 -15 -72l10 -11q21 2 67.5 7.5t76 8.5t72.5 2.5t72.5 -7.5t59 -24.5t47.5 -45.5zM426 361q-13 10 -41.5 5.5t-35.5 5.5q-144 -39 -210 -132 q-1 -8 -12.5 -29t-10.5 -36t23 -25q20 -11 43 -8t38 11t36.5 17t39.5 10q12 19 37 42.5t45 40.5t35 43.5t13 54.5zM527 -120v31l-35 37q-56 3 -121.5 1t-125 -9t-120 -29.5t-106.5 -59.5q-14 -23 -1 -43.5t38 -34.5q48 -18 98 -18.5t99.5 14.5t90.5 32.5t94.5 42t88.5 36.5z " />
<glyph unicode="&#x2013;" horiz-adv-x="468" d="M432 414l-7 -82q-63 9 -92 14q-34 2 -75.5 -7.5t-71.5 -19t-69 -8.5t-76 21q-7 29 9 36t42.5 7.5t35.5 10.5q24 5 46 12t32 12l9 4h217z" />
<glyph unicode="&#x2014;" horiz-adv-x="849" d="M810 414l-7 -82q-65 15 -141 18.5t-187 -0.5t-142 -4q-34 0 -75.5 -10t-71.5 -18.5t-69 -7t-76 21.5q-7 29 9 36t42.5 7.5t35.5 10.5q81 0 236 14t229 14h217z" />
<glyph unicode="&#x2018;" horiz-adv-x="222" d="M214 720q-2 -15 -17 -29.5t-32.5 -25t-34 -28.5t-20.5 -39q-4 -13 -6.5 -35t-8.5 -37t-20 -28l-38 -9q-23 51 -1 110.5t67 110.5q70 26 111 10z" />
<glyph unicode="&#x2019;" horiz-adv-x="196" d="M162 646q-8 -34 -12.5 -49.5t-16 -42.5t-29.5 -44t-43 -27q-25 0 -34 42q5 6 23 26t27.5 36.5t12.5 34.5q-22 77 -59 83q11 13 34 16t45.5 -4t38.5 -26t13 -45z" />
<glyph unicode="&#x201c;" horiz-adv-x="378" d="M206 750q-4 -21 -22 -38.5t-36 -28t-32.5 -30.5t-13.5 -46q1 -15 4.5 -34t5 -28.5t-3 -22t-17.5 -24.5q-18 0 -30 10.5t-24 29t-19 25.5q-6 86 47.5 147t140.5 40zM396 720q-2 -19 -26 -36.5t-49 -38t-29 -47.5q-4 -13 -7 -35t-8.5 -37t-20.5 -28l-38 -9q-22 51 0 110.5 t67 110.5q70 26 111 10z" />
<glyph unicode="&#x201d;" horiz-adv-x="355" d="M165 663q-24 -124 -88 -175q-10 5 -23 1t-19 -5.5t-16 12.5q3 -1 4 -1t3.5 2t3.5 3l-24 29q22 6 46.5 37t36.5 39q9 19 4 36.5t-17.5 29.5t-23.5 26.5t-13 27.5t13 33q10 2 19.5 2.5t17 -1.5t14.5 -6t12.5 -8.5t11 -11.5t9 -12.5t8.5 -14.5t7.5 -14.5t7 -14.5t6.5 -14z M328 646q-8 -34 -12.5 -49.5t-16 -42.5t-29 -44t-42.5 -27q-23 0 -35 42q3 4 22.5 25.5t28.5 37t12 34.5q-22 77 -58 83q11 13 34 16t45.5 -4t38 -26t12.5 -45z" />
<glyph unicode="&#x2020;" horiz-adv-x="560" d="M556 384q-13 -15 -28.5 -16t-28.5 6.5t-31 13.5t-32 3q-16 -11 -46 -18.5t-54.5 -12.5t-48 -21.5t-33.5 -44.5q3 -28 -3 -67.5t-13 -71t-6 -70.5t16 -70q-51 -47 -91 -22q-14 31 -15 63.5t6 56.5t15 58.5t9 61.5l55 83q-25 8 -55.5 3.5t-56.5 -14t-53.5 -9t-46.5 19.5 q21 19 52.5 29t74 17t62.5 13q8 30 27.5 88.5t31.5 104t16 86.5q17 25 43.5 26t38.5 -26l-60 -226q27 -8 57.5 -0.5t63.5 14.5t60 10.5t47.5 -13t26.5 -55.5z" />
<glyph unicode="&#x2022;" horiz-adv-x="333" d="M254 342q0 -32 -27.5 -58.5t-60.5 -37.5q-13 0 -28 0.5t-28 1.5t-22 8.5t-10 22.5q-1 22 7 38.5t24.5 27.5t32 18t39 15.5t34.5 13.5q13 0 22 -9.5t11 -16.5t6 -24z" />
<glyph unicode="&#x2026;" horiz-adv-x="703" d="M107 94q-10 -6 -12 -35t-14 -44.5t-50 -1.5q-1 5 -3.5 20t-3 23.5t0 21t6 21.5t16.5 16zM660 101q0 -52 -20.5 -88t-62.5 -15q-13 22 -13 44.5t6.5 37.5t20.5 40q6 0 18.5 1t20 1t16.5 -5t14 -16zM393 101q-10 -13 -17 -39.5t-10.5 -47.5t-18.5 -36.5t-43 -13.5 q-58 36 16 145q4 1 14.5 6.5t19.5 9t18.5 4.5t15 -6t5.5 -22z" />
<glyph unicode="&#x2044;" horiz-adv-x="726" d="M728 687l-10 -41q-117 -118 -350.5 -337.5t-350.5 -338.5q-18 -6 -22.5 2.5t-5 24.5t-6.5 22v19q43 39 140 127t150 136.5t131 122t144.5 141t129.5 135.5q5 -1 17 0.5t20.5 -1t12.5 -12.5z" />
<glyph unicode="&#x2122;" horiz-adv-x="749" d="M345 607q-7 -21 -27.5 -25.5t-40 -1t-35.5 -7.5t-16 -43q-3 -14 -27.5 -51.5t-29.5 -57.5q-5 -43 -26.5 -68.5t-63.5 -3.5q-8 34 3 77.5t38 62.5q4 10 21 38t19 46q-19 13 -58.5 3.5t-55.5 -3.5l-7 41q42 0 140.5 18.5t154.5 10.5zM724 559q-5 -28 -5.5 -63.5t0 -67 t-18.5 -54.5t-61 -25q-9 26 0.5 62t17 61t-11.5 68q-5 -2 -10.5 -4.5t-10 -6.5t-8.5 -7.5t-8.5 -9t-7.5 -9t-7.5 -10t-6 -9.5t-5.5 -9.5t-5 -8.5q-24 11 -33 -28q-27 -14 -43 -3.5t-27.5 27t-20 32t-21 12t-29.5 -33.5q-10 -45 -36 -63q-12 4 -26 0.5t-24.5 1.5t-9.5 23 q7 24 44.5 71.5t40.5 80.5q5 3 14.5 -4t13.5 4v17q4 -1 10 -6t10.5 -9t10 -3t9.5 11v7q16 -2 27 -19.5t16 -34t18.5 -25.5t34.5 6l106 89h40q-4 -10 11.5 -28.5t11.5 -31.5z" />
<glyph unicode="&#x25fc;" horiz-adv-x="495" d="M0 495h495v-495h-495v495z" />
</font>
</defs>
</svg>
